<svg width="104" height="175" viewBox="0 0 104 175" fill="none" xmlns="http://www.w3.org/2000/svg">
<path d="M85.6778 132.689C87.9638 135.223 89.9476 139.289 90.0133 142.697C90.0352 143.971 89.8775 145.297 89.0279 146.316C88.7441 146.659 88.3823 146.93 87.9726 147.104C86.3084 147.782 84.907 146.527 84.1581 145.161C82.6166 142.299 82.9407 138.637 81.0926 135.971C81.3327 137.16 81.2749 138.389 80.9242 139.55C80.5734 140.71 79.9407 141.766 79.0825 142.623C78.9896 142.717 78.8699 142.779 78.7399 142.802C78.6099 142.825 78.476 142.808 78.3565 142.752C78.237 142.695 78.1378 142.604 78.0726 142.489C78.0073 142.374 77.9792 142.242 77.9921 142.111C78.2227 139.615 78.2607 137.104 78.1059 134.602L85.6778 132.689Z" fill="#FFC9A0"/>
<path d="M86.7859 134.072L78.1542 135.858L78.1279 135.249L86.0633 133.136L86.7859 134.072Z" fill="#EFB086"/>
<path d="M86.4182 138.304C87.0195 139.594 87.4976 140.937 87.8458 142.317C88.1635 143.706 88.4047 145.111 88.5684 146.527C88.5717 146.669 88.6293 146.804 88.7295 146.905C88.8297 147.006 88.9649 147.065 89.1071 147.069C89.3742 147.069 89.6895 146.815 89.6501 146.527C89.4775 145.021 89.2216 143.527 88.8837 142.05C88.5034 140.582 87.9888 139.152 87.3466 137.779C87.0619 137.144 86.1247 137.696 86.4094 138.326L86.4182 138.304Z" fill="#EFB086"/>
<path d="M84.1452 139.149C84.744 140.439 85.2219 141.783 85.5728 143.161C85.8904 144.55 86.1302 145.956 86.291 147.371C86.2964 147.513 86.3554 147.648 86.4561 147.749C86.5568 147.849 86.6918 147.908 86.834 147.914C86.9055 147.914 86.9764 147.901 87.0426 147.874C87.1087 147.847 87.1688 147.807 87.2194 147.756C87.2699 147.706 87.3099 147.646 87.337 147.579C87.3641 147.513 87.3777 147.443 87.3771 147.371C87.2078 145.859 86.9549 144.357 86.6195 142.873C86.2392 141.405 85.7246 139.975 85.0823 138.602C84.7977 137.967 83.8606 138.518 84.1452 139.149Z" fill="#EFB086"/>
<path d="M10.9312 129.53C8.45249 131.871 6.14892 135.766 5.81608 139.157C5.69346 140.422 5.74605 141.757 6.51244 142.842C6.76845 143.208 7.10765 143.508 7.50218 143.717C9.10503 144.522 10.6115 143.385 11.4436 142.076C13.1954 139.35 12.7574 136.724 14.8069 134.199C14.7017 135.236 14.8179 136.284 15.1478 137.273C15.4777 138.262 16.0138 139.17 16.7207 139.936C16.8069 140.037 16.9223 140.109 17.051 140.141C17.1798 140.174 17.3154 140.165 17.4391 140.117C17.5628 140.069 17.6685 139.984 17.7415 139.873C17.8144 139.762 17.851 139.631 17.8463 139.499C17.814 136.991 17.975 134.485 18.328 132.002L10.9312 129.53Z" fill="#FFC9A0"/>
<path d="M8.92969 131.81L18.0869 133.994L18.2489 132.676L10.5106 129.941L8.92969 131.81Z" fill="#EFB086"/>
<path d="M8.82897 134.484C8.09567 135.781 7.48011 137.142 6.98962 138.549C6.54266 139.973 6.17567 141.421 5.89037 142.886C5.74585 143.568 6.79254 143.857 6.93706 143.175C7.21532 141.747 7.5706 140.336 8.0013 138.947C8.4604 137.583 9.04691 136.264 9.75308 135.009C10.0903 134.396 9.15309 133.849 8.81587 134.462L8.82897 134.484Z" fill="#EFB086"/>
<path d="M11.0273 135.508C10.2913 136.81 9.67562 138.177 9.18805 139.591C8.73763 141.014 8.36916 142.462 8.08446 143.927C7.93994 144.61 8.9866 144.899 9.13112 144.216C9.41144 142.789 9.76663 141.378 10.1953 139.989C10.6535 138.624 11.24 137.305 11.947 136.05C12.2842 135.438 11.3471 134.891 11.0099 135.503L11.0273 135.508Z" fill="#EFB086"/>
<path d="M80.4184 169.225C80.2432 169.02 79.8797 169.063 79.7089 168.853C78.8068 167.724 78.5615 165.58 77.9572 164.81C77.403 164.154 76.7179 163.62 75.9458 163.243C75.1736 162.867 74.3314 162.655 73.4727 162.622C66.1329 162.377 59.1916 163.44 52.6664 160.071L52.5613 168.214C52.5112 169.76 52.6183 171.307 52.881 172.831C52.9554 173.334 53.0737 173.903 53.516 174.144C53.7903 174.267 54.093 174.314 54.3919 174.28L59.0427 174.223C59.2534 174.218 59.4552 174.137 59.6113 173.996C59.7673 173.854 59.8671 173.662 59.8923 173.453C59.9533 172.994 59.931 172.529 59.8266 172.078C62.4543 174.166 61.8061 174.293 63.8075 174.52C64.6045 174.608 66.2468 174.638 68.1868 174.638C68.3173 174.355 68.4788 174.086 68.6685 173.838C68.7057 173.779 68.7611 173.735 68.8262 173.711C68.9313 173.689 69.0276 173.776 69.0977 173.86L69.7809 174.63C71.502 174.63 73.3238 174.577 74.9354 174.538C75.0946 174.237 75.334 173.985 75.6273 173.811C75.8419 174.03 76.0653 174.249 76.2361 174.503C77.5499 174.468 78.6053 174.433 79.2009 174.407C79.5161 174.431 79.829 174.336 80.0768 174.14C80.2379 173.93 80.327 173.673 80.3307 173.409C80.5092 172.283 80.5985 171.144 80.5979 170.004C80.6319 169.732 80.5684 169.456 80.4184 169.225Z" fill="#32142A"/>
<path d="M52.5745 168.871C54.1116 169.033 56.1831 169.116 57.7246 169.16C61.7945 169.285 65.8658 169.294 69.9386 169.186C71.8174 169.133 73.7005 169.063 75.5748 168.91C76.7582 168.868 77.9331 168.694 79.0783 168.394C79.744 168.184 80.0287 169.23 79.3674 169.44C78.0112 169.789 76.62 169.984 75.2201 170.022C71.1473 170.328 67.0439 170.359 62.9579 170.337C59.6778 170.337 55.8546 170.376 52.592 170.03L52.5745 168.871Z" fill="#7F4341"/>
<path d="M23.5393 169.225C23.7145 169.02 24.078 169.063 24.2444 168.853C25.1509 167.724 25.3962 165.58 25.9962 164.81C26.5512 164.153 27.237 163.62 28.0099 163.243C28.7827 162.866 29.6257 162.655 30.485 162.622C37.8248 162.377 45.1121 164.009 51.6373 160.639L51.5629 167.055C51.5595 168.99 51.397 170.922 51.0768 172.831C51.0024 173.334 50.8841 173.903 50.4418 174.144C50.1672 174.267 49.8647 174.313 49.5659 174.28L44.9194 174.223C44.7088 174.218 44.5069 174.137 44.3509 173.996C44.1948 173.854 44.095 173.662 44.0698 173.453C44.0067 172.994 44.029 172.528 44.1355 172.078C41.5078 174.166 42.156 174.293 40.1546 174.52C39.3532 174.608 37.7153 174.638 35.7753 174.638C35.6463 174.355 35.4862 174.086 35.2979 173.838C35.2608 173.779 35.2054 173.735 35.1403 173.711C35.0352 173.689 34.9388 173.776 34.8688 173.859L34.1856 174.63C32.4645 174.63 30.6383 174.577 29.0266 174.538C28.87 174.235 28.6299 173.983 28.3347 173.811C28.1201 174.03 27.9231 174.249 27.726 174.503C26.4122 174.468 25.3611 174.433 24.7655 174.406C24.622 174.438 24.473 174.435 24.3307 174.399C24.1884 174.362 24.0568 174.292 23.9466 174.195C23.8365 174.098 23.7509 173.976 23.6969 173.839C23.6428 173.702 23.6219 173.555 23.6357 173.409C23.4608 172.282 23.373 171.144 23.3729 170.004C23.3327 169.733 23.3918 169.456 23.5393 169.225V169.225Z" fill="#32142A"/>
<path d="M51.4927 168.866C48.2564 169.212 44.3324 169.234 41.0873 169.251C37.0671 169.273 33.038 169.251 29.0265 168.958C27.6269 168.931 26.2352 168.741 24.8793 168.394C24.2136 168.184 23.9245 169.23 24.5902 169.44C25.7613 169.748 26.9625 169.928 28.1726 169.978C30.0294 170.135 31.8906 170.21 33.7475 170.262C37.9079 170.379 42.0683 170.379 46.2287 170.262C47.7746 170.214 49.8855 170.153 51.4226 169.991" fill="#7F4341"/>
<path d="M65.8132 124.983L40.3735 124.76C40.8947 138.076 42.4012 151.375 43.6974 164.639L51.5453 164.595C51.7161 154.876 52.0445 145.144 51.9044 135.429C51.9044 135.285 51.9616 135.147 52.0634 135.045C52.1653 134.943 52.3034 134.886 52.4474 134.886C52.5915 134.886 52.7295 134.943 52.8314 135.045C52.9332 135.147 52.9905 135.285 52.9905 135.429C53.0211 137.739 52.9905 140.054 52.9905 142.369C52.916 149.774 52.7277 157.182 52.6182 164.586L58.7493 164.556C61.6353 151.813 63.6016 137.827 65.8132 124.983Z" fill="#32142A"/>
<path d="M17.2505 100.788C14.4434 92.6092 14.4784 83.7695 14.5397 75.1225C14.6229 63.8673 14.7061 52.6077 15.3192 41.37C15.5601 36.9939 15.8841 32.5829 17.071 28.36C19.4314 19.9711 25.1903 12.7156 32.4556 7.8888C39.721 3.06201 48.4052 0.580786 57.1157 0.0906677C64.0088 -0.298801 71.0596 0.528271 77.3878 3.31582C83.7159 6.10336 89.2821 10.8601 92.2776 17.0697C94.5636 21.7784 95.3168 27.069 95.7811 32.2809C97.9167 57.5099 93.6024 82.8674 83.243 105.974" fill="#32142A"/>
<path d="M77.1601 14.361C78.36 18.0325 79.8315 20.7938 83.0109 22.9949C83.3525 23.2356 86.2429 23.8701 86.4399 23.5201C86.637 23.17 85.0473 22.3123 84.6882 22.076C81.8548 20.1155 78.995 17.0873 77.5805 13.9584C76.5644 11.7441 76.836 13.407 77.1425 14.361H77.1601Z" fill="#7F4341"/>
<path d="M75.3339 8.14265C85.1086 11.7879 91.3579 26.684 91.5813 28.7451C93.0834 42.4465 86.4793 64.1561 83.0109 77.1661C81.0358 84.5748 79.722 87.9487 80.6241 95.6243C80.738 96.6002 82.2927 96.6133 82.1744 95.6243C80.4972 81.3759 87.8413 66.5017 91.498 53.0453C93.3111 46.385 93.3549 39.6327 92.9958 32.6967C92.7199 27.3885 92.8776 26.2332 90.2762 21.5815C87.4297 16.4965 81.4343 9.42046 75.9251 7.36371C74.9923 7.01363 74.585 8.51024 75.5134 8.85595L75.3339 8.14265Z" fill="#7F4341"/>
<path d="M80.3876 60.3489C79.2139 51.5399 86.5187 46.013 86.4399 42.2714C86.4399 41.2868 85.4195 37.5847 85.2837 38.5693C84.1013 47.1945 78.2373 51.1198 79.8577 65.7009C79.9672 66.6767 80.6153 64.8256 80.4839 63.8541L80.3876 60.3489Z" fill="#7F4341"/>
<path d="M22.8034 87.0866C22.2516 68.9566 22.5844 67.9195 25.3959 56.1785C25.628 55.2114 27.1126 49.3606 25.2777 54.4281C21.0998 65.8933 20.3773 78.6277 20.6444 90.8281C20.6444 91.8215 22.2165 91.8258 22.1946 90.8281L22.8034 87.0866Z" fill="#7F4341"/>
<path d="M35.7095 72.7638C35.7095 65.6527 35.1052 58.1565 34.4702 51.0717C34.1636 47.6934 33.4498 50.1965 33.5549 51.1811C34.4062 58.2667 34.4062 65.4287 33.5549 72.5143C33.4323 73.5033 35.1051 73.5121 35.1051 72.5143L35.7095 72.7638Z" fill="#7F4341"/>
<path d="M84.6005 91.6728L79.8313 76.2603C78.408 71.6654 76.0301 66.2391 71.2434 65.7578C71.5967 61.4547 71.9544 57.1545 72.3164 52.8572C66.0233 53.7937 50.8575 55.9204 44.5513 56.8438L43.7498 66.1385C43.0228 66.8299 42.0287 67.1406 41.0828 67.4776C34.2962 69.9314 28.64 74.7772 25.177 81.1046L2.84229 127.421C10.8784 130.27 19.4838 133.11 27.5462 135.958C27.9841 135.083 28.4221 134.208 28.86 133.359L30.0556 130.69C31.3694 127.377 32.0832 124.038 32.8759 120.69C32.9591 120.323 33.9707 120.428 33.9269 120.791C33.6204 123.373 33.7167 124.099 33.3094 125.701C33.1386 126.379 32.9591 127.053 32.762 127.727L68.5501 127.526C68.4581 126.843 68.3881 125.985 68.2392 124.563C68.0684 122.927 69.1764 123.08 69.4041 124.126C69.6099 125.084 69.6537 125.001 69.8858 125.955C70.9194 130.261 71.4274 132.274 73.5076 136.514L94.8657 130.865C92.6016 117.513 88.5944 104.569 84.6005 91.6728Z" fill="#E48929"/>
<path d="M0.748871 121.605L37.934 122.064L75.1191 122.502L96.1926 122.76C97.1911 122.76 97.1911 121.224 96.1926 121.211L59.0075 120.773L21.818 120.336L0.748871 120.078C-0.249624 120.078 -0.249624 121.614 0.748871 121.627V121.605Z" fill="#FAC7B7"/>
<path d="M0.748871 132.86L37.934 133.298L75.1191 133.757L96.1926 134.015C97.1911 134.015 97.1911 132.479 96.1926 132.466L59.0075 132.029L21.818 131.547L0.748871 131.289C-0.249624 131.289 -0.249624 132.825 0.748871 132.838V132.86Z" fill="#FAC7B7"/>
<path d="M3.35904 112.568C16.354 112.393 29.3461 112.478 42.3353 112.822C55.3244 113.167 68.3078 113.775 81.2853 114.647C88.5638 115.137 95.8364 115.708 103.103 116.358C104.097 116.45 104.089 114.901 103.103 114.813C90.1578 113.646 77.192 112.743 64.2058 112.105C51.2195 111.466 38.2275 111.088 25.2296 110.971C17.9306 110.907 10.6317 110.924 3.33279 111.024C2.3343 111.024 2.32992 112.586 3.33279 112.568H3.35904Z" fill="#FAC7B7"/>
<path d="M7.28297 103.865H96.1839C96.3895 103.865 96.5867 103.783 96.732 103.638C96.8774 103.492 96.959 103.295 96.959 103.09C96.959 102.885 96.8774 102.688 96.732 102.542C96.5867 102.397 96.3895 102.315 96.1839 102.315H7.28297C7.07739 102.315 6.88022 102.397 6.73485 102.542C6.58948 102.688 6.50781 102.885 6.50781 103.09C6.50781 103.295 6.58948 103.492 6.73485 103.638C6.88022 103.783 7.07739 103.865 7.28297 103.865V103.865Z" fill="#FAC7B7"/>
<path d="M12.5118 92.5611L71.6331 92.9112L88.3491 93.0074C89.3476 93.0074 89.3476 91.4671 88.3491 91.4627L29.2278 91.1126L12.5118 91.0164C11.5133 91.0164 11.5133 92.5567 12.5118 92.5611Z" fill="#FAC7B7"/>
<path d="M18.6123 74.9869H90.9636C91.1692 74.9869 91.3664 74.9053 91.5118 74.76C91.6571 74.6147 91.7388 74.4177 91.7388 74.2123C91.7388 74.0069 91.6571 73.8098 91.5118 73.6646C91.3664 73.5193 91.1692 73.4377 90.9636 73.4377H18.6123C18.4067 73.4377 18.2096 73.5193 18.0642 73.6646C17.9188 73.8098 17.8372 74.0069 17.8372 74.2123C17.8372 74.4177 17.9188 74.6147 18.0642 74.76C18.2096 74.9053 18.4067 74.9869 18.6123 74.9869V74.9869Z" fill="#FAC7B7"/>
<path d="M18.6123 83.8484H90.9636C91.1692 83.8484 91.3664 83.7668 91.5118 83.6216C91.6571 83.4763 91.7388 83.2793 91.7388 83.0739C91.7388 82.8684 91.6571 82.6714 91.5118 82.5262C91.3664 82.3809 91.1692 82.2993 90.9636 82.2993H18.6123C18.4067 82.2993 18.2096 82.3809 18.0642 82.5262C17.9188 82.6714 17.8372 82.8684 17.8372 83.0739C17.8372 83.2793 17.9188 83.4763 18.0642 83.6216C18.2096 83.7668 18.4067 83.8484 18.6123 83.8484V83.8484Z" fill="#FAC7B7"/>
<path d="M15.6344 138.112C17.5993 120.762 20.0371 103.474 22.9479 86.2465C23.7625 81.4241 24.615 76.6104 25.5055 71.8055C25.685 70.8297 24.1917 70.414 24.0121 71.3942C20.8327 88.6067 18.1234 105.891 15.8841 123.246C15.2476 128.206 14.6476 133.165 14.0841 138.125C13.9747 139.114 15.525 139.105 15.6344 138.125V138.112Z" fill="#FAC7B7"/>
<path d="M26.1885 141.367L34.5794 83.9839L36.9443 67.7925C37.0844 66.8167 35.591 66.3966 35.4465 67.3812L27.0644 124.76L24.7039 140.951C24.5594 141.927 26.0528 142.347 26.1973 141.363L26.1885 141.367Z" fill="#FAC7B7"/>
<path d="M36.2566 141.367L44.6519 83.9839L47.0167 67.7925C47.1613 66.8167 45.6679 66.3966 45.5234 67.3812L37.1412 124.76L34.7764 140.951C34.6362 141.927 36.1296 142.347 36.2697 141.363L36.2566 141.367Z" fill="#FAC7B7"/>
<path d="M53.3144 132.48C52.6969 115.592 54.0107 98.7008 56.1041 81.9492C56.7026 77.1239 57.3639 72.3103 58.0879 67.5083C58.2281 66.5324 56.7347 66.1123 56.5902 67.0707C54.0939 84.0191 52.0619 101.077 51.6721 118.218C51.567 122.97 51.5889 127.727 51.7641 132.475C51.7991 133.469 53.3494 133.473 53.3144 132.475V132.48Z" fill="#FAC7B7"/>
<path d="M65.8963 133.788C65.3264 116.215 65.9013 98.6244 67.6174 81.1265C68.102 76.1874 68.6859 71.2585 69.3691 66.3398C69.5049 65.3639 68.0116 64.9394 67.8758 65.9022C65.4721 83.453 64.2242 101.143 64.1402 118.857C64.1139 123.843 64.1825 128.825 64.346 133.805C64.3767 134.799 65.927 134.803 65.8963 133.805V133.788Z" fill="#FAC7B7"/>
<path d="M77.1513 132.549C76.5901 115.343 77.165 98.1176 78.8724 80.9864C79.3571 76.094 79.941 71.2118 80.6242 66.3398C80.7599 65.3639 79.2665 64.9394 79.1308 65.9022C76.7587 83.0746 75.5166 100.384 75.4127 117.719C75.3864 122.655 75.455 127.591 75.6185 132.528C75.6492 133.521 77.1995 133.525 77.1688 132.528L77.1513 132.549Z" fill="#FAC7B7"/>
<path d="M87.1317 139.424C86.3199 122.587 86.4457 105.717 87.5083 88.894C87.8003 84.1008 88.1783 79.3163 88.6425 74.5406C88.7389 73.5472 87.1886 73.556 87.0923 74.5406C85.5001 91.3214 84.8393 108.178 85.1128 125.031C85.1916 129.828 85.3478 134.625 85.5814 139.424C85.6295 140.413 87.1755 140.422 87.1317 139.424V139.424Z" fill="#FAC7B7"/>
<path d="M34.654 37.6941C33.1519 40.9586 35.3197 44.9627 38.4421 46.7438C41.5646 48.5248 45.3309 48.6561 48.922 48.7392L59.1259 48.9843C62.914 49.0762 66.7547 49.1594 70.4378 48.2798C74.1208 47.4002 77.7031 45.4353 79.7264 42.2321C81.3599 39.6371 81.8372 36.5082 82.2796 33.4799C83.0941 27.8917 83.7466 21.6165 80.3088 17.1398C77.7119 13.7527 73.2186 12.2211 68.9488 12.3261C64.6789 12.4311 60.571 13.9321 56.6866 15.6782C52.7785 17.4329 48.9895 19.4415 45.344 21.6908L34.654 37.6941Z" fill="#FFC9A0"/>
<path d="M38.2626 43.5492C35.7751 43.9431 33.0993 43.768 30.9359 42.4771C28.7725 41.1862 27.2791 38.5955 27.8003 36.1274C27.8908 35.5903 28.1341 35.0905 28.501 34.6877C29.263 33.935 30.4673 33.9306 31.5403 33.9744L41.2406 34.377" fill="#FFC9A0"/>
<path d="M72.4697 12.4574C74.0673 16.8887 76.7872 20.8305 80.3639 23.8983C83.9406 26.9661 88.252 29.0552 92.8775 29.9616C95.0672 24.4566 92.2556 17.9144 87.6223 14.2429C82.9889 10.5714 76.9016 9.23666 71.007 8.60213C68.3005 8.3104 65.5868 8.14411 62.8657 8.10327" fill="#32142A"/>
<path d="M34.3079 40.6479C33.3489 40.5903 32.4319 40.2351 31.6845 39.6319C30.9372 39.0287 30.3968 38.2075 30.1388 37.2828C30.0981 37.1468 30.0057 37.0321 29.8814 36.9634C29.7571 36.8946 29.6108 36.8773 29.4739 36.9151C29.337 36.9529 29.2204 37.0428 29.149 37.1655C29.0776 37.2882 29.0572 37.434 29.0921 37.5716C29.4125 38.7255 30.0891 39.749 31.0257 40.4963C31.9622 41.2435 33.1108 41.6764 34.3079 41.7332C35.0042 41.7595 35.0042 40.6742 34.3079 40.6479Z" fill="#B26D55"/>
<path d="M34.5445 38.1712C34.4798 38.19 34.414 38.2046 34.3474 38.215L34.492 38.1931C34.367 38.2106 34.2402 38.2106 34.1153 38.1931H34.2599C34.1799 38.1834 34.1008 38.1673 34.0234 38.145L33.9139 38.1056C33.835 38.0793 34.0234 38.1581 33.962 38.1275L33.9183 38.1056C33.8454 38.0714 33.7751 38.032 33.7081 37.9874L33.6555 37.948C33.603 37.9174 33.7518 38.0268 33.7037 37.9874L33.6073 37.9043C33.5504 37.8518 33.5022 37.7949 33.4497 37.738C33.3971 37.6811 33.5285 37.8474 33.4803 37.7774L33.4541 37.738C33.429 37.7035 33.407 37.6669 33.3884 37.6286C33.3884 37.5936 33.3533 37.5586 33.3358 37.5279C33.3183 37.4973 33.384 37.6592 33.3358 37.5761C33.334 37.5601 33.334 37.5439 33.3358 37.5279C33.3081 37.4485 33.289 37.3664 33.2789 37.2829V37.4273V37.401C33.2736 37.2581 33.2178 37.1216 33.1212 37.0159C33.0171 36.9171 32.8795 36.8608 32.7359 36.8584C32.6651 36.8584 32.595 36.8723 32.5297 36.8993C32.4643 36.9263 32.4049 36.966 32.3549 37.0159C32.3033 37.0657 32.2626 37.1256 32.2355 37.1919C32.2083 37.2582 32.1953 37.3294 32.1972 37.401C32.2264 37.7127 32.33 38.0129 32.4994 38.2762C32.6705 38.5289 32.8891 38.7459 33.1431 38.9152C33.3862 39.0775 33.6613 39.186 33.9498 39.2336C34.2383 39.2811 34.5336 39.2665 34.816 39.1909C34.8861 39.1731 34.9519 39.1415 35.0096 39.098C35.0673 39.0545 35.1157 39 35.152 38.9375C35.1883 38.8751 35.2118 38.806 35.2211 38.7344C35.2303 38.6628 35.2252 38.59 35.2059 38.5204C35.1867 38.4508 35.1537 38.3858 35.109 38.329C35.0643 38.2723 35.0086 38.2251 34.9454 38.1901C34.8822 38.1551 34.8126 38.1331 34.7408 38.1254C34.6689 38.1176 34.5962 38.1243 34.527 38.145L34.5445 38.1712Z" fill="#B26D55"/>
<path d="M17.9817 36.7927C28.6848 38.5781 42.3265 38.3287 52.4034 34.3071C62.4803 30.2855 71.2084 22.1373 74.3002 11.7442C74.5104 11.0396 74.6856 6.68108 74.3002 6.05531C73.9141 5.55189 73.3643 5.199 72.7456 5.05757C68.8304 3.70974 59.9841 3.01832 55.8587 2.94393C39.9442 2.65511 25.4572 15.6739 18.7349 30.0754L17.9817 36.7927Z" fill="#32142A"/>
<path d="M68.8919 28.6838C69.5961 28.8067 70.2922 28.9718 70.9765 29.1783C71.3181 29.2833 71.6597 29.3971 71.9926 29.5196C72.1634 29.5809 72.3254 29.6509 72.4918 29.7122C72.6582 29.7734 72.6582 29.7822 72.4918 29.7122L72.6757 29.7953C73.3096 30.0763 73.9253 30.3964 74.5194 30.7537C74.826 30.9331 75.1282 31.1256 75.4216 31.3313L75.8595 31.6376L76.0741 31.7995C75.9384 31.6901 75.9384 31.6945 76.0741 31.7995C76.3749 32.0717 76.7634 32.2269 77.169 32.2371C77.5782 32.2385 77.972 32.0817 78.2682 31.7995C78.7806 31.2394 78.947 30.141 78.2682 29.6115C75.7812 27.6213 72.8398 26.2772 69.7065 25.6993C69.3102 25.5998 68.8907 25.6565 68.5352 25.8577C68.1797 26.059 67.9153 26.3894 67.7971 26.7802C67.6263 27.5329 68.0292 28.5306 68.8832 28.6838H68.8919Z" fill="#32142A"/>
<path d="M59.4806 35.0641L61.6703 38.1273C62.2747 38.9719 62.8834 40.0878 62.2441 40.9105C61.9154 41.2619 61.4954 41.5149 61.031 41.6413C59.5478 42.1549 57.9773 42.3691 56.4107 42.2714C55.9556 42.276 55.5087 42.1499 55.1232 41.9082C54.4006 41.3568 54.6458 40.3197 54.9524 39.5101L56.4983 35.436C56.4983 35.436 57.3041 32.0183 59.4806 35.0641Z" fill="#C05929"/>
<path d="M21.4415 38.3594C21.1788 35.4493 23.3553 33.1082 25.8209 31.8741C28.9235 30.3866 32.3683 29.7565 35.7971 30.0493C43.6273 30.6707 47.7177 27.5374 52.2065 23.7565C54.8032 21.6077 56.779 18.8054 57.9303 15.6389C60.12 9.2324 57.2077 14.8075 56.6997 15.6608C53.6342 20.8377 48.7819 24.1329 43.2463 26.4916C40.386 27.6832 37.3569 28.4215 34.2687 28.6796C31.0148 28.9947 26.9726 28.3733 24.0516 29.9924C21.3233 31.5065 20.6313 34.8061 20.6313 38.0969C20.6313 41.5714 21.6123 41.5714 21.4459 38.3725L21.4415 38.3594Z" fill="#7F4341"/>
<path d="M47.0432 31.7384C55.5129 28.5746 63.1286 21.8836 66.7504 13.6085C67.7752 11.2673 67.3416 8.94796 67.5037 5.3421C67.5475 4.35311 67.0657 4.90449 66.8774 5.90223C66.0853 10.1276 64.4649 14.1549 62.1094 17.7522C59.754 21.3496 56.71 24.446 53.1525 26.8635C51.0877 28.1919 48.9031 29.3244 46.6272 30.2462C40.3166 32.9725 42.2741 33.1782 47.0389 31.7384H47.0432Z" fill="#7F4341"/>
<path d="M60.8207 3.48658C48.6023 2.3138 36.0993 7.17998 27.5376 15.9102C25.0939 18.4046 22.4882 20.9908 21.2883 24.2641C18.5337 31.7909 22.0897 25.8876 22.6283 25.0474C31.9345 10.4883 39.0991 7.42067 50.7744 5.39893C54.0852 4.82567 59.4718 4.68125 62.8264 4.68125C65.5416 4.68125 61.7885 3.57848 60.8032 3.48658H60.8207Z" fill="#7F4341"/>
<path d="M38.4422 19.7085C42.7822 12.8599 49.1366 10.6019 57.2472 10.4356C58.2457 10.4356 57.5012 9.66541 56.5028 9.68291C47.836 9.85795 39.4933 13.4113 34.168 23.52C33.7038 24.3952 35.727 23.4675 36.2613 22.6448L38.4422 19.7085Z" fill="#7F4341"/>
<path d="M21.643 46.3282C24.9761 43.947 27.6518 40.7615 29.4207 37.0684C29.1273 37.191 28.8383 37.9436 28.5449 38.0443C37.0627 39.4753 45.8959 37.6461 53.7218 33.9921C61.066 30.5613 67.2628 25.5375 71.5195 18.6759C73.8843 14.8512 75.8244 10.3308 75.8989 5.83655C75.9426 2.95273 75.4171 4.28305 75.185 5.25453C73.3841 12.7625 69.5051 19.6125 63.9914 25.0212C58.1975 30.71 52.9379 34.4341 44.9587 35.8606C39.6598 36.6788 34.2689 36.7097 28.9609 35.9525C28.7962 35.9091 28.6218 35.9202 28.4639 35.9841C28.306 36.048 28.1731 36.1613 28.0851 36.307C26.4384 39.7641 25.129 41.7508 21.7525 45.2735C21.0693 45.9868 17.0841 49.0544 21.6474 46.3457L21.643 46.3282Z" fill="#7F4341"/>
<path d="M78.4871 41.3481C81.1147 41.8469 84.5744 41.5056 86.6808 39.8821C88.7873 38.2586 89.2691 35.1997 88.126 32.8016C86.659 29.7165 82.6606 29.0207 79.2578 28.7231" fill="#FFC9A0"/>
<path d="M82.8752 32.0272C83.6608 32.3383 84.3981 32.7597 85.0649 33.2787C85.4688 33.6145 85.7466 34.0774 85.8531 34.5915C86.0421 35.2358 86.0237 35.9231 85.8006 36.5564C85.5219 37.0762 85.0501 37.466 84.4868 37.6416C83.6516 37.9228 82.7947 38.1351 81.9248 38.2762C81.2416 38.4162 81.5307 39.4621 82.2139 39.322C83.7467 39.0113 85.7437 38.7663 86.6327 37.2959C87.0521 36.4801 87.17 35.5426 86.9655 34.6484C86.8644 33.9529 86.5597 33.3027 86.0896 32.7798C85.3758 31.9965 84.3379 31.5239 83.3875 31.0951C83.2629 31.0265 83.1168 31.0082 82.9791 31.0441C82.8414 31.0799 82.7228 31.167 82.6474 31.2876C82.6112 31.3487 82.5874 31.4164 82.5775 31.4868C82.5676 31.5571 82.5717 31.6287 82.5896 31.6975C82.6076 31.7662 82.6389 31.8308 82.6819 31.8873C82.7249 31.9439 82.7786 31.9914 82.8401 32.0272H82.8752Z" fill="#B26D55"/>
<path d="M67.8277 52.9186L50.0212 55.4042C50.0735 52.5792 50.4765 49.7716 51.2212 47.0459C51.2658 46.7719 51.3961 46.5191 51.5934 46.3238C51.8805 46.145 52.2246 46.081 52.5569 46.1444C57.6818 46.4536 62.8253 46.1687 67.8846 45.2955C68.1092 45.2324 68.3477 45.24 68.5678 45.3173C69.0057 45.5274 69.0057 46.1444 68.905 46.6302L67.8102 52.9273" fill="#FFC9A0"/>
<path d="M82.2533 34.399C82.4416 34.4865 82.63 34.574 82.8095 34.679C82.8835 34.7186 82.9552 34.7624 83.0241 34.8103L83.1073 34.8672C83.1555 34.8978 83.0591 34.8322 83.0591 34.8322C83.0741 34.8466 83.0902 34.8598 83.1073 34.8716C83.1555 34.9153 83.1993 34.9591 83.2431 35.0072C83.2869 35.0554 83.2431 35.0335 83.2694 35.0379C83.2956 35.0422 83.1993 34.9372 83.2255 34.981C83.2518 35.0247 83.2606 35.0335 83.2737 35.0598L83.3131 35.1298C83.3526 35.1998 83.2694 35.0029 83.3131 35.1079L83.3657 35.2786C83.3657 35.3136 83.3657 35.3486 83.3657 35.3792C83.3657 35.4098 83.3657 35.5105 83.3657 35.4142C83.3657 35.3179 83.3657 35.4492 83.3657 35.4755C83.3657 35.5017 83.3657 35.5717 83.3657 35.6199C83.3657 35.668 83.3657 35.7162 83.3657 35.7555C83.3657 35.7949 83.3657 35.7074 83.3657 35.703C83.3636 35.7205 83.3636 35.7381 83.3657 35.7555L83.3394 35.8518V35.8999C83.3394 35.9743 83.3394 35.8649 83.3394 35.8562C83.3394 35.8474 83.3 35.9306 83.2868 35.9481C83.2737 35.9656 83.2606 35.9831 83.2868 35.9875C83.3131 35.9918 83.3613 35.9 83.3263 35.935L83.265 36.0006C83.265 36.0006 83.1467 36.1056 83.2211 36.0444C83.2956 35.9831 83.2212 36.0444 83.1905 36.0662L83.1073 36.11L83.0241 36.1538C82.9146 36.2107 83.1248 36.1188 83.0022 36.1538C82.653 36.2689 82.2959 36.3581 81.9336 36.4207C81.7957 36.4595 81.6788 36.5512 81.6082 36.6758C81.5377 36.8004 81.5193 36.9478 81.557 37.0859C81.5969 37.2232 81.6886 37.3396 81.8128 37.4107C81.937 37.4817 82.084 37.5018 82.2227 37.4666C82.9584 37.3134 83.8299 37.1734 84.2547 36.4732C84.4703 36.0601 84.5308 35.5836 84.4255 35.1298C84.3709 34.7878 84.2188 34.4687 83.9875 34.2108C83.6463 33.881 83.2408 33.6248 82.7964 33.4581C82.672 33.3885 82.5255 33.3696 82.3875 33.4055C82.2495 33.4414 82.1308 33.5292 82.0563 33.6507C81.9843 33.7744 81.9641 33.9216 82.0002 34.0601C82.0363 34.1986 82.1257 34.3173 82.2489 34.3902L82.2533 34.399Z" fill="#B26D55"/>
<path d="M51.7293 109.124C46.8659 103.899 43.2567 97.6364 41.175 90.8106C40.6714 89.1521 40.2597 87.4148 40.5224 85.7037C40.7852 83.9927 41.8756 82.3079 43.5354 81.8047C45.1952 81.3014 47.1046 82.1241 48.3046 83.4238C49.5045 84.7235 50.1833 86.4127 50.8315 88.0581L53.3671 94.504C53.9978 89.7997 54.6809 84.8767 57.383 80.982C58.399 79.4985 59.8661 78.1113 61.6616 78.0413C62.306 78.0515 62.9419 78.1899 63.5321 78.4484C64.1224 78.7068 64.6551 79.0802 65.0994 79.5466C67.6351 82.0103 68.0249 86.0669 66.9782 89.4453C65.9315 92.8236 63.7024 95.6811 61.5127 98.4556L53.0825 109.159" fill="white"/>
<path d="M70.2581 32.7797C69.0582 33.1517 68.1517 34.7139 68.1604 35.9392C68.1527 36.1685 68.2052 36.3959 68.3128 36.5986C68.4204 36.8013 68.5792 36.9723 68.7735 37.0945C70.0567 37.7859 71.6595 35.0859 72.0011 34.1888C72.404 33.1254 71.7472 32.5916 70.7224 32.6878C70.5651 32.7041 70.4097 32.7348 70.2581 32.7797V32.7797Z" fill="#32142A"/>
<path d="M43.5003 57.8326C53.1699 55.5877 63.041 54.4981 72.8989 53.4566C73.5864 53.3866 73.5908 52.3013 72.8989 52.3757C62.9446 53.4172 52.9728 54.5156 43.2156 56.7824C42.5324 56.9399 42.8215 57.9858 43.5003 57.8283V57.8326Z" fill="#FAC7B7"/>
<path d="M42.9003 67.1932C52.3365 67.6229 61.7922 67.1657 71.1428 65.8278C71.8304 65.7272 71.5369 64.6813 70.8538 64.782C61.5979 66.0959 52.2387 66.5354 42.9003 66.0948C42.1996 66.0598 42.204 67.145 42.9003 67.18V67.1932Z" fill="#FAC7B7"/>
<path d="M44.6915 66.0117C44.6915 63.2329 45.274 60.4891 45.2827 57.6972C45.2827 57.5533 45.2255 57.4152 45.1237 57.3135C45.0219 57.2117 44.8837 57.1545 44.7397 57.1545C44.5957 57.1545 44.4576 57.2117 44.3558 57.3135C44.2539 57.4152 44.1967 57.5533 44.1967 57.6972C44.1967 60.476 43.6186 63.2197 43.6055 66.0117C43.6055 66.1556 43.6627 66.2936 43.7645 66.3954C43.8663 66.4971 44.0045 66.5543 44.1485 66.5543C44.2925 66.5543 44.4307 66.4971 44.5325 66.3954C44.6343 66.2936 44.6915 66.1556 44.6915 66.0117Z" fill="#FAC7B7"/>
<path d="M50.6999 65.1758V57.8897C50.6878 57.7548 50.6255 57.6293 50.5254 57.5378C50.4253 57.4464 50.2946 57.3958 50.159 57.3958C50.0234 57.3958 49.8927 57.4464 49.7927 57.5378C49.6926 57.6293 49.6303 57.7548 49.6182 57.8897V65.1758C49.6303 65.3107 49.6926 65.4363 49.7927 65.5277C49.8927 65.6191 50.0234 65.6698 50.159 65.6698C50.2946 65.6698 50.4253 65.6191 50.5254 65.5277C50.6255 65.4363 50.6878 65.3107 50.6999 65.1758V65.1758Z" fill="#FAC7B7"/>
<path d="M47.7397 64.5939V57.2946C47.7397 57.1507 47.6824 57.0127 47.5806 56.9109C47.4788 56.8091 47.3407 56.752 47.1967 56.752C47.0526 56.752 46.9145 56.8091 46.8127 56.9109C46.7108 57.0127 46.6536 57.1507 46.6536 57.2946V64.5939C46.6536 64.7378 46.7108 64.8758 46.8127 64.9776C46.9145 65.0793 47.0526 65.1365 47.1967 65.1365C47.3407 65.1365 47.4788 65.0793 47.5806 64.9776C47.6824 64.8758 47.7397 64.7378 47.7397 64.5939V64.5939Z" fill="#FAC7B7"/>
<path d="M53.6647 63.9944V56.7169C53.6647 56.573 53.6075 56.435 53.5057 56.3333C53.4038 56.2315 53.2657 56.1743 53.1217 56.1743C52.9776 56.1743 52.8395 56.2315 52.7377 56.3333C52.6358 56.435 52.5786 56.573 52.5786 56.7169V64.0075C52.5786 64.1514 52.6358 64.2894 52.7377 64.3912C52.8395 64.4929 52.9776 64.5501 53.1217 64.5501C53.2657 64.5501 53.4038 64.4929 53.5057 64.3912C53.6075 64.2894 53.6647 64.1514 53.6647 64.0075V63.9944Z" fill="#FAC7B7"/>
<path d="M59.5856 62.2176V54.9271C59.5734 54.7921 59.5112 54.6666 59.4111 54.5752C59.311 54.4838 59.1803 54.4331 59.0448 54.4331C58.9092 54.4331 58.7785 54.4838 58.6784 54.5752C58.5783 54.6666 58.5161 54.7921 58.5039 54.9271V62.2176C58.5161 62.3525 58.5783 62.478 58.6784 62.5694C58.7785 62.6608 58.9092 62.7115 59.0448 62.7115C59.1803 62.7115 59.311 62.6608 59.4111 62.5694C59.5112 62.478 59.5734 62.3525 59.5856 62.2176V62.2176Z" fill="#FAC7B7"/>
<path d="M66.111 61.6267V54.3362C66.0989 54.2013 66.0366 54.0758 65.9365 53.9844C65.8364 53.893 65.7058 53.8423 65.5702 53.8423C65.4346 53.8423 65.3039 53.893 65.2038 53.9844C65.1037 54.0758 65.0415 54.2013 65.0293 54.3362V61.6267C65.0415 61.7616 65.1037 61.8872 65.2038 61.9786C65.3039 62.07 65.4346 62.1207 65.5702 62.1207C65.7058 62.1207 65.8364 62.07 65.9365 61.9786C66.0366 61.8872 66.0989 61.7616 66.111 61.6267V61.6267Z" fill="#FAC7B7"/>
<path d="M56.3276 66.2172V55.4871C56.3154 55.3522 56.2532 55.2267 56.1531 55.1353C56.053 55.0439 55.9223 54.9932 55.7868 54.9932C55.6512 54.9932 55.5205 55.0439 55.4204 55.1353C55.3203 55.2267 55.258 55.3522 55.2458 55.4871V66.2172C55.258 66.3522 55.3203 66.4777 55.4204 66.5691C55.5205 66.6605 55.6512 66.7112 55.7868 66.7112C55.9223 66.7112 56.053 66.6605 56.1531 66.5691C56.2532 66.4777 56.3154 66.3522 56.3276 66.2172Z" fill="#FAC7B7"/>
<path d="M62.4892 64.4143C62.6235 61.0156 62.6483 57.6125 62.5636 54.205C62.5636 54.0611 62.5064 53.9231 62.4046 53.8213C62.3027 53.7195 62.1646 53.6624 62.0206 53.6624C61.8766 53.6624 61.7384 53.7195 61.6366 53.8213C61.5347 53.9231 61.4775 54.0611 61.4775 54.205C61.5651 57.6096 61.5403 61.0127 61.4031 64.4143C61.3768 65.1101 62.4629 65.1101 62.4892 64.4143Z" fill="#FAC7B7"/>
<path d="M69.5707 63.9591V53.5485C69.5707 53.4046 69.5135 53.2666 69.4117 53.1648C69.3098 53.063 69.1717 53.0059 69.0277 53.0059C68.8836 53.0059 68.7455 53.063 68.6437 53.1648C68.5418 53.2666 68.4846 53.4046 68.4846 53.5485V63.9591C68.4846 64.103 68.5418 64.2411 68.6437 64.3428C68.7455 64.4446 68.8836 64.5018 69.0277 64.5018C69.1717 64.5018 69.3098 64.4446 69.4117 64.3428C69.5135 64.2411 69.5707 64.103 69.5707 63.9591Z" fill="#FAC7B7"/>
<path d="M71.5458 64.7602V54.3495C71.5458 54.2056 71.4886 54.0676 71.3867 53.9658C71.2849 53.8641 71.1468 53.8069 71.0028 53.8069C70.8587 53.8069 70.7206 53.8641 70.6188 53.9658C70.5169 54.0676 70.4597 54.2056 70.4597 54.3495V64.7602C70.4597 64.9041 70.5169 65.0421 70.6188 65.1439C70.7206 65.2456 70.8587 65.3028 71.0028 65.3028C71.1468 65.3028 71.2849 65.2456 71.3867 65.1439C71.4886 65.0421 71.5458 64.9041 71.5458 64.7602Z" fill="#FAC7B7"/>
<path d="M68.5722 48.6431C68.5722 48.6431 56.2268 49.4701 50.8096 48.7875L67.8277 52.9185L68.5722 48.6431Z" fill="#EFB086"/>
</svg>
