<svg width="259" height="279" viewBox="0 0 259 279" fill="none" xmlns="http://www.w3.org/2000/svg">
<path d="M114.639 103.413C114.166 107.056 113.409 110.657 112.375 114.182C118.914 114.493 125.466 114.436 131.999 114.011C130.89 110.409 130.165 106.699 129.836 102.944L114.639 103.413Z" fill="#EE9E7B"/>
<path d="M99.5128 66.4435C99.399 73.241 99.434 80.0355 99.6179 86.8271C99.6617 88.5776 99.7274 90.3893 100.336 92.0478C101.138 94.2358 102.815 95.9862 104.444 97.6579L110.899 104.274C111.469 104.932 112.149 105.484 112.909 105.907C114.004 106.436 115.278 106.397 116.496 106.344L126.695 105.937C128.009 105.885 129.354 105.824 130.554 105.281C131.754 104.738 132.673 103.784 133.575 102.843L142.969 93.0718C143.705 92.3016 144.462 91.4964 144.769 90.4811C144.972 89.5933 144.996 88.6739 144.839 87.7767L142.649 67.8963C142.637 67.318 142.487 66.7509 142.211 66.2422C141.857 65.7793 141.394 65.411 140.863 65.1701C130.735 59.7159 118.971 58.1205 107.755 60.6802C104.38 61.4854 101.44 63.5446 99.5303 66.4391L99.5128 66.4435Z" fill="#EE9E7B"/>
<path d="M99.9417 81.0816C99.5008 80.8335 98.9965 80.7207 98.4918 80.7572C97.9871 80.7938 97.5044 80.9782 97.1039 81.2873C96.313 81.9267 95.7721 82.8235 95.5756 83.821C95.3713 84.6145 95.3438 85.4432 95.4952 86.2485C95.6465 87.0538 95.9729 87.8161 96.4514 88.4815C96.9501 89.1385 97.6314 89.6341 98.4102 89.9065C99.189 90.1789 100.031 90.216 100.831 90.0131" fill="#EE9E7B"/>
<path d="M136.602 62.9733C137.775 60.2383 141.62 57.7527 144.589 57.5601C147.559 57.3676 151.084 58.2734 151.697 61.643C151.847 62.5379 151.761 63.4565 151.448 64.308C150.572 66.7848 148.54 68.3952 146.56 69.9487C147.709 69.6808 148.9 69.6421 150.064 69.8349C150.761 69.9496 151.402 70.2886 151.889 70.8004C152.376 71.3122 152.682 71.9689 152.761 72.6706C152.853 74.3335 151.824 75.8082 149.608 76.3684C151.925 76.2809 153.878 79.8255 150.65 81.4359C150.011 81.6985 149.293 81.6985 148.653 81.4359C148.36 81.3396 149.302 82.9018 148.286 84.1227C147.524 85.0417 146.972 84.2322 146.643 84.3766C145.54 84.8579 144.432 82.2673 143.324 82.7487C142.515 79.1078 141.842 75.4377 141.305 71.7385C140.802 68.3619 139.135 65.2665 136.593 62.9864L136.602 62.9733Z" fill="#632B25"/>
<path d="M141.756 78.6266C142.601 78.0796 144.384 78.2327 145.207 78.8323C145.999 79.4705 146.541 80.3678 146.735 81.366C146.941 82.1594 146.969 82.9884 146.818 83.7938C146.666 84.5993 146.339 85.3616 145.859 86.0265C145.363 86.6799 144.685 87.1732 143.911 87.4455C143.136 87.7177 142.299 87.7569 141.502 87.5581" fill="#EE9E7B"/>
<path d="M136.917 63.2271C136.733 58.164 131.127 52.1513 126.258 50.7335C121.388 49.3157 116.185 50.1208 111.241 51.3374C105.062 52.8603 98.7772 55.1883 94.4898 59.8926C90.2024 64.5968 88.5995 72.2287 92.3001 77.3968C92.738 78.0138 93.2723 78.6177 93.4431 79.3616C93.7234 80.5651 92.9569 81.821 91.9234 82.4993C90.8899 83.1776 89.6242 83.4051 88.4199 83.6152C90.903 86.1139 96.9466 85.51 98.7333 82.4774C99.6092 80.9983 99.7712 79.2303 99.9201 77.5193C100.257 73.6378 99.3683 69.7518 99.7055 65.8659L136.917 63.2271Z" fill="#632B25"/>
<path d="M95.9963 82.7182C93.1146 77.607 92.1293 70.9028 95.335 66.0017C97.2006 63.1354 100.227 61.2361 103.332 59.8052C112.252 55.7299 122.305 54.8506 131.798 57.3152C133.335 57.7178 134.973 58.2998 135.822 59.6432C136.764 61.1267 136.405 63.1835 135.319 64.5707C134.232 65.9579 132.568 66.7587 130.887 67.2838C123.683 69.4719 115.94 66.82 108.425 67.2838C106.209 67.4151 103.757 67.9753 102.535 69.8307C101.313 71.6862 101.751 74.0492 101.431 76.2066C100.962 79.3442 100.301 83.5715 94.862 84.9587L95.9963 82.7182Z" fill="#632B25"/>
<path d="M110.474 91.6846C110.274 91.6875 110.077 91.6283 109.911 91.5151C109.746 91.4019 109.619 91.2402 109.549 91.0523C109.479 90.8643 109.469 90.6593 109.52 90.4654C109.571 90.2714 109.681 90.0981 109.835 89.9692C111.211 88.7027 112.835 87.7343 114.604 87.1247C116.123 86.7294 117.689 86.5424 119.259 86.569C123.329 86.461 127.399 86.445 131.469 86.5208C132.129 86.5198 132.769 86.7453 133.282 87.1597C134.04 87.8118 134.289 88.6913 134.626 89.6935C134.687 89.872 134.705 90.0623 134.678 90.2489C134.651 90.4355 134.581 90.6132 134.472 90.7675C134.364 90.9218 134.221 91.0484 134.054 91.137C133.888 91.2257 133.703 91.2738 133.514 91.2776L110.474 91.6846Z" fill="#632B25"/>
<path d="M104.129 83.0769C104.151 83.2051 104.21 83.3238 104.3 83.4178C104.39 83.5119 104.506 83.577 104.633 83.6047C104.76 83.6325 104.892 83.6216 105.013 83.5736C105.134 83.5255 105.238 83.4425 105.311 83.3351C107.501 80.1931 110.969 77.5324 114.298 75.8958C114.616 75.773 114.892 75.562 115.095 75.2875C115.19 75.0518 115.214 74.7936 115.165 74.5443C115.116 74.2949 114.996 74.0651 114.819 73.8828C114.223 73.1651 112.594 72.815 111.679 73.0076C111.099 73.1691 110.554 73.4329 110.067 73.7865C108.451 74.8105 106.818 75.8564 105.526 77.2874C104.234 78.7183 103.923 80.5475 104.024 82.4555L104.129 83.0769Z" fill="#632B25"/>
<path d="M140.342 81.6066C140.341 81.7079 140.309 81.8066 140.251 81.8895C140.193 81.9724 140.111 82.0357 140.016 82.0708C139.921 82.106 139.817 82.1114 139.719 82.0863C139.621 82.0612 139.532 82.0068 139.466 81.9304C137.158 79.2741 133.545 77.0686 130.212 76.6179C129.459 76.5172 128.636 76.456 128.46 75.0906C128.427 74.6401 128.509 74.1885 128.697 73.7778C128.794 73.3614 129 72.9781 129.292 72.6663C129.704 72.3556 130.287 72.4912 130.777 72.6663C133.378 73.5384 135.817 74.8352 137.994 76.5041C139.212 77.4318 140.022 77.7469 140.355 80.2237L140.342 81.6066Z" fill="#632B25"/>
<path d="M127.387 91.4745C127.173 92.2491 126.98 93.028 126.752 93.7982C126.66 94.1089 126.577 94.2927 126.235 94.3452C125.835 94.3861 125.433 94.4007 125.031 94.389C123.297 94.4386 121.561 94.4386 119.824 94.389C119.049 94.389 119.049 95.5836 119.824 95.5967C121.83 95.6361 123.831 95.6274 125.833 95.5574C126.708 95.5267 127.44 95.3167 127.795 94.4546C128.1 93.5775 128.352 92.6833 128.552 91.7765C128.588 91.6242 128.564 91.4637 128.484 91.3291C128.404 91.1944 128.275 91.0959 128.124 91.0545C127.973 91.0131 127.812 91.0319 127.674 91.107C127.537 91.1821 127.434 91.3076 127.387 91.457V91.4745Z" fill="#301629"/>
<path d="M119.027 85.4181C118.957 85.6389 118.94 85.8731 118.977 86.1017C119.014 86.3303 119.105 86.5468 119.242 86.7337C119.379 86.9205 119.559 87.0724 119.766 87.1768C119.972 87.2813 120.201 87.3355 120.433 87.3349H124.992C125.767 87.3349 126.639 87.2867 127.182 86.7222C128.136 85.6895 127.182 84.0703 126.231 83.0332L124.554 80.8102C124.284 80.4529 123.921 80.1766 123.504 80.0116C123.088 79.8467 122.634 79.7993 122.192 79.8748C121.75 79.9502 121.338 80.1455 121 80.4394C120.662 80.7332 120.411 81.1143 120.275 81.541L119.027 85.4181Z" fill="#C05929"/>
<path d="M120.109 98.5025H125.066C125.227 98.5025 125.38 98.4388 125.494 98.3256C125.607 98.2123 125.671 98.0587 125.671 97.8986C125.671 97.7384 125.607 97.5848 125.494 97.4716C125.38 97.3583 125.227 97.2947 125.066 97.2947H120.109C119.949 97.2947 119.795 97.3583 119.682 97.4716C119.568 97.5848 119.505 97.7384 119.505 97.8986C119.505 98.0587 119.568 98.2123 119.682 98.3256C119.795 98.4388 119.949 98.5025 120.109 98.5025V98.5025Z" fill="#301629"/>
<path d="M106.073 84.263C106.276 82.6063 106.79 81.0027 107.588 79.5369C107.786 79.1063 108.098 78.7384 108.49 78.4735C108.85 78.3009 109.243 78.2098 109.642 78.2065C112.656 77.9572 115.681 77.8827 118.703 77.9834C119.255 77.9834 119.89 78.0753 120.179 78.5391C120.323 78.8242 120.384 79.1443 120.354 79.4625V82.7095C120.387 82.8766 120.379 83.049 120.331 83.2124C120.283 83.3758 120.197 83.5254 120.079 83.6487C119.962 83.7721 119.817 83.8656 119.656 83.9214C119.495 83.9773 119.323 83.9939 119.154 83.9698C114.862 84.5544 110.536 84.8468 106.204 84.845" fill="#301629"/>
<path d="M139.711 84.263C139.487 82.6111 138.974 81.0114 138.196 79.5369C138 79.1053 137.687 78.737 137.294 78.4735C136.935 78.3014 136.544 78.2103 136.146 78.2065C133.131 77.9572 130.104 77.8826 127.081 77.9834C126.533 77.9834 125.898 78.0753 125.605 78.5391C125.465 78.8256 125.406 79.1449 125.434 79.4625V82.7095C125.407 82.9847 125.462 83.2618 125.592 83.506C125.724 83.6496 125.885 83.7648 126.063 83.8445C126.241 83.9243 126.434 83.9669 126.63 83.9698C130.923 84.5543 135.251 84.8468 139.584 84.845C139.584 84.845 139.812 84.915 139.711 84.263Z" fill="#301629"/>
<path d="M120.197 81.9829C120.53 81.5555 120.951 81.2046 121.431 80.954C121.912 80.7033 122.441 80.5587 122.982 80.5301C123.444 80.5237 123.898 80.6529 124.287 80.9019C124.676 81.1508 124.984 81.5084 125.172 81.9304C125.253 82.0684 125.386 82.1688 125.541 82.2098C125.696 82.2507 125.86 82.229 125.999 82.1492C126.135 82.0656 126.233 81.9332 126.274 81.7793C126.315 81.6254 126.295 81.4618 126.218 81.3221C125.932 80.7306 125.487 80.2305 124.932 79.878C124.378 79.5255 123.736 79.3346 123.078 79.3267C122.356 79.3345 121.645 79.5018 120.996 79.8165C120.346 80.1312 119.774 80.5856 119.321 81.1471C119.263 81.2044 119.217 81.2726 119.186 81.3477C119.155 81.4228 119.139 81.5034 119.139 81.5847C119.139 81.666 119.155 81.7466 119.186 81.8217C119.217 81.8968 119.263 81.965 119.321 82.0223C119.378 82.0805 119.446 82.1268 119.521 82.1583C119.596 82.1899 119.677 82.2062 119.759 82.2062C119.84 82.2062 119.921 82.1899 119.996 82.1583C120.072 82.1268 120.14 82.0805 120.197 82.0223V81.9829Z" fill="#301629"/>
<path d="M133.659 61.6782C132.161 64.2163 129.148 64.9865 126.384 65.0652C123.52 65.144 120.253 65.0652 117.731 63.5599C117.061 63.1573 116.089 62.9385 117.753 64.5095C120.166 66.7894 123.223 66.8682 126.455 66.6712C129.454 66.4918 132.586 65.0171 134.206 62.2952C135.082 60.8248 134.053 60.9824 133.659 61.6694V61.6782Z" fill="#804342"/>
<path d="M132.559 58.3215C127.926 51.0529 119.829 51.1404 116.224 51.6612C109.182 52.6852 102.013 55.9453 97.5464 61.0259C96.7931 61.9012 94.1042 66.9555 95.4136 71.0559C95.6501 71.791 96.6617 73.4102 96.4208 72.6662C94.1436 65.5377 99.5784 59.013 105.473 55.7572C111.21 52.5889 121.733 53.521 124.304 54.4444C125.618 54.9082 130.558 58.0546 132.673 60.9428C133.111 61.5686 133.58 59.9407 133.111 59.3149L132.559 58.3215Z" fill="#804342"/>
<path d="M112.414 59.3762C117.608 58.501 124.239 58.0634 127.83 62.7808C128.298 63.3891 129.349 62.7808 128.876 62.1682C124.895 56.9475 117.928 57.2188 112.09 58.2078C111.324 58.3391 111.652 59.5207 112.414 59.3762V59.3762Z" fill="#804342"/>
<path d="M141.835 62.1287C142.133 61.9493 142.404 61.7655 142.479 61.7217C143.547 61.0653 144.879 60.9909 146.1 61.0434H146.398C146.68 61.0464 146.957 61.1138 147.208 61.2404C147.786 61.5773 147.699 62.3738 147.524 62.9164C147.261 63.7522 146.578 64.2555 145.912 64.7544C145.141 65.3119 144.466 65.9919 143.915 66.7673C143.451 67.4456 143.819 67.6426 144.506 67.008C144.944 66.5704 145.277 66.3341 145.715 65.8571C146.551 64.9469 147.554 64.1067 148.238 63.0214C148.487 62.6276 148.991 61.8705 148.943 61.3717C148.886 60.759 147.944 60.3389 147.489 60.0282C145.68 58.781 144.927 59.9757 141.76 61.4854C141.388 61.6649 140.652 62.1156 140.836 62.4832C140.915 62.6451 141.406 62.3869 141.835 62.1287Z" fill="#804342"/>
<path d="M149.275 78.1582L149.24 78.889L149.538 78.3682C149.074 78.5695 149.192 78.9109 148.829 78.6352C148.391 78.307 147.401 78.0488 147.077 77.6287C146.363 76.7535 145.124 75.5019 143.937 75.3925C144.112 75.6989 144.721 75.6157 144.896 75.922C145.737 74.2285 146.35 72.6706 148.185 72.1893C148.715 72.0492 150.9 72.1149 150.502 73.0645C150.343 73.4419 150.062 73.7548 149.704 73.9526C149.345 74.1504 148.93 74.2214 148.526 74.1541C148.198 74.1191 147.173 74.1278 147.432 74.281C147.797 74.4939 148.209 74.6127 148.632 74.6267C149.473 74.732 150.328 74.6096 151.106 74.2723C151.544 74.0403 151.78 72.2199 151.487 71.7954C150.839 70.8502 149.534 71.069 148.579 71.3578C147.623 71.6524 146.732 72.1245 145.951 72.7494C145.078 73.4428 144.367 74.3179 143.867 75.3138C143.652 75.7514 143.902 75.7514 144.37 75.8126C145.452 75.9089 146.122 77.6068 146.788 78.3245C147.664 79.2785 149.683 79.6154 150.186 79.4185C150.279 79.3658 150.355 79.2892 150.407 79.1968C150.46 79.1044 150.486 78.9996 150.484 78.8934L150.519 78.1626C150.558 77.3836 149.35 77.388 149.31 78.1626L149.275 78.1582Z" fill="#804342"/>
<path d="M143.749 63.0478C142.838 63.2316 142.19 63.9799 141.712 64.7632C141.384 65.3102 141.314 66.9206 141.598 67.9709C141.857 68.9424 142.527 69.6994 143.232 70.4434C144.195 71.4542 144.887 70.4434 145.772 69.9664C146.459 69.6032 146.096 69.2093 145.408 69.5725C144.874 69.8526 144.204 70.102 143.749 69.7476C143.197 69.31 142.903 68.2116 142.737 67.5595C142.43 66.3386 142.689 63.6692 144.195 63.3629C144.957 63.2097 144.506 62.899 143.757 63.0566L143.749 63.0478Z" fill="#804342"/>
<path d="M125.535 56.6718C121.965 55.5932 118.282 54.9309 114.56 54.6982C111.543 54.5276 109.607 55.9454 106.077 57.9759C105.502 58.3608 105.083 58.9373 104.894 59.6025C104.704 60.2677 104.758 60.9784 105.044 61.608C105.688 62.8683 106.174 64.4656 107.448 64.5794C111.044 64.8901 115.532 61.8443 119.075 61.6299C122.417 61.4286 126.003 62.7589 127.742 65.7522C127.827 65.8814 127.958 65.9732 128.109 66.0085C128.26 66.0438 128.418 66.0201 128.552 65.9421C128.686 65.8641 128.784 65.7378 128.827 65.5893C128.871 65.4408 128.855 65.2814 128.784 65.1439C127.472 62.9835 125.358 61.4294 122.903 60.8203C120.061 60.0502 117.284 60.5665 114.481 61.2579C112.892 61.7144 111.258 61.9947 109.607 62.0938C108.398 62.12 105.504 61.9844 106.104 60.0852C106.542 58.6761 109.209 57.8971 110.483 57.2889C111.858 56.6237 112.366 56.0854 113.881 55.976C117.753 55.6478 123.893 56.9081 127.562 57.9934C128.311 58.2122 126.284 56.9169 125.539 56.6806L125.535 56.6718Z" fill="#804342"/>
<path d="M92.7161 65.1964C91.5118 66.7761 91.3235 68.8897 91.7746 70.7758C92.2782 72.9026 93.9642 74.6136 95.4138 76.1934C97.0298 77.9438 96.3772 76.4691 95.913 75.8433C93.8679 73.1039 92.1643 69.6293 93.7628 65.809C95.0766 62.6976 93.1803 64.5837 92.7161 65.1964V65.1964Z" fill="#804342"/>
<path d="M95.7553 82.9325C98.072 80.4119 99.8062 75.6901 99.6967 73.8784C99.4602 70.2025 99.0486 65.2051 101.606 62.155C102.105 61.5642 101.689 61.6036 101.019 62.0018C99.2675 63.0346 98.6764 68.4171 98.5888 71.8654C98.488 75.7032 97.7129 75.9483 96.4516 80.4863C95.7641 82.9325 95.2341 83.5057 95.764 82.9325H95.7553Z" fill="#804342"/>
<path d="M231.345 182.834C200.006 187.809 183.767 189.862 136.247 193.551C132.305 193.857 116.4 194.277 112.506 194.982C112.506 194.982 71.301 209.423 59.56 210.394C62.5029 222.209 71.7915 236.729 76.5474 247.923L64.767 251.678C52.129 240.022 40.5904 227.229 30.2971 213.462C27.7702 210.079 25.1951 206.224 25.5892 202.014C26.1016 196.535 31.3174 192.868 36.0997 190.133C54.7952 179.425 81.8815 168.528 103.91 161.759L138.301 164.822L239.626 170.213L231.345 182.834Z" fill="#153A23"/>
<path d="M100.573 139.935C92.1633 134.97 85.6589 127.335 82.0962 118.247C85.28 117.372 88.8404 109.692 90.7717 107.01C98.4444 111.228 113.636 111.482 123.919 111.574" fill="#FAC7B7"/>
<path d="M91.2927 166.064C91.2927 166.064 94.9013 164.55 95.6721 158.818H142.807C142.807 158.818 142.619 164.546 146.832 165.272L91.2927 166.064Z" fill="#153A23"/>
<path d="M84.2856 76.2372C84.7014 68.8081 86.5436 61.5283 89.7117 54.7946C94.1178 45.442 100.086 36.9077 107.36 29.5579C109.835 27.0285 112.576 24.4992 116.264 24.3635C117.14 24.3285 118.015 24.3022 118.834 24.2629C121.252 24.1491 123.371 22.8888 125.364 21.6372C130.339 18.4996 136.838 16.4998 140.727 11.9268C143.184 9.03858 144.572 3.09153 138.633 5.3627C132.695 7.63387 126.63 9.95755 120.831 12.6094C101.356 21.5016 84.8944 35.4349 76.6612 55.0922C72.2818 65.529 70.0396 77.7164 71.5943 88.9584C73.1435 100.259 77.0816 111.101 83.147 120.764L90.7583 107.032C90.7583 107.032 83.4098 96.0476 84.2856 76.2372Z" fill="#EE9E7B"/>
<path d="M157.649 130.776L191.799 167.684L177.562 166.926L151.925 143.97L157.649 130.776Z" fill="#EE9E7B"/>
<path d="M123.897 111.574C131.697 112.296 138.086 112.992 143.061 116.12C148.036 119.249 155.236 126.395 159.659 132.946C157.749 137.349 153.83 139.572 151.925 143.97L141.778 138.259L123.897 111.574Z" fill="#FAC7B7"/>
<path d="M230.245 182.921C233.797 182.956 237.339 182.54 240.786 181.682C242 181.381 243.248 180.995 244.15 180.133C245.131 179.197 245.56 176.44 245.937 175.14C247.938 168.218 249.519 161.182 250.671 154.07C250.912 152.577 251.109 151.037 250.749 149.58C250.39 148.123 249.217 146.753 247.719 146.587C245.271 146.311 243.681 149.028 242.766 151.313L238.535 161.872C237.357 164.808 236.039 167.924 233.416 169.696L230.245 182.921Z" fill="#EE9E7B"/>
<path d="M206.636 50.2347C216.63 62.5139 222.433 71.1653 227.754 86.0177C232.663 99.7322 235.606 107.999 239.622 128.671C240.935 135.506 242.184 141.97 242.376 136.64C243.471 106.471 235.317 72.3556 218.224 47.259C209.615 34.663 197.561 24.8084 183.5 18.8715C173.866 14.7887 163.167 10.1194 152.687 9.24419C151.312 9.13042 148.838 8.89411 147.432 9.33171C147.28 9.37694 147.147 9.46995 147.052 9.59689C146.957 9.72383 146.906 9.87793 146.906 10.0363C146.906 10.1946 146.957 10.3487 147.052 10.4756C147.147 10.6026 147.28 10.6956 147.432 10.7408C153.55 12.4431 183.697 22.0223 206.636 50.2347Z" fill="#227B3D"/>
<path d="M172 9.78686C184.262 13.5721 195.487 19.5717 205.283 28.4245C216.63 38.6994 225.358 51.6176 231.774 65.4371C238.312 79.5368 242.56 94.6779 244.816 110.038C246.025 118.226 246.645 126.49 246.672 134.767C246.672 142.084 248.98 125.818 249.3 122.641C250.75 109.075 249.458 108.353 248.639 97.8024C246.107 65.2315 232.816 35.1198 205.568 16.2503C192.386 7.12184 176.16 6.08472 160.763 4.20301C159.011 3.98859 157.067 3.51597 155.407 4.29929C153.182 5.34516 159.099 6.64923 159.786 6.77614C163.912 7.54625 167.99 8.55146 172 9.78686V9.78686Z" fill="#F4BA24"/>
<path d="M166.675 2.16803C179.274 2.25117 197.378 7.13485 203.325 10.0449C210.254 13.4364 218.316 18.9852 225.568 26.5995C239.433 41.1543 244.439 54.3831 248.993 73.7865C251.792 85.7156 252.86 107.403 253.679 119.613C254.039 124.908 256.495 116.913 256.837 111.574C258.378 87.6367 262.092 67.0868 252.458 46.4274C243.843 27.9211 235.925 17.5148 217.331 8.90277C196.446 -0.768305 180.5 0.509503 169.158 0.0718977C160.11 -0.282563 158.963 0.732678 164.187 1.82232L166.675 2.16803Z" fill="#F1673C"/>
<path d="M76.206 247.214L84.4961 261.686C84.7838 262.02 84.9445 262.445 84.9501 262.886C84.9557 263.326 84.8059 263.755 84.5268 264.097C82.5254 267.475 79.0964 271.217 76.6045 274.249C75.9602 275.139 75.1367 275.884 74.1871 276.437C73.1404 276.958 71.9317 277.015 70.7668 277.05C64.8415 277.221 51.9925 277.05 46.0847 276.612C44.8454 276.516 43.4046 276.275 42.8177 275.181C42.6426 274.774 42.5664 274.332 42.5953 273.89C42.6243 273.448 42.7575 273.019 42.9841 272.639C44.1446 270.403 46.8204 269.374 49.3342 269.138C51.8479 268.902 54.3923 269.274 56.8886 268.919C59.3848 268.565 68.91 267.247 69.7333 264.867C70.6092 262.399 69.2953 259.756 68.0078 257.471L64.7146 251.559L76.206 247.214Z" fill="#EE9E7B"/>
<path d="M100.735 132.382C93.5978 128.357 87.6851 122.476 83.6243 115.363C82.8404 113.889 80.6026 115.197 81.3865 116.676C85.6768 124.169 91.91 130.368 99.4295 134.618C100.905 135.393 102.215 133.157 100.743 132.382H100.735Z" fill="white"/>
<path d="M101.926 125.831C95.2472 123.84 90.6226 117.845 86.1118 112.913C84.982 111.679 83.1514 113.512 84.2769 114.742C89.1336 120.055 94.0604 126.19 101.238 128.33C102.841 128.807 103.524 126.308 101.926 125.831V125.831Z" fill="white"/>
<path d="M104.93 118.821C103.178 119.101 101.466 118.195 99.9683 117.451C98.275 116.605 96.6005 115.73 94.9451 114.825C92.1248 113.25 89.3527 111.57 87.1587 109.163C86.0332 107.924 84.2026 109.762 85.3237 110.992C87.8068 113.723 91.0169 115.622 94.2182 117.385C96.0094 118.37 97.818 119.337 99.6705 120.199C101.523 121.061 103.494 121.687 105.618 121.341C105.947 121.246 106.226 121.027 106.395 120.729C106.564 120.431 106.611 120.08 106.524 119.748C106.429 119.42 106.209 119.141 105.911 118.972C105.614 118.802 105.262 118.756 104.93 118.843V118.821Z" fill="white"/>
<path d="M87.3206 108.371C90.6283 111.259 94.4816 113.457 98.6532 114.833C102.825 116.209 107.23 116.736 111.609 116.383C113.26 116.243 113.273 113.648 111.609 113.793C107.57 114.144 103.502 113.682 99.6453 112.434C95.7886 111.186 92.2216 109.178 89.1555 106.528C87.903 105.434 86.0637 107.259 87.3206 108.357V108.371Z" fill="white"/>
<path d="M138.099 131.975C142.829 135.476 147.389 139.187 151.78 143.108C153.024 144.215 154.846 142.386 153.615 141.274C149.058 137.213 144.322 133.368 139.409 129.739C138.848 129.301 137.964 129.647 137.657 130.203C137.495 130.498 137.452 130.845 137.539 131.171C137.625 131.497 137.834 131.777 138.121 131.953L138.099 131.975Z" fill="white"/>
<path d="M137.298 124.908C144.28 129.546 150.752 134.909 156.606 140.907C157.776 142.101 159.606 140.268 158.441 139.073C152.418 132.921 145.765 127.42 138.59 122.659C137.197 121.735 135.897 123.971 137.276 124.899L137.298 124.908Z" fill="white"/>
<path d="M131.478 116.628C143.333 118.068 151.623 127.975 158.744 136.574C159.812 137.857 161.634 136.014 160.579 134.741C152.888 125.477 144.169 115.578 131.478 114.038C130.782 113.955 130.164 114.694 130.164 115.35C130.164 115.699 130.302 116.033 130.549 116.279C130.795 116.525 131.129 116.663 131.478 116.663V116.628Z" fill="white"/>
<path d="M142.781 159.312C142.908 145.239 142.781 142.849 140.184 129.047C138.585 120.496 136.917 117.91 136.917 117.91C123.152 103.653 104.072 117.91 104.072 117.91C101.991 120.536 100.686 127.293 100.047 130.623C97.6733 142.998 96.4296 146.919 95.5625 159.505" fill="#FAC7B7"/>
<path d="M81.2466 243.971C75.168 244.063 66.3567 244.068 64.2546 236.887C62.3409 230.427 69.9478 228.025 74.9534 228.078C76.2672 228.078 77.7693 228.161 78.9912 228.686C79.5723 228.913 80.0704 229.311 80.4189 229.828C80.5759 230.035 80.6619 230.286 80.6641 230.546C80.6247 230.817 80.7998 230.432 80.6641 230.589C80.4186 230.693 80.1612 230.767 79.8977 230.808C75.895 231.85 71.6032 232.34 67.491 232.751C63.1231 233.149 58.7315 233.221 54.3529 232.966C50.1663 232.76 45.9708 232.471 41.7797 232.804C37.0194 233.184 32.3817 234.462 27.6476 235.092C23.496 235.648 17.8904 236.348 14.2818 233.915C13.6457 233.47 13.126 232.879 12.7665 232.191C12.0308 230.808 11.3958 229.386 10.6075 228.025C8.9565 225.189 7.10403 222.485 5.50994 219.605C4.43262 217.645 3.0619 215.103 3.50422 212.809C3.90712 210.7 5.92597 210.092 7.14344 208.582C9.8017 205.291 11.4483 200.999 14.4657 198.11C14.5708 198.01 14.873 197.751 14.5971 197.988C14.8642 197.76 14.9606 197.953 14.6716 197.913C14.965 197.957 13.7957 197.734 14.3606 197.94C14.8443 198.082 15.3375 198.19 15.8364 198.263C17.6645 198.596 19.512 198.811 21.3676 198.907C25.0988 199.13 28.8913 199.007 32.5831 199.677C36.2531 200.307 39.6644 201.977 42.4104 204.491C45.1694 206.981 47.4773 209.952 50.4334 212.223C53.0067 214.178 55.9559 215.581 59.0965 216.345C62.2372 217.11 65.5019 217.218 68.6865 216.665C71.8995 216.113 74.9903 215.001 77.8175 213.378C80.5896 211.812 82.9414 209.663 85.6566 208.009C88.1747 206.473 90.4739 204.574 90.5527 201.392C90.6184 199.099 89.5016 196.981 87.9995 195.318C84.8026 191.778 79.5211 189.669 74.787 189.669C72.536 189.669 70.25 190.22 68.5026 191.695C66.0545 193.756 65.6604 197.139 66.475 200.075C68.161 206.175 73.8235 210.538 79.451 212.849C84.9208 215.098 91.411 215.597 96.9684 213.335C99.8719 212.165 102.419 210.256 104.356 207.799C106.752 204.758 108.21 201.204 109.581 197.62C112.454 190.12 115.414 182.116 115.086 173.95C114.849 168.077 112.279 161.465 106.594 158.897C102.854 157.203 98.7946 157.798 94.8357 157.251C90.7672 156.691 86.8609 155.343 82.8494 154.503C80.9225 154.1 78.8116 153.628 76.8321 153.746C74.8527 153.864 73.3856 154.831 72.2426 156.459C70.6191 158.861 69.6556 161.646 69.4486 164.537C68.9712 170.125 71.301 175.845 75.1855 179.832C77.1302 181.827 79.4913 183.369 82.1005 184.348C85.604 185.66 89.5454 185.66 93.2635 185.407C101.042 184.871 108.751 183.584 116.281 181.564C130.781 177.626 144.594 171.438 159.274 168.117C166.329 166.52 173.752 165.491 180.995 166.121C186.855 166.642 193.546 168.786 196.244 174.493C199.599 181.578 195.338 189.494 190.989 195.06C186.64 200.627 181.578 206.193 175.223 209.501C169.6 212.446 162.689 213.081 157.307 209.26C154.96 207.589 153.269 204.994 153.077 202.079C152.836 198.5 154.391 195.078 156.773 192.452C161.59 187.153 168.877 185.078 175.534 183.179C183.496 180.908 191.584 178.996 199.148 175.556C205.279 172.777 211.059 168.804 215.229 163.483C217.252 160.901 219.1 157.916 219.998 154.73C220.725 152.153 220.606 148.477 218.062 146.897C215.198 145.116 212.321 147.212 211.243 149.939C209.991 153.107 210.665 156.77 211.151 160.03C212.29 167.622 214.742 174.93 216.297 182.435C217.729 189.341 218.237 196.439 215.697 203.165L217.856 201.926C215.794 201.095 215.229 198.329 215.487 196.369C215.85 193.463 218.023 191.047 219.893 188.929C224.425 183.866 228.099 178.427 230.442 172.02C231.731 168.432 232.582 164.701 232.978 160.909C233.079 159.982 232.102 159.159 231.226 159.159C230.21 159.159 229.602 159.956 229.501 160.909C228.692 168.03 226.149 174.844 222.095 180.755C220.138 183.612 217.672 186.006 215.526 188.715C213.521 191.253 211.878 194.163 211.962 197.493C212.045 200.823 213.713 203.939 216.91 205.235C217.83 205.606 218.736 204.819 219.034 204.027C224.561 189.428 216.941 174.239 214.607 159.829C214.31 158.023 214.115 156.203 214.02 154.376C213.915 153.13 214.126 151.878 214.633 150.735C214.913 150.166 215.509 149.309 216.249 149.772C217.068 150.284 216.985 151.939 216.884 152.731C216.529 155.654 214.567 158.651 212.824 160.944C210.812 163.542 208.427 165.829 205.747 167.732C199.642 172.134 192.561 174.694 185.388 176.79C177.943 178.978 170.152 180.549 163.053 183.822C156.62 186.798 150.668 192.089 149.718 199.471C148.842 206.32 153.269 211.877 159.471 214.223C165.886 216.647 172.963 214.954 178.648 211.484C184.862 207.694 189.916 202.053 194.291 196.312C198.815 190.382 202.349 182.79 200.181 175.215C198.298 168.651 192.298 164.848 185.944 163.399C179.011 161.82 171.623 162.432 164.673 163.535C157.342 164.699 150.191 166.773 143.153 169.097C129.017 173.758 115.02 179.565 100.104 181.223C93.2723 181.98 85.4945 183.446 79.5474 179.07C77.4731 177.516 75.7874 175.503 74.6226 173.189C73.4577 170.875 72.8455 168.322 72.8338 165.732C72.8397 163.093 73.6326 160.515 75.1111 158.328C75.2812 158.012 75.5255 157.742 75.823 157.542C76.1206 157.341 76.4623 157.216 76.819 157.177C77.7746 157.14 78.7312 157.214 79.67 157.396C81.7268 157.734 83.7646 158.179 85.7748 158.73C89.7162 159.737 93.6094 160.748 97.6822 160.918C101.186 161.063 104.729 161.019 107.431 163.544C112.217 168.038 112.112 175.486 110.982 181.433C110.144 185.498 108.973 189.486 107.479 193.358C106.165 196.907 104.926 200.561 102.924 203.795C99.6705 209.046 94.1919 211.571 88.0914 211.282C82.2289 210.973 76.7126 208.412 72.6937 204.136C70.8938 202.184 69.1289 199.231 69.5624 196.456C69.8996 194.268 71.7521 193.393 73.5695 193.152C77.8044 192.64 82.81 194.631 85.6215 197.808C86.747 199.086 87.6273 200.872 86.7952 202.535C86.2478 203.62 85.0435 204.285 84.0274 204.915C82.6907 205.691 81.4102 206.559 80.1955 207.514C75.3782 211.51 69.1902 213.947 62.8664 213.475C59.8093 213.231 56.8546 212.262 54.2478 210.648C51.1823 208.766 48.905 205.983 46.365 203.471C43.6279 200.749 40.6105 198.469 36.9274 197.2C33.3933 195.988 29.6008 195.756 25.8959 195.616C24.0653 195.546 22.2303 195.502 20.3998 195.362C18.6099 195.192 16.8316 194.916 15.0744 194.535C13.0862 194.154 11.698 195.848 10.6119 197.244C9.15358 199.126 7.91857 201.182 6.6398 203.178C6.0661 204.084 5.48365 204.981 4.88806 205.86C4.7406 206.091 4.56886 206.305 4.37571 206.499C4.28374 206.6 4.18738 206.701 4.08665 206.797C3.98593 206.893 4.25744 206.67 4.2443 206.679C4.09978 206.788 3.93775 206.88 3.80637 206.981C1.51596 208.543 -0.0386817 210.849 0.000732537 213.685C0.0401467 216.45 1.31454 219.093 2.62835 221.461C4.22243 224.336 6.09238 227.045 7.73464 229.889C9.00027 232.077 9.79297 234.681 11.8206 236.318C15.5912 239.346 21.1574 239.193 25.7075 238.746C30.3278 238.309 34.8254 237.193 39.4062 236.497C47.4642 235.272 55.6886 236.869 63.7948 236.458C68.086 236.166 72.3597 235.659 76.6 234.939C78.4481 234.659 80.6947 234.502 82.3589 233.587C84.1106 232.646 84.4697 230.55 83.7734 228.826C82.4903 225.636 78.9561 224.804 75.8468 224.625C72.7924 224.438 69.736 224.955 66.9129 226.135C64.1364 227.325 61.7058 229.421 60.8387 232.405C59.9716 235.39 60.8081 238.663 62.5291 241.158C66.7377 247.245 74.533 247.507 81.2509 247.402C83.4756 247.372 83.48 243.901 81.2509 243.949L81.2466 243.971Z" fill="#227B3D"/>
<path d="M190.266 188.702C189.767 188.763 188.024 185.639 187.757 185.14C186.408 182.72 186.193 179.84 187.542 180.514C189.526 181.512 189.526 178.519 192.298 180.917C193.551 181.998 194.724 183.175 195.951 184.295C196.472 184.768 198.95 187.678 199.511 187.612L190.266 188.702Z" fill="#EE9E7B"/>
<path d="M92.3525 154.98C105.745 155.271 119.141 155.271 132.542 154.98C136.32 154.901 140.098 154.796 143.876 154.665C146.096 154.59 146.105 151.137 143.876 151.212C130.484 151.664 117.087 151.83 103.686 151.711C99.9083 151.676 96.1304 151.619 92.3525 151.54C90.1234 151.492 90.1234 154.949 92.3525 154.993V154.98Z" fill="white"/>
<path d="M95.3392 145.58C107.693 147.209 120.168 147.745 132.616 147.182C136.12 147.018 139.623 146.77 143.127 146.438C143.581 146.426 144.014 146.24 144.335 145.918C144.656 145.596 144.841 145.164 144.852 144.709C144.852 143.834 144.059 142.893 143.127 142.985C130.721 144.171 118.235 144.259 105.815 143.248C102.311 142.956 98.8222 142.583 95.3479 142.127C94.4195 142.005 93.5962 143.003 93.5962 143.856C93.5962 144.889 94.3932 145.458 95.3479 145.58H95.3392Z" fill="white"/>
<path d="M97.5115 137.235C108.826 138.535 120.238 138.771 131.596 137.94C134.808 137.703 138.019 137.381 141.231 136.972C142.155 136.854 142.956 136.259 142.956 135.244C142.956 134.399 142.163 133.397 141.231 133.515C129.932 134.952 118.523 135.326 107.155 134.631C103.943 134.433 100.732 134.15 97.5203 133.782C96.5919 133.677 95.7686 134.658 95.7686 135.533C95.7686 136.552 96.5656 137.152 97.5203 137.257L97.5115 137.235Z" fill="white"/>
<path d="M100.647 128.054C113.644 129.315 126.759 128.552 139.522 125.792C141.712 125.323 140.775 121.993 138.603 122.461C126.138 125.133 113.333 125.855 100.647 124.601C99.714 124.509 98.917 125.477 98.917 126.33C98.9238 126.786 99.1084 127.221 99.4314 127.543C99.7545 127.865 100.191 128.048 100.647 128.054V128.054Z" fill="white"/>
<path d="M101.287 120.094C113.006 119.564 126.774 120.58 138.323 117.954C140.49 117.46 137.797 114.598 135.629 115.088C130.072 116.352 124.318 116.519 118.638 116.549C112.852 116.584 107.067 116.379 101.287 116.641C99.0706 116.742 99.0574 120.195 101.287 120.094V120.094Z" fill="white"/>
<path d="M227.005 168.594C228.962 168.891 234.563 168.261 235.96 166.843C236.582 166.116 237.031 165.257 237.274 164.332C238.588 160.546 239.876 157.588 241.176 153.803C242.205 150.814 243.3 147.711 245.556 145.466C246.6 144.434 247.848 143.628 249.22 143.101C250.592 142.574 252.058 142.336 253.526 142.403C251.214 155.26 248.272 167.981 244.702 180.567C244.573 181.22 244.282 181.831 243.856 182.343C243.305 182.908 242.486 183.092 241.711 183.219C237.73 183.949 230.351 184.208 226.313 183.998L227.005 168.594Z" fill="#301629"/>
<path d="M232.671 173.512C232.256 173.605 231.859 173.766 231.498 173.989C228.222 175.981 229.82 181.468 233.793 181.512C234.447 181.522 235.093 181.372 235.676 181.074C236.258 180.777 236.759 180.341 237.134 179.805C238.921 177.088 235.956 172.79 232.671 173.512Z" fill="white"/>
<path d="M245.84 182.899C246.37 181.271 246.716 179.569 247.102 177.906C247.763 175.062 248.415 172.217 249.015 169.355C250.185 164.016 251.315 158.673 252.479 153.334C253.211 149.969 254.152 146.657 254.783 143.27C254.98 142.206 254.49 140.985 253.333 140.723C252.317 140.491 250.995 141.029 250.785 142.167C250.189 145.374 249.3 148.508 248.595 151.693C248.126 153.829 247.671 155.969 247.211 158.109C245.937 164.043 244.671 169.977 243.313 175.893C242.875 177.862 242.468 179.88 241.838 181.805C241.696 182.334 241.768 182.898 242.038 183.374C242.309 183.851 242.756 184.202 243.283 184.352C243.813 184.484 244.374 184.408 244.849 184.138C245.325 183.868 245.678 183.426 245.836 182.903L245.84 182.899Z" fill="white"/>
<path d="M244.08 184.024C244.645 182.3 244.991 180.483 245.394 178.716C246.072 175.722 246.707 172.72 247.351 169.714C248.516 164.231 249.633 158.739 250.811 153.256C251.687 149.138 253.237 145.186 254.012 141.042C254.135 140.39 253.136 140.11 253.014 140.766C252.269 144.753 250.78 148.543 249.917 152.499C249.453 154.612 249.042 156.735 248.577 158.848C247.264 165.08 245.989 171.311 244.601 177.521C244.163 179.591 243.725 181.726 243.086 183.748C242.88 184.383 243.878 184.654 244.084 184.024H244.08Z" fill="#301629"/>
<path d="M235.912 166.008C236.937 166.008 238.027 166.126 239.004 165.741C239.224 165.673 239.427 165.556 239.596 165.4C239.765 165.243 239.896 165.05 239.981 164.836C240.065 164.621 240.099 164.391 240.082 164.161C240.065 163.931 239.995 163.708 239.88 163.509C239.66 163.111 239.402 162.736 239.109 162.389C238.916 162.135 238.474 161.688 238.483 161.338C238.483 161.089 239.048 160.958 239.297 160.901C239.853 160.765 240.401 160.599 240.94 160.406C241.859 160.047 242.779 159.426 242.691 158.314C242.621 157.575 242.162 157.002 241.781 156.402C241.522 155.991 241.137 155.282 241.719 154.984C242.648 154.507 244.128 154.717 244.443 153.413C244.702 152.332 243.497 151.79 242.853 151.177C242.74 151.063 242.633 150.941 242.534 150.814C242.595 150.814 242.442 151.138 242.416 151.116C242.389 151.094 242.455 151.116 242.472 151.116C242.627 151.134 242.782 151.134 242.937 151.116C243.541 151.168 244.22 151.3 244.789 151.011C245.068 150.871 245.282 150.627 245.384 150.332C245.486 150.037 245.469 149.714 245.337 149.431C245.159 149.135 244.923 148.878 244.644 148.675C244.365 148.472 244.048 148.328 243.712 148.25C243.077 148.044 242.805 149.046 243.436 149.247C243.655 149.317 244.645 149.685 244.378 150.053C244.167 150.328 243.27 150.114 242.985 150.088C242.768 150.039 242.544 150.038 242.327 150.082C242.109 150.127 241.904 150.216 241.724 150.346C241.597 150.484 241.522 150.662 241.511 150.849C241.5 151.036 241.553 151.222 241.662 151.374C241.903 151.719 242.199 152.023 242.538 152.271C242.836 152.512 243.287 152.739 243.414 153.019C243.594 153.496 242.656 153.658 242.341 153.733C241.888 153.8 241.45 153.949 241.049 154.17C239.893 154.941 240.524 156.358 241.137 157.264C241.391 157.636 241.837 158.227 241.636 158.708C241.496 159.054 241.058 159.242 240.76 159.374C239.858 159.75 238.57 159.763 237.861 160.468C237.204 161.111 237.576 161.968 238.032 162.603C238.312 163.001 239.486 164.108 238.982 164.607C238.641 164.949 237.944 164.953 237.497 164.975C236.985 164.997 236.473 164.975 235.956 164.975C235.819 164.975 235.687 165.029 235.591 165.126C235.494 165.223 235.439 165.354 235.439 165.491C235.439 165.628 235.494 165.759 235.591 165.856C235.687 165.953 235.819 166.008 235.956 166.008H235.912Z" fill="white"/>
<path d="M232.229 175.088C231.982 175.89 231.803 176.711 231.695 177.543C231.59 178.326 231.45 179.193 231.813 179.928C231.854 179.996 231.909 180.054 231.975 180.097C232.041 180.141 232.116 180.169 232.195 180.179C232.273 180.189 232.353 180.181 232.428 180.156C232.503 180.13 232.572 180.088 232.628 180.033C233.191 179.388 233.75 178.737 234.305 178.081L235.115 177.11C235.282 176.957 235.412 176.769 235.495 176.559C235.577 176.349 235.611 176.122 235.593 175.897C235.563 175.788 235.499 175.691 235.408 175.622C235.318 175.553 235.207 175.516 235.093 175.517C234.323 175.639 233.561 175.81 232.812 176.029C232.418 176.129 232.019 176.234 231.616 176.326C231.432 176.37 231.248 176.405 231.064 176.44L230.837 176.475C230.771 176.475 230.911 176.475 230.81 176.475H230.679C230.58 176.48 230.484 176.513 230.403 176.57C230.322 176.628 230.259 176.707 230.221 176.798C230.183 176.89 230.172 176.99 230.189 177.088C230.205 177.186 230.249 177.276 230.316 177.35C230.888 177.873 231.562 178.274 232.295 178.527C233.012 178.786 233.701 179.119 234.349 179.521C234.448 179.578 234.563 179.601 234.676 179.586C234.79 179.571 234.895 179.519 234.975 179.438C235.054 179.356 235.104 179.25 235.118 179.138C235.132 179.025 235.11 178.911 235.054 178.812L233.412 175.429L233.175 174.939C233.096 174.844 232.986 174.781 232.864 174.76C232.743 174.739 232.618 174.763 232.512 174.826C232.406 174.89 232.327 174.989 232.288 175.106C232.249 175.223 232.253 175.35 232.299 175.464L233.942 178.842L234.178 179.333L234.888 178.624C234.258 178.235 233.59 177.911 232.895 177.657C232.518 177.495 232.146 177.324 231.787 177.131C231.636 177.048 231.49 176.955 231.349 176.856L231.257 176.79C231.205 176.755 231.314 176.843 231.257 176.79C231.2 176.738 231.143 176.689 231.091 176.633L230.723 177.508C231.497 177.416 232.262 177.258 233.009 177.035C233.407 176.935 233.801 176.825 234.204 176.729L234.756 176.602L234.979 176.558L235.137 176.532L234.638 176.151C234.638 176.02 234.638 176.112 234.568 176.177C234.532 176.227 234.494 176.276 234.454 176.322C234.336 176.466 234.213 176.611 234.095 176.759L233.394 177.595C232.912 178.158 232.426 178.72 231.936 179.28L232.75 179.385C232.652 179.113 232.625 178.821 232.672 178.536C232.672 178.186 232.729 177.84 232.781 177.495C232.889 176.766 233.053 176.046 233.272 175.342C233.425 174.725 232.422 174.453 232.229 175.088Z" fill="#301629"/>
<path d="M112.165 90.9102C113.808 89.2083 115.959 88.0844 118.296 87.7069L117.888 87.173C117.316 88.2561 116.589 89.2497 115.729 90.1225C115.449 90.4069 115.821 90.9408 116.167 90.6914C117.518 89.7331 118.991 88.959 120.547 88.3896L120.109 88.1401C120.246 88.7327 120.27 89.346 120.179 89.9474C120.122 90.315 120.665 90.6389 120.84 90.2275C121.262 89.2266 121.887 88.3237 122.675 87.5756L122.106 87.5012C122.769 88.6521 123.279 89.885 123.621 91.1683C123.641 91.2362 123.68 91.2968 123.734 91.3426C123.788 91.3884 123.854 91.4176 123.924 91.4264C123.995 91.4352 124.066 91.4234 124.129 91.3923C124.193 91.3612 124.246 91.3123 124.282 91.2515C124.904 90.175 125.487 89.0635 126.034 87.9607L125.465 88.0351C126.379 88.7878 127.282 89.5507 128.176 90.3238C128.238 90.3835 128.321 90.4187 128.407 90.4233C128.494 90.4278 128.579 90.4013 128.648 90.3484C128.716 90.2956 128.764 90.22 128.782 90.1353C128.8 90.0505 128.787 89.9622 128.745 89.8862C128.322 88.9597 127.753 88.1072 127.059 87.3612L126.805 87.9826C128.789 87.9826 130.501 89.0766 132.108 90.1181C132.397 90.3019 132.831 89.9124 132.608 89.6192C131.632 88.3404 130.298 87.3794 128.776 86.8579C128.338 86.7048 128.145 87.405 128.583 87.5581C129.93 88.0168 131.112 88.8615 131.981 89.9868L132.476 89.4923C130.755 88.3764 128.92 87.2605 126.783 87.2562C126.712 87.2584 126.644 87.2808 126.586 87.3208C126.528 87.3608 126.483 87.4167 126.455 87.4817C126.428 87.5467 126.42 87.6182 126.432 87.6876C126.445 87.757 126.477 87.8214 126.525 87.8732C127.174 88.5762 127.705 89.3802 128.097 90.2538L128.666 89.8162C127.79 89.0416 126.871 88.2758 125.955 87.5275C125.916 87.4883 125.869 87.4586 125.816 87.4406C125.764 87.4226 125.708 87.4167 125.654 87.4235C125.599 87.4302 125.546 87.4494 125.5 87.4796C125.453 87.5097 125.414 87.5501 125.386 87.5975C124.834 88.7134 124.252 89.8118 123.634 90.8927L124.295 90.9802C123.938 89.6355 123.405 88.3436 122.71 87.138C122.682 87.0909 122.643 87.0509 122.597 87.0208C122.55 86.9907 122.498 86.9714 122.443 86.9642C122.389 86.9571 122.333 86.9623 122.281 86.9795C122.228 86.9967 122.181 87.0255 122.141 87.0636C121.306 87.8552 120.642 88.81 120.192 89.8687L120.853 90.1444C120.973 89.4176 120.951 88.6745 120.788 87.9563C120.763 87.8648 120.703 87.7868 120.621 87.7392C120.539 87.6916 120.441 87.6785 120.35 87.7025C118.74 88.2883 117.216 89.0859 115.817 90.0743L116.255 90.6432C117.158 89.7266 117.923 88.6846 118.528 87.5494C118.56 87.4865 118.574 87.4157 118.568 87.3452C118.562 87.2748 118.535 87.2076 118.492 87.1515C118.449 87.0955 118.391 87.0529 118.324 87.0288C118.257 87.0047 118.185 87.0001 118.116 87.0155C115.658 87.4273 113.397 88.616 111.665 90.4069C111.341 90.7439 111.854 91.2559 112.178 90.9189L112.165 90.9102Z" fill="#804342"/>
<path d="M130.444 107.565C124.593 108.388 119.198 110.292 113.435 110.125L114.192 106.375C119.01 106.734 125.176 106.835 130.116 105.46L130.444 107.565Z" fill="#B26D55"/>
<path d="M63.7028 251.279C68.0559 249.161 73.3067 247.498 77.6598 245.376L84.5179 260.08C85.0039 260.939 85.3024 261.892 85.3937 262.876C85.3937 264.189 84.6887 265.414 83.9836 266.543L79.4685 273.781C78.8904 274.704 78.2817 275.667 77.3533 276.236C76.3591 276.849 75.1417 276.927 73.9767 276.989C63.7159 277.549 53.2887 278.096 43.2863 275.746C42.8221 275.636 42.2922 275.47 42.1082 275.028C42.0207 274.768 42.0116 274.488 42.082 274.223C42.7257 270.801 45.949 268.355 49.321 267.458C52.6931 266.56 56.2404 266.889 59.722 267.02C61.4737 267.086 63.3262 267.072 64.837 266.184C67.0618 264.871 67.9026 261.948 67.5041 259.397C67.1056 256.846 65.7261 254.583 64.3729 252.369" fill="#301629"/>
<path d="M42.0687 277.304L63.2385 278.214L73.876 278.652C74.7528 278.722 75.6347 278.688 76.5036 278.551C77.4594 278.329 78.3207 277.812 78.9648 277.072C80.0506 275.811 81.0375 274.468 81.9165 273.055C83.9301 269.959 85.6095 266.658 86.9265 263.209C87.3206 262.198 86.4885 260.894 85.4813 260.662C84.9516 260.53 84.3917 260.607 83.9167 260.875C83.4418 261.144 83.088 261.584 82.9281 262.106C82.7967 262.452 82.661 262.797 82.5208 263.139C82.5208 263.182 82.2581 263.747 82.442 263.322C82.3676 263.493 82.2975 263.664 82.223 263.83C81.899 264.565 81.5573 265.287 81.1982 266.018C80.5063 267.392 79.7516 268.734 78.9341 270.044C78.1502 271.295 77.305 272.503 76.4204 273.694C76.0569 274.179 76.6788 273.4 76.3109 273.834C76.2014 273.965 76.0963 274.096 75.9781 274.219C75.8642 274.344 75.7412 274.461 75.6102 274.569C76.0481 274.206 75.2511 274.669 75.8073 274.459C75.6512 274.526 75.4857 274.567 75.3168 274.582C75.8467 274.582 75.2817 274.582 75.1898 274.582C74.7518 274.582 74.3139 274.556 73.876 274.538L53.6346 273.663L42.0687 273.164C41.52 273.169 40.9952 273.389 40.6075 273.777C40.2199 274.165 40.0007 274.69 39.9973 275.238C40.0085 275.784 40.2304 276.304 40.6164 276.69C41.0025 277.075 41.5229 277.297 42.0687 277.308V277.304Z" fill="white"/>
<path d="M40.7025 275.75C48.0511 276.065 55.3996 276.357 62.7482 276.625L73.6966 277.063C74.5281 277.144 75.3656 277.144 76.1972 277.063C76.9825 276.925 77.6923 276.51 78.1985 275.895C79.243 274.649 80.1792 273.317 80.997 271.912C83.0169 268.617 84.7306 265.144 86.1164 261.537C86.3573 260.915 85.3544 260.662 85.1136 261.261C83.9124 264.378 82.4641 267.394 80.7824 270.28C79.9813 271.677 79.1041 273.028 78.1548 274.328C77.6906 274.954 77.1869 275.72 76.403 275.991C75.6191 276.262 74.6819 276.105 73.8674 276.07C66.7553 275.768 59.6432 275.492 52.5268 275.194C48.5825 275.037 44.641 274.874 40.7025 274.704C40.0325 274.678 40.0369 275.715 40.7025 275.741V275.75Z" fill="#301629"/>
<path d="M54.1471 267.129C54.1077 268.175 54.6858 269.996 56.0959 269.37C56.6652 269.121 56.8536 268.547 57.1601 268.057C57.7338 267.138 58.706 267.851 59.2972 268.359C60.2607 269.186 61.7672 270.11 62.8314 268.854C63.0455 268.602 63.1607 268.282 63.1554 267.952C63.1446 267.813 63.1226 267.676 63.0897 267.541C63.0635 267.449 63.0416 267.357 63.0153 267.265C62.989 267.173 62.9627 267.09 63.0503 267.169C63.1554 267.112 63.5934 267.265 63.7204 267.291L64.3948 267.414L65.9319 267.698C66.009 267.717 66.0892 267.717 66.1667 267.701C66.2442 267.684 66.317 267.651 66.3799 267.602C66.4428 267.554 66.4941 267.493 66.5303 267.422C66.5664 267.352 66.5864 267.274 66.5888 267.195C66.672 266.578 66.2341 266.105 65.8619 265.668C65.7699 265.558 65.5247 265.331 65.5641 265.169C65.6341 264.906 66.4005 264.854 66.602 264.815C67.5304 264.626 68.507 264.508 69.4179 264.241C70.0923 264.044 70.5828 263.419 70.1449 262.732C69.7069 262.044 68.7873 261.856 68.3187 261.222C68.1864 261.082 68.1081 260.899 68.0976 260.707C68.0872 260.515 68.1454 260.325 68.2618 260.172C68.5114 259.918 68.9405 259.835 69.2252 259.629C69.777 259.231 70.1011 258.465 69.6631 257.878C69.4088 257.607 69.0821 257.414 68.7216 257.323L67.3421 256.806L67.5698 257.682C67.9642 257.288 68.2729 256.817 68.4763 256.299C68.5103 256.166 68.4914 256.025 68.4236 255.906C68.3558 255.787 68.2444 255.699 68.1128 255.66L65.4327 254.785C64.7977 254.575 64.5261 255.577 65.1612 255.782L67.8369 256.658L67.4778 256.019C67.3299 256.367 67.1124 256.681 66.8385 256.942C66.774 257.007 66.7276 257.087 66.7037 257.175C66.6798 257.263 66.6794 257.356 66.7024 257.445C66.7254 257.533 66.771 257.614 66.8348 257.679C66.8986 257.744 66.9784 257.792 67.0662 257.817L68.2749 258.255C68.3624 258.285 68.8223 258.395 68.853 258.504C68.8836 258.614 68.6647 258.762 68.5858 258.819C68.0034 259.257 67.329 259.34 67.1144 260.132C67.0454 260.452 67.0526 260.783 67.1355 261.099C67.2185 261.416 67.3748 261.708 67.5917 261.953C67.8505 262.233 68.145 262.479 68.4676 262.683C68.6515 262.81 68.8442 262.924 69.0238 263.055C69.1146 263.107 69.1972 263.172 69.269 263.248C69.3303 263.182 69.3172 263.169 69.2383 263.213C68.8292 263.349 68.4062 263.438 67.9771 263.48L66.6633 263.747C66.0108 263.878 65.1962 263.944 64.7845 264.543C64.6442 264.762 64.5764 265.02 64.5905 265.28C64.6047 265.54 64.7001 265.789 64.8634 265.992C65.0955 266.337 65.6604 266.727 65.5991 267.186L66.256 266.687L63.5627 266.193C62.9803 266.092 62.2489 266.049 62.0343 266.753C61.881 267.252 62.4372 267.974 61.9423 268.298C61.3292 268.696 60.6285 268.105 60.1906 267.725C59.1834 266.849 57.6243 265.887 56.5251 267.213C56.3368 267.436 55.9777 268.447 55.6492 268.438C55.2113 268.438 55.2113 267.392 55.2113 267.125C55.2376 266.456 54.1997 266.456 54.1778 267.125L54.1471 267.129Z" fill="white"/>
<path d="M71.5857 253.292C71.5857 253.375 71.5857 253.467 71.5857 253.555C71.6996 257.27 75.9125 258.058 77.6643 254.868C78.435 253.476 78.5839 251.336 76.9373 250.549C74.6162 249.45 71.5857 250.579 71.5857 253.292Z" fill="white"/>
<path d="M74.8659 255.244C74.8659 254.64 74.8659 254.032 74.8659 253.428C74.8659 253.117 74.8659 252.807 74.8659 252.496C74.8659 252.352 74.8659 252.203 74.8659 252.058C74.8659 251.993 74.8659 251.931 74.8659 251.866C74.8659 251.8 74.8659 251.783 74.8659 251.739C74.8659 251.695 74.8659 251.66 74.8659 251.708L74.7301 251.94L74.7652 251.901L74.5374 252.032H74.5944H74.3184C74.3997 252.082 74.4773 252.137 74.5506 252.198L74.8527 252.413C75.0454 252.553 75.2294 252.702 75.4089 252.85C75.7785 253.161 76.112 253.511 76.403 253.896L76.841 253.113C75.4089 253.262 73.9725 253.38 72.5317 253.459L72.7944 254.421C73.4207 253.984 74.0601 253.546 74.7082 253.161C75.0323 252.964 75.352 252.776 75.6804 252.588L76.1665 252.317C76.2766 252.242 76.4001 252.19 76.5301 252.163L76.0921 251.384C75.5329 252.569 74.8874 253.712 74.1608 254.802C74.0919 254.921 74.0725 255.062 74.107 255.194C74.1414 255.327 74.2269 255.441 74.3448 255.511C74.4059 255.55 74.4743 255.575 74.5457 255.586C74.6171 255.597 74.69 255.593 74.7599 255.575C74.8298 255.556 74.8951 255.524 74.9518 255.479C75.0084 255.434 75.0552 255.378 75.0892 255.314C75.8174 254.225 76.463 253.082 77.0205 251.896C77.1694 251.581 76.9986 251.069 76.5826 251.117C76.1808 251.183 75.7972 251.332 75.4571 251.555C75.0936 251.761 74.7345 251.966 74.3754 252.185C73.6791 252.623 72.9915 253.06 72.3258 253.529C72.2291 253.588 72.1537 253.676 72.1104 253.78C72.0671 253.885 72.0582 254.001 72.085 254.111C72.1155 254.22 72.1807 254.316 72.2708 254.385C72.3608 254.453 72.4709 254.491 72.5842 254.491C74.0236 254.413 75.46 254.299 76.8935 254.15C77.2395 254.115 77.5986 253.712 77.3315 253.371C76.9125 252.803 76.4191 252.294 75.8644 251.857C75.6016 251.647 75.3301 251.446 75.0498 251.253C74.8926 251.116 74.6969 251.03 74.4892 251.008C74.3571 251.009 74.2288 251.052 74.1226 251.131C74.0164 251.21 73.9378 251.32 73.898 251.446C73.8387 251.75 73.8211 252.06 73.8455 252.369V253.327C73.8455 253.971 73.8455 254.614 73.8455 255.253C73.8455 255.39 73.8999 255.521 73.9968 255.618C74.0938 255.715 74.2252 255.769 74.3622 255.769C74.4993 255.769 74.6308 255.715 74.7277 255.618C74.8246 255.521 74.879 255.39 74.879 255.253L74.8659 255.244Z" fill="#301629"/>
<path d="M189.088 183.547C189.526 184.422 189.964 185.297 190.45 186.172C190.936 187.048 191.493 187.835 192.04 188.649C192.412 189.201 193.31 188.684 192.916 188.128C192.364 187.314 191.808 186.505 191.326 185.652C190.844 184.798 190.411 183.901 189.96 183.026C189.653 182.435 188.76 182.956 189.084 183.551L189.088 183.547Z" fill="#B26D55"/>
<path d="M190.376 182.392C191.913 184.356 193.831 185.971 195.442 187.87C195.54 187.967 195.672 188.021 195.81 188.021C195.947 188.021 196.079 187.966 196.176 187.868C196.273 187.771 196.327 187.639 196.327 187.501C196.326 187.364 196.271 187.232 196.174 187.135C194.562 185.236 192.67 183.634 191.107 181.661C191.009 181.565 190.878 181.511 190.741 181.511C190.604 181.511 190.473 181.565 190.376 181.661C190.282 181.759 190.229 181.89 190.229 182.026C190.229 182.162 190.282 182.293 190.376 182.392V182.392Z" fill="#B26D55"/>
<path d="M108.398 160.446C108.477 162.473 108.801 164.483 109.362 166.432C109.417 166.688 109.528 166.928 109.686 167.137C109.897 167.349 110.162 167.501 110.452 167.574C111.602 167.908 112.793 168.082 113.991 168.091C118.786 168.29 123.587 167.825 128.254 166.708C128.657 166.635 129.042 166.487 129.389 166.27C129.742 165.989 130.026 165.629 130.216 165.22C131.073 163.642 131.579 161.899 131.701 160.109" fill="#C05929"/>
<path d="M143.179 161.64L94.7656 162.1L95.6064 158.818H142.785L143.179 161.64Z" fill="#C05929"/>
<path d="M115.178 162.288C115.188 162.97 115.303 163.646 115.519 164.292C116.08 165.434 117.376 165.5 118.585 165.443C120.385 165.36 122.22 165.412 124.006 165.18C125.793 164.949 125.5 163.43 125.443 162.183L115.178 162.288Z" fill="#F1673C"/>
<path d="M114.657 162.345C114.65 162.895 114.743 163.443 114.933 163.96C114.946 164.013 114.975 164.062 115.016 164.1C115.05 164.12 115.089 164.133 115.129 164.138C115.169 164.143 115.209 164.141 115.248 164.13C115.549 164.091 115.843 164.013 116.124 163.898C116.176 163.876 116.238 163.841 116.242 163.789C116.24 163.765 116.234 163.742 116.224 163.721C116.213 163.7 116.199 163.682 116.181 163.666L115.138 162.568" fill="white"/>
<path d="M112.896 162.673C117.63 162.577 122.364 162.537 127.098 162.529C127.195 162.529 127.287 162.49 127.355 162.422C127.424 162.354 127.462 162.262 127.462 162.165C127.462 162.069 127.424 161.977 127.355 161.909C127.287 161.841 127.195 161.802 127.098 161.802C122.366 161.802 117.632 161.85 112.896 161.947C112.8 161.947 112.707 161.985 112.639 162.053C112.571 162.121 112.533 162.214 112.533 162.31C112.533 162.406 112.571 162.499 112.639 162.567C112.707 162.635 112.8 162.673 112.896 162.673V162.673Z" fill="#FAA933"/>
<path d="M127.834 13.362C132.651 10.8546 137.845 9.4586 142.89 7.55939C143.547 7.31434 143.263 6.24658 142.601 6.50039C137.46 8.43461 132.17 9.86119 127.273 12.4124C126.647 12.7406 127.199 13.6859 127.825 13.362H127.834Z" fill="#B26D55"/>
<path d="M127.203 16.6179L142.636 10.4914C143.284 10.2332 143 9.17861 142.343 9.43242L126.914 15.5589C126.262 15.8171 126.546 16.8717 127.203 16.6179Z" fill="#B26D55"/>
<path d="M121.072 20.2499L128.898 18.2763C129.691 18.0794 130.794 18.0444 131.027 18.8233C131.224 19.4797 130.589 20.053 129.98 20.4075C127.427 21.961 125.767 22.5211 122.916 23.4138C120.862 24.0527 116.719 24.5778 115.546 24.1927" fill="#EE9E7B"/>
<path d="M121.221 21.2434L128.526 19.5893C128.754 19.5411 130.843 19.2042 130.278 19.9612C129.998 20.3463 129.363 20.5651 128.964 20.7708C128.452 21.0246 127.935 21.2566 127.409 21.471C123.441 23.0917 119.151 23.7703 114.876 23.4533C114.17 23.3965 114.175 24.4948 114.876 24.5517C118.912 24.8443 122.965 24.276 126.766 22.8845C127.67 22.5607 128.556 22.1882 129.42 21.7686C130.133 21.4185 131.057 21.0334 131.399 20.2588C132.073 18.7491 130.041 18.1977 128.955 18.3771C126.266 18.8147 123.595 19.5849 120.932 20.1844C120.245 20.342 120.534 21.401 121.226 21.2434H121.221Z" fill="#B26D55"/>
</svg>
