<svg width="154" height="328" viewBox="0 0 154 328" fill="none" xmlns="http://www.w3.org/2000/svg">
<path d="M17.2383 38.9797C19.7565 35.3257 21.2367 31.0721 22.7038 26.8842C22.9757 25.9476 23.3971 25.061 23.9519 24.2586C24.2347 23.8595 24.6078 23.5326 25.0407 23.3045C25.4737 23.0764 25.9544 22.9535 26.4437 22.9458C26.7868 22.9551 27.1214 23.0541 27.4142 23.233C27.707 23.412 27.9477 23.6645 28.1123 23.9654C28.2743 24.3687 28.3546 24.8 28.3487 25.2345C28.5736 29.488 28.6787 33.743 28.6641 37.9994C28.6641 38.5683 28.5984 39.2422 28.1035 39.5223C27.7777 39.6625 27.4155 39.6947 27.07 39.6142L17.1814 38.332" fill="#39B55D"/>
<path d="M22.5899 35.702C22.9436 33.3942 23.6326 31.1504 24.6351 29.0416C24.7343 28.8635 24.761 28.6541 24.7096 28.4568C24.6582 28.2596 24.5327 28.0897 24.3592 27.9826C24.1812 27.8805 23.9701 27.8526 23.7717 27.905C23.5733 27.9575 23.4036 28.086 23.2994 28.2627C22.2299 30.4859 21.4922 32.8537 21.1097 35.2906C21.0616 35.4888 21.091 35.6979 21.192 35.8752C21.2929 36.0524 21.4577 36.1846 21.6527 36.2446C21.8508 36.2982 22.062 36.2712 22.2401 36.1695C22.4183 36.0678 22.5488 35.8997 22.6031 35.702H22.5899Z" fill="#153A23"/>
<path d="M25.6686 36.4635C25.9197 34.0596 26.2759 31.6718 26.7372 29.2999C26.7877 29.1022 26.7598 28.8926 26.6595 28.7149C26.5591 28.5372 26.394 28.405 26.1985 28.346C26 28.2934 25.7887 28.3208 25.6102 28.4223C25.4316 28.5237 25.3001 28.6912 25.2438 28.8886C24.7591 31.3946 24.384 33.9196 24.1183 36.4635C24.1194 36.6686 24.2015 36.8649 24.3466 37.01C24.4917 37.155 24.6882 37.2369 24.8935 37.2381C25.0976 37.2336 25.2922 37.1506 25.4366 37.0063C25.581 36.862 25.6641 36.6676 25.6686 36.4635V36.4635Z" fill="#153A23"/>
<path d="M28.6072 35.3738V25.659C28.5925 25.4642 28.5047 25.2821 28.3614 25.1493C28.218 25.0164 28.0297 24.9426 27.8342 24.9426C27.6387 24.9426 27.4505 25.0164 27.3071 25.1493C27.1638 25.2821 27.076 25.4642 27.0613 25.659V35.3738C27.076 35.5687 27.1638 35.7507 27.3071 35.8836C27.4505 36.0164 27.6387 36.0902 27.8342 36.0902C28.0297 36.0902 28.218 36.0164 28.3614 35.8836C28.5047 35.7507 28.5925 35.5687 28.6072 35.3738V35.3738Z" fill="#153A23"/>
<path d="M69.1337 310.059C69.2983 314.409 70.4627 318.663 72.5364 322.491L66.0156 323.97C65.2448 322.08 64.5558 320.157 63.9485 318.203C63.591 319.893 62.8771 321.488 61.8544 322.881C60.8317 324.274 59.5237 325.433 58.0175 326.282C56.5113 327.13 54.8415 327.648 53.1193 327.801C51.397 327.954 49.662 327.739 48.0296 327.169C47.5915 327.045 47.1932 326.81 46.8735 326.486C46.1859 325.677 46.6194 321.874 47.4603 321.235C48.3011 320.596 49.396 320.408 50.4295 320.15C56.6963 318.601 61.0582 313.525 62.5515 303.21L69.1337 310.059Z" fill="#32142A"/>
<path d="M120.123 127.45C119.996 125.681 120.017 123.904 120.184 122.138C120.193 121.719 120.301 121.308 120.499 120.939C121.41 119.504 125.032 119.705 126.459 119.56C129.201 119.269 131.948 119.105 134.701 119.07C138.944 119 143.186 119.207 147.402 119.692C149.057 119.884 151.343 119.757 152.538 121.166C153.528 122.357 153.511 123.114 151.79 123.63C148.172 124.72 143.907 124.234 140.149 124.173C137.294 124.125 131.194 122.462 129.477 125.486L127.524 128.938" fill="#B26D55"/>
<path d="M40.7117 101.137V95.5927C40.7117 91.7724 17.5536 94.2318 14.7333 94.5381C13.4195 94.6825 10.2226 95.2908 10.481 97.4482C10.77 99.8725 17.5142 99.0673 19.5637 98.9754C23.1723 98.8179 28.4101 98.2884 31.6771 100.021C32.8814 100.66 33.7397 101.57 33.1573 102.809" fill="#B26D55"/>
<path d="M56.0001 160.511C44.6138 156.787 36.1309 146.902 31.2742 135.979C26.4175 125.057 24.7052 113.036 23.0542 101.194C29.9037 101.284 36.7453 100.698 43.4795 99.4436C48.507 117.946 54.1389 123.376 66.4142 126.085C73.9598 127.752 81.7989 126.387 89.524 126.383C97.2492 126.378 105.728 128.186 110.396 134.351C110.469 132.181 110.546 130.007 110.628 127.831C119.074 126.57 127.613 126.037 136.151 126.238C137.964 136.818 138.542 147.572 137.872 158.284C137.592 162.748 137.023 167.404 134.487 171.088C132.245 174.349 128.675 176.484 124.966 177.876C120.268 179.601 115.252 180.289 110.263 179.893C105.274 179.497 100.429 178.027 96.0624 175.583L56.5037 168.878L56.0001 160.511Z" fill="#F7BC28"/>
<path d="M45.1655 241.363L50.631 311.813H75.6108V246.833L45.1655 241.363Z" fill="#153A23"/>
<path d="M66.0857 259.152C59.5604 252.728 51.9053 247.564 45.1655 241.363C39.8489 236.475 35.1367 230.979 30.4421 225.496L12.2852 204.316C6.50887 197.572 0.439082 190.128 0.0230435 181.263C-0.528755 170.012 8.90878 159.96 19.8046 157.094C30.7005 154.227 42.4108 157.291 52.387 162.537C62.3632 167.784 71.0606 175.092 80.3273 181.503C81.1112 182.042 81.9783 182.602 82.9243 182.527C83.8702 182.453 84.606 181.792 85.2935 181.166C89.3619 177.447 102.106 173.727 106.174 170.012C106.42 171.942 107.024 175.14 107.186 175.924C107.859 178.917 108.278 181.962 108.438 185.026C108.876 195.804 108.723 210.845 99.8987 218.542C95.8259 222.104 90.9998 223.246 85.7796 223.89C82.8279 224.253 77.6077 224.227 74.4634 222.367L86.6905 241.735L66.0857 259.152Z" fill="#153A23"/>
<path d="M58.0233 117.906C57.7025 111.663 57.9517 105.405 58.7678 99.2072C59.7663 91.5841 62.1969 84.2017 67.7148 78.6398C73.0708 73.2441 82.6309 70.5353 89.2569 75.5153C94.0742 79.1343 95.7252 86.3548 96.0142 92.0305C96.3421 98.4215 96.2514 104.827 95.7427 111.206C95.7131 112.209 95.5209 113.201 95.1734 114.143C93.9954 116.904 90.6583 117.915 87.7285 118.519C80.6659 119.979 73.5198 121.002 66.331 121.582L58.0233 117.906Z" fill="#B26D55"/>
<path d="M94.9151 109.193L98.6945 108.349C99.3501 108.207 99.9362 107.842 100.354 107.317C100.771 106.793 100.994 106.14 100.985 105.469C100.959 104.249 100.665 102.498 99.9776 101.509C99.128 100.288 95.5195 100.861 94.7969 101.443L94.9151 109.193Z" fill="#B26D55"/>
<path d="M59.6436 110.883C57.6204 111.675 54.8614 112.257 53.6746 110.445C53.3899 109.965 53.2108 109.429 53.1491 108.874C52.8994 107.299 53.0221 105.561 54.0249 104.305C55.0278 103.05 58.8422 102.581 60.0158 103.653L59.6436 110.883Z" fill="#B26D55"/>
<path d="M82.6441 105.771C96.7588 105.334 97.7441 108.66 97.7441 108.66C95.7427 111.163 96.8025 115.053 99.0579 117.35C101.313 119.648 104.383 120.851 107.19 122.387C107.996 122.825 108.898 123.521 108.767 124.426C108.666 125.144 107.961 125.595 107.326 125.945L97.4857 131.363C96.8745 131.683 96.3479 132.143 95.9486 132.706C94.9588 134.163 95.6245 135.087 96.3865 135.769C99.6623 138.727 105.706 139.143 106.669 143.454C107.431 146.867 104.177 149.716 101.37 151.807C98.5631 153.899 95.5238 157.159 96.8288 160.406C97.8755 163.032 101.147 163.863 103.135 165.868C107.339 170.108 104.063 178.3 98.4973 180.357C97.0262 180.878 95.7858 181.901 94.9939 183.245C93.2421 186.282 95.8303 187.691 96.658 189.809C97.5865 192.203 96.1807 194.807 94.8275 196.981L92.3312 200.994C92.0542 201.427 91.6561 201.769 91.1865 201.978C90.7169 202.187 90.1962 202.253 89.6891 202.17C89.1819 202.086 88.7105 201.855 88.3332 201.506C87.9559 201.157 87.6893 200.705 87.5665 200.207C87.335 199.268 87.0078 198.356 86.5899 197.485C84.8382 193.848 80.6471 190.991 76.6006 192.938C76.0124 193.239 75.3583 193.389 74.6976 193.373C74.0369 193.358 73.3905 193.178 72.8168 192.85C70.3162 191.31 72.195 188.645 71.8052 186.391C71.3673 183.906 68.4243 182.786 65.9062 182.562C62.9458 182.295 59.5737 182.479 57.7957 179.665C56.9371 178.197 56.6946 176.45 57.1212 174.804C58.2248 169.898 62.7399 166.887 63.6114 161.846C63.8838 160.465 63.6752 159.032 63.0202 157.785C60.0642 152.459 52.1638 156.818 49.2121 151.112C48.5638 149.816 48.3606 148.342 48.634 146.919C49.3172 143.086 52.1375 140.465 54.8965 137.983L62.3414 131.231C62.8989 130.795 63.3584 130.246 63.6902 129.621C64.5179 127.744 62.8538 125.682 61.0626 124.685C58.7635 123.42 55.8906 122.82 55.0848 119.832C54.6469 118.221 57.7956 110.97 58.6628 109.548C58.6496 109.557 64.461 106.34 82.6441 105.771Z" fill="#32142A"/>
<path d="M65.709 97.8945C65.4435 98.0333 65.1425 98.0893 64.8447 98.0552C64.547 98.0212 64.2664 97.8987 64.0391 97.7036C63.8118 97.5085 63.6482 97.2498 63.5696 96.9609C63.491 96.6719 63.501 96.3661 63.5982 96.0828C63.6464 95.9515 63.7033 95.8246 63.7602 95.7021C64.3375 94.6232 65.1113 93.6614 66.0419 92.8664C67.4013 91.5895 68.8946 90.4627 70.4957 89.5056C70.8318 89.2773 71.2207 89.1387 71.6256 89.103C71.9339 89.1157 72.2343 89.2041 72.5001 89.3606C72.766 89.5171 72.9891 89.7368 73.1496 90.0001C73.467 90.5313 73.6906 91.113 73.8108 91.7199C73.9988 92.213 74.0203 92.7539 73.8722 93.2603C73.3247 94.5731 71.792 95.072 70.592 95.5533C68.9016 96.236 67.3206 97.0631 65.709 97.8945Z" fill="#32142A"/>
<path d="M86.2394 88.7048C86.0825 88.6458 85.9141 88.6234 85.7472 88.6392C85.5803 88.655 85.4191 88.7086 85.276 88.7959C85.1329 88.8832 85.0116 89.0019 84.9213 89.1431C84.831 89.2843 84.7741 89.4442 84.7548 89.6106C84.4132 91.6192 83.7695 92.6039 85.5081 93.886C87.4043 95.282 90.3473 96.1441 92.7034 96.271C92.9173 96.308 93.1374 96.2644 93.3209 96.1485C93.4652 96.0092 93.5591 95.8261 93.588 95.6277C93.934 94.3149 92.1428 92.1531 90.6626 91.2517C88.4466 89.8601 88.6481 89.7025 86.2394 88.7048Z" fill="#32142A"/>
<path d="M81.3083 100.332C82.5652 102.249 84.479 104.292 83.8966 106.507C83.4586 108.135 81.4967 108.717 79.8369 109.023C78.4749 109.272 76.675 109.272 76.2852 107.96C76.1787 107.48 76.1998 106.98 76.3465 106.511C76.7582 104.696 77.2355 102.895 77.7786 101.107C77.7786 101.107 79.2588 97.2163 81.3083 100.332Z" fill="#C05929"/>
<path d="M72.0942 113.425C70.4914 113.998 73.246 116.698 74.7875 117.416C76.3291 118.134 78.1246 118.125 79.7975 117.801C83.1258 117.162 86.5067 114.869 86.9096 111.504C86.9096 111.504 81.6587 109.994 72.0942 113.425Z" fill="#B26D55"/>
<path d="M77.2794 115.307C78.232 115.516 79.2219 115.482 80.1579 115.208C81.0939 114.934 81.9459 114.429 82.6353 113.74C83.1258 113.241 82.3594 112.476 81.869 112.974C81.3165 113.53 80.6335 113.939 79.8824 114.164C79.1312 114.389 78.3357 114.422 77.5684 114.261C77.4292 114.227 77.2822 114.247 77.1575 114.318C77.0329 114.389 76.9402 114.505 76.8984 114.642C76.862 114.78 76.8816 114.928 76.9528 115.052C77.0241 115.176 77.1413 115.268 77.2794 115.307V115.307Z" fill="#32142A"/>
<path d="M95.4053 145.182L95.7819 143.37C95.8069 143.279 95.7946 143.182 95.7478 143.1C95.701 143.018 95.6235 142.958 95.5323 142.933C95.4411 142.908 95.3437 142.92 95.2616 142.967C95.1795 143.014 95.1193 143.091 95.0944 143.182L94.7177 144.994C94.6928 145.085 94.705 145.182 94.7518 145.264C94.7987 145.346 94.8762 145.407 94.9673 145.432C95.0585 145.456 95.1559 145.444 95.238 145.397C95.3201 145.351 95.3803 145.273 95.4053 145.182Z" fill="#BA6542"/>
<path d="M79.0616 139.541C78.8811 140.773 79.1584 142.028 79.8411 143.068C79.891 143.148 79.9697 143.206 80.061 143.23C80.1523 143.253 80.2491 143.241 80.3316 143.195C80.4113 143.146 80.469 143.068 80.4926 142.978C80.5163 142.887 80.5041 142.791 80.4586 142.71C79.8705 141.834 79.6186 140.776 79.7491 139.73C79.7615 139.684 79.7648 139.637 79.759 139.591C79.7531 139.545 79.7382 139.5 79.715 139.459C79.6918 139.418 79.6609 139.383 79.6239 139.354C79.5869 139.325 79.5447 139.304 79.4995 139.292C79.4544 139.28 79.4072 139.276 79.3608 139.282C79.3144 139.288 79.2695 139.303 79.2288 139.326C79.1882 139.349 79.1525 139.38 79.1238 139.417C79.0951 139.454 79.0739 139.496 79.0616 139.541V139.541Z" fill="#BA6542"/>
<path d="M71.4154 160.328V162.87C71.4165 162.964 71.4541 163.054 71.5203 163.121C71.5864 163.188 71.676 163.227 71.7701 163.229C71.8647 163.227 71.9547 163.188 72.0216 163.121C72.0885 163.055 72.127 162.965 72.1292 162.87V160.328C72.127 160.234 72.0883 160.144 72.0213 160.078C71.9543 160.012 71.8643 159.974 71.7701 159.973C71.6764 159.974 71.5868 160.012 71.5206 160.078C71.4543 160.144 71.4165 160.234 71.4154 160.328V160.328Z" fill="#BA6542"/>
<path d="M61.229 175.119C61.0629 174.071 61.2991 172.998 61.8903 172.117C61.9139 172.077 61.9294 172.032 61.9358 171.986C61.9423 171.94 61.9395 171.893 61.9277 171.848C61.9159 171.802 61.8953 171.76 61.8671 171.723C61.8389 171.686 61.8036 171.655 61.7633 171.631C61.6818 171.584 61.5852 171.572 61.4943 171.595C61.4034 171.619 61.3255 171.677 61.2772 171.758C60.5875 172.804 60.3243 174.073 60.5414 175.307C60.5536 175.352 60.5746 175.395 60.6032 175.432C60.6319 175.469 60.6676 175.5 60.7083 175.523C60.7491 175.546 60.794 175.561 60.8405 175.567C60.887 175.572 60.9342 175.569 60.9794 175.556C61.0689 175.529 61.1446 175.468 61.191 175.387C61.2374 175.306 61.251 175.21 61.229 175.119Z" fill="#BA6542"/>
<path d="M73.9554 181.04V182.492C73.9499 182.543 73.955 182.593 73.9704 182.641C73.9857 182.689 74.0111 182.734 74.0448 182.771C74.0785 182.809 74.1197 182.839 74.1658 182.86C74.2119 182.88 74.2618 182.891 74.3123 182.891C74.3628 182.891 74.4128 182.88 74.4589 182.86C74.505 182.839 74.5462 182.809 74.5799 182.771C74.6136 182.734 74.6389 182.689 74.6543 182.641C74.6697 182.593 74.6748 182.543 74.6693 182.492V181.04C74.6681 180.946 74.6304 180.856 74.5641 180.79C74.4978 180.724 74.4083 180.686 74.3145 180.685C74.2207 180.687 74.1313 180.725 74.0645 180.791C73.9978 180.857 73.9588 180.946 73.9554 181.04V181.04Z" fill="#BA6542"/>
<path d="M93.5137 194.168C93.6714 193.502 93.691 192.811 93.5712 192.137C93.4514 191.464 93.1949 190.822 92.8174 190.251C92.5678 189.87 91.9415 190.225 92.2043 190.61C92.5322 191.1 92.7566 191.651 92.8635 192.231C92.9705 192.81 92.9578 193.405 92.8262 193.979C92.7211 194.417 93.4086 194.614 93.5137 194.168Z" fill="#BA6542"/>
<path d="M93.9516 173.53C94.0859 174.149 94.4122 174.709 94.8841 175.131C95.356 175.553 95.9493 175.815 96.5793 175.88C96.6733 175.88 96.7636 175.843 96.8301 175.776C96.8966 175.71 96.934 175.62 96.934 175.526C96.9318 175.432 96.8939 175.342 96.8279 175.276C96.762 175.209 96.673 175.17 96.5793 175.167C96.5574 175.167 96.4785 175.167 96.5442 175.167H96.4479L96.2596 175.123L96.0712 175.062L95.9836 175.027C96.0493 175.053 95.9837 175.027 95.9486 175.027C95.8292 174.973 95.7149 174.908 95.607 174.834L95.5282 174.782C95.5282 174.782 95.4494 174.72 95.4975 174.76C95.4406 174.716 95.3881 174.668 95.3355 174.62C95.2398 174.531 95.1505 174.436 95.0684 174.335C95.0684 174.335 95.0684 174.335 95.0684 174.335L95.0421 174.296L94.9852 174.217L94.8801 174.051C94.8494 173.994 94.8188 173.937 94.7925 173.88C94.7662 173.823 94.7487 173.784 94.7618 173.819C94.775 173.854 94.7618 173.766 94.7399 173.758C94.6922 173.63 94.6556 173.498 94.6304 173.364C94.6039 173.274 94.5434 173.197 94.4618 173.151C94.3801 173.104 94.2836 173.091 94.1925 173.114C94.103 173.142 94.0273 173.202 93.9809 173.284C93.9345 173.365 93.9209 173.461 93.9429 173.552L93.9516 173.53Z" fill="#BA6542"/>
<path d="M83.7653 169.145C83.5601 169.76 83.5168 170.417 83.6395 171.053C83.7623 171.689 84.0469 172.283 84.466 172.778C84.5328 172.844 84.6234 172.882 84.7178 172.882C84.8123 172.882 84.9029 172.844 84.9696 172.778C85.0364 172.711 85.0739 172.62 85.0739 172.526C85.0739 172.432 85.0364 172.341 84.9696 172.274C84.6396 171.869 84.4189 171.386 84.3284 170.871C84.238 170.356 84.2808 169.827 84.4529 169.334C84.4655 169.288 84.469 169.241 84.4633 169.195C84.4575 169.148 84.4426 169.103 84.4194 169.063C84.3962 169.022 84.3651 168.986 84.328 168.958C84.2909 168.929 84.2485 168.908 84.2033 168.896C84.1122 168.874 84.0162 168.888 83.9348 168.934C83.8534 168.98 83.7928 169.056 83.7653 169.145V169.145Z" fill="#BA6542"/>
<path d="M87.7591 162.043C87.6639 161.599 87.6688 161.139 87.7733 160.697C87.8778 160.255 88.0794 159.842 88.3634 159.487C88.4285 159.42 88.4648 159.33 88.4648 159.236C88.4648 159.142 88.4285 159.052 88.3634 158.984C88.3304 158.951 88.2912 158.925 88.248 158.907C88.2048 158.889 88.1584 158.879 88.1116 158.879C88.0648 158.879 88.0184 158.889 87.9752 158.907C87.932 158.925 87.8928 158.951 87.8598 158.984C87.4904 159.431 87.2276 159.956 87.091 160.519C86.9544 161.082 86.9478 161.669 87.0715 162.236C87.0798 162.285 87.0985 162.333 87.1263 162.375C87.1542 162.417 87.1906 162.452 87.2331 162.479C87.2757 162.506 87.3235 162.524 87.3733 162.532C87.4232 162.539 87.4741 162.536 87.5226 162.522C87.5712 162.508 87.6163 162.485 87.6551 162.453C87.6939 162.42 87.7255 162.38 87.7478 162.335C87.7701 162.29 87.7826 162.241 87.7845 162.19C87.7865 162.14 87.7778 162.09 87.7591 162.043V162.043Z" fill="#BA6542"/>
<path d="M85.5081 189.1L85.9724 185.844C85.9933 185.754 85.9792 185.658 85.933 185.577C85.8867 185.496 85.8117 185.435 85.7227 185.407C85.6316 185.383 85.5345 185.395 85.4526 185.442C85.3707 185.489 85.3104 185.566 85.2848 185.656L84.8206 188.916C84.7986 189.007 84.8122 189.103 84.8586 189.185C84.905 189.266 84.9807 189.327 85.0702 189.354C85.1614 189.378 85.2584 189.366 85.3403 189.319C85.4223 189.272 85.4826 189.195 85.5081 189.105V189.1Z" fill="#BA6542"/>
<path d="M58.2379 144.075L58.6057 141.887C58.6277 141.796 58.6141 141.7 58.5677 141.619C58.5213 141.537 58.4457 141.477 58.3561 141.449C58.265 141.426 58.1685 141.439 58.0868 141.486C58.0052 141.532 57.9448 141.609 57.9182 141.699L57.5503 143.887C57.5272 143.978 57.5403 144.074 57.5869 144.156C57.6334 144.237 57.7098 144.298 57.7999 144.324C57.8911 144.349 57.9881 144.336 58.0701 144.289C58.152 144.243 58.2123 144.166 58.2379 144.075Z" fill="#BA6542"/>
<path d="M71.3891 145.186L72.1117 143.37C72.1243 143.325 72.1279 143.278 72.1221 143.232C72.1164 143.185 72.1015 143.14 72.0783 143.1C72.0551 143.059 72.024 143.023 71.9869 142.995C71.9498 142.966 71.9074 142.945 71.8621 142.933C71.7716 142.91 71.6756 142.922 71.594 142.968C71.5125 143.013 71.4516 143.089 71.4242 143.178L70.7015 144.998C70.6889 145.043 70.6854 145.091 70.6912 145.137C70.6969 145.184 70.7118 145.228 70.735 145.269C70.7582 145.31 70.7893 145.346 70.8264 145.374C70.8635 145.403 70.9059 145.424 70.9512 145.436C71.0422 145.457 71.1377 145.443 71.2188 145.397C71.2999 145.35 71.3607 145.275 71.3891 145.186V145.186Z" fill="#BA6542"/>
<path d="M71.7657 131.647V128.746C71.756 128.658 71.7142 128.577 71.6483 128.518C71.5825 128.459 71.4972 128.426 71.4088 128.426C71.3204 128.426 71.2351 128.459 71.1693 128.518C71.1034 128.577 71.0616 128.658 71.0519 128.746V131.647C71.0616 131.735 71.1034 131.816 71.1693 131.875C71.2351 131.934 71.3204 131.966 71.4088 131.966C71.4972 131.966 71.5825 131.934 71.6483 131.875C71.7142 131.816 71.756 131.735 71.7657 131.647V131.647Z" fill="#BA6542"/>
<path d="M94.959 127.752C94.9108 127.875 94.959 127.752 94.9853 127.708C95.0075 127.666 95.0323 127.625 95.0597 127.586C95.0597 127.555 95.121 127.472 95.1517 127.459L95.1254 127.494L95.1517 127.455L95.1998 127.402C95.3576 127.217 95.5304 127.046 95.7166 126.89L95.8524 126.776C95.7823 126.833 95.8524 126.776 95.8786 126.776L95.9531 126.724C96.0461 126.656 96.1426 126.593 96.2421 126.536L96.3779 126.466C96.3779 126.466 96.448 126.444 96.4611 126.426C96.4742 126.409 96.391 126.453 96.4611 126.426L96.5925 126.382H96.645C96.737 126.356 96.5793 126.382 96.645 126.382C96.7396 126.38 96.8296 126.342 96.8965 126.275C96.9634 126.208 97.0019 126.118 97.0042 126.024C97.003 125.929 96.9647 125.839 96.8974 125.773C96.8302 125.706 96.7395 125.669 96.645 125.669C96.1181 125.769 95.6323 126.022 95.248 126.396C94.8345 126.71 94.5038 127.12 94.2845 127.59C94.2719 127.635 94.2684 127.683 94.2742 127.729C94.2799 127.776 94.2948 127.82 94.318 127.861C94.3412 127.902 94.3723 127.937 94.4094 127.966C94.4465 127.995 94.4889 128.016 94.5342 128.028C94.6252 128.05 94.7212 128.036 94.8026 127.99C94.884 127.944 94.9446 127.868 94.9721 127.778L94.959 127.752Z" fill="#BA6542"/>
<path d="M60.2743 113.801C59.7658 115.26 59.6882 116.834 60.0509 118.335C60.156 118.773 60.8479 118.593 60.7384 118.147C60.4106 116.77 60.4882 115.328 60.9618 113.994C61.115 113.556 60.4231 113.373 60.2743 113.801Z" fill="#BA6542"/>
<path d="M67.0403 121.118V117.854C67.0306 117.766 66.9888 117.685 66.9229 117.626C66.8571 117.567 66.7718 117.534 66.6834 117.534C66.595 117.534 66.5098 117.567 66.4439 117.626C66.3781 117.685 66.3363 117.766 66.3265 117.854V121.118C66.3363 121.206 66.3781 121.287 66.4439 121.346C66.5098 121.405 66.595 121.438 66.6834 121.438C66.7718 121.438 66.8571 121.405 66.9229 121.346C66.9888 121.287 67.0306 121.206 67.0403 121.118V121.118Z" fill="#BA6542"/>
<path d="M68.5163 109.657C68.4919 110.001 68.5604 110.344 68.7144 110.652C68.8685 110.96 69.1026 111.221 69.3921 111.408C69.4324 111.431 69.4769 111.447 69.5231 111.453C69.5693 111.46 69.6164 111.457 69.6615 111.445C69.7067 111.433 69.7491 111.413 69.7863 111.384C69.8235 111.356 69.8547 111.321 69.8782 111.281C69.9237 111.199 69.9359 111.103 69.9122 111.012C69.8886 110.922 69.8309 110.844 69.7512 110.795L69.6637 110.734C69.6199 110.703 69.6637 110.734 69.6637 110.734C69.6637 110.734 69.633 110.708 69.6242 110.699C69.6155 110.69 69.5279 110.611 69.4841 110.563L69.4491 110.524C69.4491 110.524 69.4009 110.462 69.4491 110.524C69.4972 110.585 69.4491 110.524 69.4491 110.524L69.4184 110.48C69.3792 110.423 69.3441 110.363 69.3133 110.301V110.261C69.287 110.213 69.3133 110.261 69.3133 110.261C69.3036 110.23 69.2919 110.199 69.2783 110.169C69.2562 110.105 69.2386 110.039 69.2257 109.972C69.2278 109.959 69.2278 109.946 69.2257 109.933C69.2257 109.933 69.2257 109.85 69.2257 109.933C69.2257 110.016 69.2257 109.933 69.2257 109.933V109.889C69.2213 109.818 69.2213 109.746 69.2257 109.675C69.2257 109.581 69.1884 109.491 69.1218 109.424C69.0553 109.358 68.9651 109.32 68.871 109.32C68.7773 109.321 68.6877 109.359 68.6214 109.425C68.5552 109.492 68.5174 109.581 68.5163 109.675V109.657Z" fill="#BA6542"/>
<path d="M84.168 126.024C84.7619 127.085 85.1288 128.258 85.2454 129.468C85.2551 129.556 85.2969 129.637 85.3628 129.696C85.4287 129.755 85.5139 129.787 85.6023 129.787C85.6907 129.787 85.776 129.755 85.8418 129.696C85.9077 129.637 85.9495 129.556 85.9593 129.468C85.8391 128.131 85.4392 126.834 84.7855 125.661C84.5622 125.262 83.9447 125.621 84.168 126.024V126.024Z" fill="#BA6542"/>
<path d="M88.5474 116.401V119.665C88.5571 119.753 88.5989 119.834 88.6648 119.893C88.7306 119.952 88.8159 119.985 88.9043 119.985C88.9927 119.985 89.078 119.952 89.1438 119.893C89.2097 119.834 89.2515 119.753 89.2612 119.665V116.401C89.2515 116.313 89.2097 116.232 89.1438 116.173C89.078 116.114 88.9927 116.082 88.9043 116.082C88.8159 116.082 88.7306 116.114 88.6648 116.173C88.5989 116.232 88.5571 116.313 88.5474 116.401V116.401Z" fill="#BA6542"/>
<path d="M86.4629 108.471C86.5299 108.467 86.5972 108.467 86.6643 108.471H86.6293C86.6293 108.471 86.6687 108.471 86.6818 108.471L86.7782 108.493C86.8439 108.493 86.9008 108.533 86.9621 108.554C86.857 108.519 86.9621 108.554 86.9884 108.554L87.076 108.603L87.1548 108.651L87.1986 108.681C87.1986 108.681 87.2555 108.725 87.1986 108.681C87.1416 108.638 87.1986 108.681 87.1986 108.681L87.238 108.712L87.3037 108.778L87.3738 108.852C87.3816 108.866 87.392 108.878 87.4044 108.887C87.4307 108.922 87.3519 108.813 87.4044 108.887C87.4436 108.941 87.4787 108.998 87.5095 109.058C87.5579 109.139 87.6366 109.199 87.7285 109.222C87.8205 109.246 87.9181 109.233 88 109.185C88.0797 109.136 88.1374 109.058 88.161 108.967C88.1847 108.877 88.1725 108.781 88.127 108.699C87.9627 108.401 87.7201 108.153 87.4253 107.983C87.1304 107.812 86.7946 107.725 86.4541 107.732C86.3604 107.733 86.2708 107.771 86.2045 107.837C86.1382 107.903 86.1005 107.993 86.0994 108.086C86.1015 108.18 86.1395 108.269 86.2054 108.336C86.2714 108.403 86.3603 108.442 86.4541 108.445L86.4629 108.471Z" fill="#BA6542"/>
<path d="M95.0422 111.697L95.0159 111.57C95.0178 111.549 95.0178 111.529 95.0159 111.508C95.0159 111.552 95.0159 111.552 95.0159 111.508V111.285C95.0115 111.202 95.0115 111.119 95.0159 111.036C95.0137 111.005 95.0137 110.975 95.0159 110.944C95.0159 111.027 95.0159 110.896 95.0159 110.883C95.0492 110.734 95.0931 110.588 95.1473 110.445V110.414C95.1473 110.379 95.1867 110.34 95.2042 110.305C95.2217 110.27 95.2874 110.156 95.3312 110.086C95.3549 110.046 95.3703 110.002 95.3768 109.955C95.3832 109.909 95.3804 109.862 95.3686 109.817C95.3568 109.772 95.3362 109.73 95.308 109.692C95.2798 109.655 95.2445 109.624 95.2042 109.601C95.1227 109.554 95.0261 109.541 94.9352 109.565C94.8444 109.589 94.7664 109.647 94.7181 109.727C94.5096 110.047 94.3679 110.406 94.3017 110.782C94.2354 111.158 94.246 111.544 94.3327 111.915C94.3583 112.006 94.4186 112.083 94.5005 112.13C94.5825 112.176 94.6795 112.189 94.7707 112.165C94.8608 112.138 94.9372 112.078 94.9837 111.996C95.0303 111.915 95.0434 111.818 95.0203 111.727L95.0422 111.697Z" fill="#BA6542"/>
<path d="M76.1013 123.915C76.1693 124.754 76.3264 125.585 76.5699 126.391C76.5823 126.436 76.6034 126.479 76.6321 126.516C76.6608 126.553 76.6965 126.584 76.7372 126.607C76.7778 126.63 76.8227 126.645 76.8691 126.651C76.9156 126.657 76.9627 126.653 77.0079 126.641C77.053 126.628 77.0953 126.607 77.1322 126.579C77.1692 126.55 77.2002 126.514 77.2234 126.474C77.2466 126.433 77.2615 126.388 77.2673 126.342C77.2732 126.295 77.2698 126.248 77.2575 126.203C77.0293 125.458 76.8825 124.691 76.8195 123.915C76.8162 123.821 76.7772 123.732 76.7104 123.666C76.6437 123.6 76.5542 123.562 76.4604 123.56C76.3667 123.561 76.2771 123.599 76.2109 123.665C76.1446 123.731 76.1068 123.821 76.1057 123.915H76.1013Z" fill="#BA6542"/>
<path d="M66.1383 138.307C66.2508 139.174 66.0471 140.051 65.5646 140.78C65.518 140.861 65.5051 140.958 65.5289 141.049C65.5526 141.139 65.611 141.217 65.6916 141.266C65.7318 141.289 65.7763 141.305 65.8225 141.311C65.8688 141.317 65.9158 141.315 65.961 141.303C66.0061 141.291 66.0485 141.271 66.0857 141.242C66.1229 141.214 66.1541 141.179 66.1777 141.139C66.7308 140.304 66.9698 139.301 66.8521 138.307C66.8499 138.214 66.8118 138.125 66.7458 138.059C66.6797 137.993 66.5908 137.955 66.4974 137.953C66.4029 137.953 66.3122 137.99 66.245 138.056C66.1778 138.123 66.1394 138.213 66.1383 138.307V138.307Z" fill="#BA6542"/>
<path d="M82.8237 151.282C82.8485 151.18 82.8807 151.079 82.92 150.98C82.9463 150.902 82.8937 151.033 82.92 150.98L82.955 150.906L83.0295 150.77C83.0558 150.722 83.0864 150.679 83.1127 150.635L83.1609 150.569C83.2047 150.503 83.1215 150.617 83.1609 150.569C83.2307 150.483 83.3053 150.402 83.3842 150.324L83.5025 150.219L83.5331 150.197L83.5988 150.153C83.6844 150.09 83.7753 150.035 83.8703 149.987L83.9404 149.952H83.9798H84.0236L84.0981 149.926C84.2038 149.891 84.3121 149.865 84.4221 149.847C84.467 149.834 84.5089 149.813 84.5455 149.784C84.5822 149.755 84.6127 149.72 84.6355 149.679C84.6583 149.638 84.6728 149.594 84.6783 149.547C84.6837 149.501 84.68 149.454 84.6674 149.409C84.6408 149.319 84.5804 149.243 84.4987 149.197C84.4171 149.15 84.3205 149.137 84.2294 149.16C83.7296 149.257 83.2677 149.494 82.8977 149.843C82.5278 150.193 82.2651 150.64 82.1405 151.134C82.1217 151.18 82.1131 151.231 82.115 151.281C82.117 151.331 82.1295 151.381 82.1518 151.426C82.1741 151.471 82.2057 151.511 82.2445 151.543C82.2833 151.575 82.3284 151.599 82.3769 151.613C82.4255 151.626 82.4763 151.629 82.5262 151.622C82.5761 151.615 82.6239 151.597 82.6664 151.57C82.709 151.543 82.7454 151.507 82.7732 151.465C82.801 151.423 82.8197 151.376 82.828 151.326L82.8237 151.282Z" fill="#BA6542"/>
<path d="M77.9582 163.098L77.9845 163.168L78.0239 163.273L78.1027 163.518C78.148 163.673 78.1845 163.831 78.2122 163.99C78.2146 164.027 78.2146 164.063 78.2122 164.1V164.17C78.2122 164.249 78.2122 164.327 78.2122 164.41C78.221 164.582 78.221 164.755 78.2122 164.927C78.2122 165.021 78.2494 165.112 78.3158 165.179C78.3822 165.246 78.4725 165.285 78.5669 165.286C78.6615 165.283 78.7515 165.245 78.8184 165.178C78.8853 165.111 78.9238 165.021 78.926 164.927C78.9528 164.176 78.8106 163.428 78.51 162.739C78.4616 162.657 78.3829 162.598 78.2909 162.574C78.199 162.55 78.1014 162.564 78.0195 162.612C77.9398 162.661 77.8821 162.739 77.8585 162.829C77.8348 162.92 77.847 163.016 77.8925 163.098H77.9582Z" fill="#BA6542"/>
<path d="M70.1059 172.467C69.504 173.128 69.1057 173.948 68.9585 174.83C68.9376 174.921 68.9517 175.016 68.9979 175.097C69.0442 175.178 69.1192 175.239 69.2082 175.267C69.2992 175.289 69.3952 175.276 69.4766 175.229C69.558 175.183 69.6186 175.107 69.6461 175.018C69.6769 174.82 69.7208 174.624 69.7775 174.432C69.8299 174.258 69.8958 174.088 69.9746 173.924C70.0582 173.749 70.1533 173.579 70.2592 173.416C70.2894 173.377 70.3172 173.336 70.3424 173.294L70.395 173.224L70.4256 173.184L70.6052 172.97C70.672 172.903 70.7095 172.813 70.7095 172.718C70.7095 172.624 70.672 172.534 70.6052 172.467C70.5384 172.4 70.4478 172.363 70.3534 172.363C70.2589 172.363 70.1683 172.4 70.1016 172.467H70.1059Z" fill="#BA6542"/>
<path d="M77.0472 190.155L77.5728 188.518C77.5855 188.473 77.5892 188.426 77.5837 188.38C77.5782 188.334 77.5637 188.289 77.5409 188.249C77.5181 188.208 77.4876 188.172 77.451 188.143C77.4143 188.115 77.3724 188.093 77.3275 188.081C77.2365 188.059 77.1405 188.072 77.0591 188.119C76.9777 188.165 76.9171 188.241 76.8896 188.33L76.364 189.962C76.341 190.053 76.3541 190.15 76.4006 190.231C76.4471 190.313 76.5235 190.373 76.6137 190.4C76.7047 190.422 76.8007 190.408 76.8821 190.362C76.9635 190.316 77.0241 190.24 77.0516 190.15L77.0472 190.155Z" fill="#BA6542"/>
<path d="M94.0612 163.78C94.0612 163.89 94.0611 163.881 94.0918 163.995C94.1224 164.108 94.0918 164.178 94.0918 164.27C94.1026 164.439 94.1026 164.609 94.0918 164.778C94.0879 164.843 94.0792 164.907 94.0655 164.971C94.0655 165.054 94.0349 165.137 94.0174 165.22C93.9767 165.399 93.9225 165.574 93.8553 165.745C93.8311 165.836 93.8437 165.933 93.8904 166.015C93.9371 166.097 94.0142 166.157 94.1049 166.183C94.1959 166.204 94.2915 166.19 94.3726 166.143C94.4537 166.097 94.5145 166.022 94.5429 165.933C94.816 165.184 94.887 164.377 94.7487 163.592C94.7365 163.547 94.7155 163.504 94.6869 163.467C94.6582 163.43 94.6225 163.399 94.5818 163.376C94.5411 163.353 94.4962 163.338 94.4496 163.332C94.4031 163.327 94.3559 163.33 94.3108 163.343C94.2218 163.371 94.1468 163.432 94.1006 163.513C94.0543 163.594 94.0403 163.689 94.0612 163.78V163.78Z" fill="#BA6542"/>
<path d="M89.1431 177.771C89.0879 178.395 89.1323 179.024 89.2745 179.635C89.3 179.726 89.3603 179.803 89.4423 179.849C89.5242 179.896 89.6212 179.909 89.7124 179.884C89.8025 179.858 89.8789 179.797 89.9254 179.716C89.972 179.634 89.9851 179.538 89.962 179.447C89.9313 179.302 89.9051 179.162 89.8832 179.009C89.8613 178.856 89.8832 179.048 89.8832 178.97V178.852C89.8832 178.782 89.8832 178.707 89.8832 178.637C89.8613 178.346 89.8613 178.053 89.8832 177.762C89.8832 177.668 89.8458 177.578 89.7793 177.511C89.7127 177.445 89.6225 177.407 89.5285 177.407C89.4347 177.41 89.3452 177.448 89.2785 177.513C89.2117 177.579 89.1727 177.668 89.1694 177.762L89.1431 177.771Z" fill="#BA6542"/>
<path d="M89.2918 139.808C89.2853 139.7 89.2853 139.592 89.2918 139.484C89.2918 139.458 89.2918 139.436 89.2918 139.41C89.2918 139.384 89.2918 139.336 89.2918 139.362V139.296V139.222C89.3152 139.117 89.3415 139.012 89.3707 138.907L89.4232 138.762L89.4495 138.692C89.4758 138.627 89.4145 138.767 89.4495 138.657C89.5349 138.465 89.6391 138.282 89.7604 138.11L89.7867 138.075L89.8305 138.019L89.9312 137.9C90.01 137.817 90.0932 137.738 90.1765 137.664C90.2149 137.632 90.2462 137.593 90.2686 137.548C90.2909 137.504 90.3037 137.455 90.3061 137.405C90.3086 137.355 90.3006 137.306 90.2828 137.259C90.2649 137.213 90.2376 137.17 90.2025 137.135C90.1674 137.1 90.1253 137.072 90.0789 137.054C90.0325 137.035 89.9828 137.027 89.9329 137.029C89.8831 137.031 89.8342 137.043 89.7895 137.065C89.7447 137.087 89.705 137.118 89.6728 137.156C89.3014 137.49 89.0056 137.9 88.8055 138.357C88.6053 138.814 88.5053 139.309 88.5123 139.808C88.5146 139.902 88.5533 139.992 88.6202 140.058C88.6872 140.124 88.7773 140.162 88.8714 140.163C88.9651 140.162 89.0547 140.124 89.121 140.058C89.1873 139.991 89.225 139.902 89.2261 139.808H89.2918Z" fill="#BA6542"/>
<path d="M74.7218 152.293C74.7613 152.368 74.8007 152.446 74.8357 152.525L74.862 152.591C74.862 152.63 74.862 152.634 74.862 152.591L74.9014 152.691C74.9627 152.849 75.0196 153.011 75.0678 153.173C75.116 153.335 75.1554 153.501 75.1904 153.672C75.1904 153.755 75.2211 153.838 75.2342 153.921C75.2342 153.921 75.2342 154.035 75.2342 153.969C75.2342 154.017 75.2342 154.065 75.2342 154.118C75.2364 154.211 75.2746 154.3 75.3406 154.366C75.4067 154.432 75.4956 154.47 75.589 154.472C75.7685 154.472 75.97 154.315 75.9481 154.118C75.8674 153.356 75.6493 152.614 75.3043 151.93C75.2808 151.89 75.2495 151.854 75.2123 151.826C75.1751 151.798 75.1328 151.777 75.0876 151.766C75.0425 151.754 74.9954 151.751 74.9492 151.758C74.9029 151.764 74.8584 151.779 74.8182 151.803C74.7386 151.852 74.6807 151.93 74.6563 152.02C74.6319 152.11 74.6428 152.206 74.6868 152.289L74.7218 152.293Z" fill="#BA6542"/>
<path d="M52.847 149.287C52.83 149.716 52.9359 150.142 53.1523 150.513C53.3687 150.884 53.6867 151.186 54.0688 151.383C54.1511 151.428 54.2477 151.44 54.3383 151.415C54.4289 151.391 54.5065 151.332 54.5549 151.252C54.5786 151.212 54.594 151.167 54.6005 151.121C54.6069 151.075 54.6041 151.028 54.5923 150.983C54.5805 150.937 54.5599 150.895 54.5317 150.858C54.5035 150.821 54.4682 150.79 54.4279 150.766C54.3505 150.727 54.2759 150.684 54.2046 150.635L54.152 150.6C54.1126 150.573 54.2002 150.644 54.152 150.6L54.0513 150.512C53.989 150.452 53.9305 150.387 53.8761 150.32V150.32L53.8367 150.267L53.7666 150.158C53.7448 150.118 53.7272 150.079 53.7053 150.044C53.6989 150.028 53.6916 150.012 53.6834 149.996C53.6858 149.984 53.6858 149.972 53.6834 149.961C53.6834 149.935 53.6834 149.961 53.6834 149.961C53.6714 149.919 53.6567 149.878 53.6396 149.838C53.626 149.803 53.6143 149.766 53.6046 149.729C53.6046 149.685 53.5827 149.641 53.5783 149.602C53.5763 149.58 53.5763 149.558 53.5783 149.536C53.5783 149.62 53.5783 149.567 53.5783 149.536C53.5718 149.445 53.5718 149.352 53.5783 149.261C53.5686 149.173 53.5268 149.092 53.4609 149.033C53.3951 148.974 53.3098 148.941 53.2214 148.941C53.133 148.941 53.0478 148.974 52.9819 149.033C52.9161 149.092 52.8743 149.173 52.8645 149.261L52.847 149.287Z" fill="#BA6542"/>
<path d="M62.8275 149.094C62.8275 148.963 62.8275 148.832 62.8275 148.7C62.8275 148.63 62.8275 148.56 62.8275 148.49C62.8275 148.42 62.8275 148.429 62.8275 148.398C62.8275 148.368 62.8275 148.276 62.8275 148.324C62.8256 148.301 62.8256 148.277 62.8275 148.254V148.162L62.8669 147.97C62.8981 147.838 62.9362 147.708 62.9807 147.58C62.9995 147.533 63.0081 147.483 63.0062 147.433C63.0043 147.383 62.9917 147.333 62.9694 147.288C62.9471 147.243 62.9155 147.203 62.8767 147.171C62.838 147.138 62.7928 147.115 62.7443 147.101C62.6957 147.088 62.6449 147.084 62.595 147.092C62.5451 147.099 62.4973 147.117 62.4548 147.144C62.4122 147.171 62.3758 147.207 62.348 147.249C62.3201 147.291 62.3014 147.338 62.2931 147.388C62.1097 147.937 62.0296 148.516 62.0567 149.094C62.0664 149.182 62.1082 149.263 62.1741 149.322C62.2399 149.381 62.3252 149.414 62.4136 149.414C62.502 149.414 62.5873 149.381 62.6531 149.322C62.719 149.263 62.7608 149.182 62.7705 149.094H62.8275Z" fill="#BA6542"/>
<path d="M66.1689 154.652C66.2126 154.721 66.2521 154.793 66.2872 154.866L66.3397 154.967L66.366 155.028C66.366 154.993 66.366 154.993 66.366 155.028C66.4222 155.171 66.4704 155.317 66.5105 155.466C66.5105 155.54 66.5412 155.615 66.5587 155.689C66.5762 155.763 66.5587 155.777 66.5587 155.82C66.5587 155.755 66.5587 155.82 66.5587 155.855C66.5697 156.018 66.5697 156.182 66.5587 156.345C66.5598 156.439 66.5976 156.529 66.6638 156.595C66.7301 156.661 66.8197 156.699 66.9134 156.7C67.0072 156.698 67.0967 156.66 67.1634 156.594C67.2302 156.528 67.2692 156.439 67.2725 156.345C67.3018 155.624 67.1208 154.909 66.7514 154.289C66.7023 154.209 66.6244 154.151 66.5338 154.128C66.4433 154.104 66.3471 154.116 66.2653 154.162C66.1845 154.211 66.1259 154.289 66.1014 154.381C66.0769 154.472 66.0886 154.569 66.1339 154.652H66.1689Z" fill="#BA6542"/>
<path d="M78.7638 176.318C78.6439 177.058 78.7621 177.816 79.1013 178.485C79.4405 179.153 79.9832 179.697 80.6514 180.037C80.7332 180.083 80.8294 180.095 80.9199 180.071C81.0105 180.048 81.0884 179.99 81.1375 179.91C81.1612 179.87 81.1766 179.826 81.1831 179.78C81.1895 179.733 81.1867 179.686 81.1749 179.641C81.1631 179.596 81.1425 179.554 81.1143 179.517C81.0861 179.479 81.0508 179.448 81.0105 179.425C80.4776 179.162 80.0405 178.74 79.7608 178.216C79.4811 177.692 79.3729 177.094 79.4514 176.506C79.4638 176.461 79.4671 176.414 79.4613 176.367C79.4554 176.321 79.4405 176.276 79.4173 176.235C79.3941 176.195 79.3632 176.159 79.3262 176.13C79.2892 176.102 79.2469 176.081 79.2018 176.068C79.1566 176.056 79.1095 176.053 79.063 176.058C79.0166 176.064 78.9718 176.079 78.9311 176.102C78.8904 176.126 78.8547 176.156 78.826 176.193C78.7973 176.23 78.7762 176.273 78.7638 176.318V176.318Z" fill="#BA6542"/>
<path d="M95.5544 151.79C96.2482 151.758 96.9152 151.513 97.464 151.087C98.0128 150.662 98.4166 150.077 98.62 149.414C98.6323 149.369 98.6357 149.321 98.6298 149.275C98.624 149.229 98.609 149.184 98.5859 149.143C98.5627 149.103 98.5317 149.067 98.4947 149.038C98.4578 149.01 98.4155 148.988 98.3703 148.976C98.3252 148.964 98.2781 148.96 98.2316 148.966C98.1852 148.972 98.1403 148.987 98.0997 149.01C98.059 149.033 98.0233 149.064 97.9946 149.101C97.9659 149.138 97.9448 149.18 97.9324 149.225C97.7738 149.741 97.46 150.196 97.0337 150.527C96.6074 150.858 96.0894 151.05 95.55 151.077C95.4563 151.078 95.3667 151.115 95.3005 151.182C95.2342 151.248 95.1964 151.337 95.1953 151.431C95.1964 151.525 95.234 151.615 95.3002 151.682C95.3663 151.749 95.4559 151.788 95.55 151.79H95.5544Z" fill="#BA6542"/>
<path d="M102.461 143.475L102.688 144.631C102.701 144.676 102.722 144.718 102.75 144.755C102.779 144.792 102.815 144.823 102.855 144.847C102.896 144.87 102.941 144.885 102.987 144.89C103.034 144.896 103.081 144.893 103.126 144.88C103.216 144.854 103.293 144.793 103.339 144.712C103.386 144.63 103.399 144.534 103.376 144.443L103.148 143.287C103.123 143.196 103.063 143.119 102.981 143.072C102.899 143.025 102.801 143.013 102.71 143.038C102.619 143.063 102.542 143.123 102.495 143.205C102.448 143.287 102.436 143.384 102.461 143.475Z" fill="#BA6542"/>
<path d="M100.026 121.175C100.207 121.884 100.616 122.515 101.191 122.969C101.259 123.033 101.347 123.07 101.44 123.074C101.535 123.073 101.627 123.036 101.694 122.969C101.76 122.902 101.797 122.812 101.797 122.718C101.797 122.623 101.76 122.533 101.694 122.466C101.568 122.367 101.449 122.259 101.34 122.142C101.28 122.087 101.227 122.026 101.182 121.958C101.182 121.993 101.208 121.993 101.182 121.958C101.17 121.945 101.16 121.93 101.151 121.915L101.077 121.809C100.989 121.67 100.911 121.523 100.845 121.372C100.847 121.356 100.847 121.34 100.845 121.324C100.884 121.376 100.845 121.354 100.845 121.324L100.805 121.214C100.776 121.134 100.751 121.052 100.731 120.969C100.704 120.879 100.644 120.803 100.562 120.756C100.481 120.71 100.384 120.697 100.293 120.72C100.202 120.745 100.125 120.806 100.078 120.888C100.032 120.969 100.019 121.066 100.043 121.157L100.026 121.175Z" fill="#BA6542"/>
<path d="M75.4619 135.091C73.6269 135.774 71.9584 137.139 71.5993 138.43C70.9292 140.959 74.1131 141.677 75.9787 141.056C77.1058 140.635 78.1301 139.978 78.9829 139.13C79.815 138.364 81.0018 136.942 80.196 135.778C79.2238 134.404 77.2706 134.408 75.4619 135.091Z" fill="#FAC7B7"/>
<path d="M76.3377 135.774C75.1378 136.404 73.6313 136.924 72.9919 138.233C72.8367 138.487 72.7834 138.79 72.8427 139.081C72.902 139.373 73.0695 139.631 73.3116 139.804C73.8969 140.154 74.5909 140.275 75.2604 140.145C75.9756 140.055 76.6646 139.819 77.2847 139.452C77.9047 139.085 78.4425 138.594 78.8646 138.01C79.1405 137.572 79.3244 136.946 78.8909 136.557C78.7205 136.446 78.5227 136.384 78.3193 136.379C78.116 136.373 77.9151 136.424 77.7391 136.526C77.2182 136.75 76.7305 137.045 76.2895 137.401C75.9282 137.649 75.6013 137.943 75.3173 138.277C75.278 138.364 75.2725 138.464 75.302 138.555C75.3315 138.647 75.3939 138.724 75.4771 138.772C75.5603 138.821 75.6584 138.837 75.7526 138.817C75.8468 138.797 75.9304 138.744 75.9874 138.666C75.9041 138.78 76.0136 138.644 76.0355 138.622C76.0727 138.581 76.1122 138.541 76.1538 138.504C76.2852 138.382 76.4165 138.268 76.5567 138.154C76.8524 137.91 77.1657 137.688 77.4939 137.489C77.6532 137.389 77.8201 137.301 77.9931 137.226L78.1508 137.169L78.269 137.134C78.269 137.134 78.3916 137.113 78.3084 137.134H78.4048C78.2997 137.134 78.4048 137.134 78.4048 137.134C78.4048 137.134 78.3259 137.091 78.3434 137.086C78.361 137.082 78.3697 137.134 78.3434 137.178C78.3316 137.268 78.3018 137.354 78.2559 137.432C77.7522 138.386 76.6443 138.977 75.6282 139.248C75.1175 139.409 74.5727 139.429 74.0517 139.305C73.8809 139.257 73.6138 139.169 73.5524 138.986C73.5359 138.911 73.5347 138.833 73.549 138.758C73.5633 138.683 73.5928 138.611 73.6356 138.548C74.24 137.406 75.5932 136.99 76.6749 136.417C77.1129 136.185 76.7275 135.515 76.2851 135.752L76.3377 135.774Z" fill="white"/>
<path d="M67.2462 156.533C65.4945 155.658 63.3399 155.378 62.1618 156.017C59.8627 157.264 61.5225 160.069 63.2435 160.997C64.3239 161.529 65.5042 161.827 66.7076 161.872C67.8375 161.951 69.6987 161.829 69.9833 160.454C70.3205 158.796 68.9761 157.382 67.2462 156.533Z" fill="#F1673C"/>
<path d="M67.3381 157.641C66.055 157.203 64.7368 156.525 63.3485 156.875C63.0793 156.914 62.8312 157.043 62.6444 157.241C62.4576 157.439 62.3431 157.694 62.3194 157.965C62.2931 158.722 62.8668 159.422 63.4317 159.868C63.9887 160.321 64.6319 160.655 65.3222 160.852C66.0126 161.048 66.7357 161.102 67.4476 161.01C67.9294 160.927 68.525 160.634 68.525 160.065C68.525 159.628 68.1396 159.352 67.7848 159.19C67.2681 158.973 66.7246 158.825 66.1689 158.752C65.7499 158.656 65.3195 158.617 64.89 158.639C64.7881 158.643 64.6914 158.685 64.6192 158.757C64.547 158.829 64.5046 158.926 64.5003 159.028C64.5015 159.131 64.543 159.228 64.616 159.301C64.689 159.373 64.7874 159.413 64.89 159.413C65.5523 159.383 66.2144 159.475 66.8433 159.684C67.0255 159.731 67.2041 159.791 67.3775 159.864C67.442 159.891 67.5049 159.921 67.5659 159.956L67.6359 159.999C67.7148 160.048 67.6622 159.999 67.7016 160.048C67.7257 160.069 67.7477 160.092 67.7673 160.118C67.6929 160.048 67.7673 160.118 67.7673 160.118C67.7673 160.118 67.7673 160.043 67.7673 160.039C67.7673 160.034 67.7673 160.083 67.7191 160.109C67.6467 160.159 67.5669 160.197 67.4827 160.223C66.4754 160.511 65.293 160.131 64.4171 159.614C63.8737 159.338 63.4333 158.895 63.1602 158.35C62.9938 157.938 63.1208 157.741 63.5237 157.636C64.7543 157.308 65.9674 157.995 67.1279 158.393C67.6009 158.555 67.8024 157.807 67.3338 157.65L67.3381 157.641Z" fill="white"/>
<path d="M95.5543 153.785C93.6187 154.066 91.683 155.041 91.0699 156.232C89.8787 158.564 92.8216 159.938 94.7836 159.733C95.9737 159.557 97.1137 159.134 98.1294 158.49C99.1016 157.916 100.569 156.739 100.026 155.47C99.36 153.908 97.4506 153.514 95.5543 153.785Z" fill="#FAC7B7"/>
<path d="M96.2682 154.639C94.9544 155.006 93.3822 155.199 92.4626 156.341C92.2561 156.555 92.1382 156.839 92.1325 157.136C92.1269 157.433 92.2338 157.721 92.4319 157.943C92.9266 158.407 93.5751 158.674 94.2537 158.691C94.9735 158.76 95.6998 158.68 96.3866 158.454C97.0734 158.228 97.7057 157.861 98.2433 157.378C98.6025 157.024 98.9309 156.424 98.5674 155.956C98.4182 155.813 98.233 155.714 98.0317 155.669C97.8304 155.623 97.6205 155.633 97.4244 155.698C96.8688 155.814 96.3312 156.004 95.8259 156.262C95.432 156.426 95.0622 156.642 94.7267 156.905C94.3501 157.234 94.9019 157.781 95.2741 157.452C95.3398 157.396 95.226 157.483 95.3179 157.422L95.4668 157.326C95.6113 157.238 95.7646 157.155 95.9047 157.076C96.2371 156.906 96.581 156.76 96.9339 156.639C97.2402 156.504 97.5717 156.437 97.9061 156.442C97.8317 156.442 98.0331 156.442 97.9412 156.442C97.9893 156.442 97.9412 156.472 97.9412 156.442C97.9412 156.477 97.9718 156.42 97.9412 156.442C97.9105 156.463 97.9674 156.354 97.9412 156.442C97.9149 156.529 97.9893 156.367 97.9412 156.498C97.9076 156.577 97.8634 156.651 97.8098 156.717C97.507 157.054 97.135 157.321 96.7193 157.501C96.1407 157.77 95.5135 157.918 94.8756 157.938C94.3372 157.991 93.7946 157.894 93.3078 157.658C92.9443 157.461 92.7735 157.221 93.0494 156.853C93.8333 155.846 95.3398 155.715 96.4741 155.4C96.5656 155.366 96.6411 155.299 96.6856 155.213C96.7302 155.126 96.7405 155.026 96.7147 154.932C96.6888 154.838 96.6286 154.757 96.546 154.705C96.4633 154.653 96.3642 154.634 96.2682 154.652V154.639Z" fill="white"/>
<path d="M96.5048 115.071C94.5647 115.346 92.6334 116.326 92.0203 117.517C90.8292 119.845 93.7721 121.219 95.734 121.018C96.9242 120.842 98.0641 120.419 99.0798 119.775C100.052 119.202 101.519 118.046 100.976 116.755C100.324 115.202 98.4142 114.795 96.5048 115.071Z" fill="#F1673C"/>
<path d="M97.2274 115.924C95.9136 116.287 94.3414 116.48 93.4261 117.626C93.2191 117.839 93.1006 118.122 93.0949 118.419C93.0892 118.715 93.1967 119.003 93.3955 119.223C93.8897 119.689 94.5382 119.957 95.2173 119.976C95.937 120.045 96.6633 119.964 97.3501 119.738C98.0368 119.512 98.6692 119.146 99.2069 118.663C99.566 118.309 99.8945 117.709 99.531 117.245C99.3822 117.102 99.1973 117.002 98.9959 116.956C98.7946 116.909 98.5844 116.919 98.3879 116.983C97.833 117.101 97.2957 117.291 96.7895 117.547C96.3964 117.713 96.0268 117.929 95.6903 118.191C95.3136 118.519 95.8654 119.066 96.2377 118.738C96.3034 118.681 96.1895 118.768 96.2815 118.711L96.4304 118.615C96.5749 118.523 96.7282 118.44 96.8683 118.361C97.2006 118.191 97.5445 118.045 97.8975 117.924C98.2037 117.789 98.5353 117.722 98.8697 117.727C98.7909 117.727 98.9967 117.727 98.9047 117.727C98.9529 117.727 98.9047 117.762 98.9047 117.727C98.9047 117.766 98.9354 117.727 98.9047 117.727C98.8741 117.727 98.931 117.639 98.9047 117.727C98.8785 117.814 98.9529 117.652 98.9047 117.784C98.8711 117.862 98.8269 117.936 98.7733 118.002C98.4709 118.339 98.0988 118.607 97.6829 118.786C97.1041 119.054 96.477 119.203 95.8392 119.223C95.3012 119.276 94.7592 119.18 94.2714 118.948C93.9079 118.746 93.7371 118.51 94.013 118.138C94.7969 117.132 96.3034 117 97.4376 116.685C97.5364 116.657 97.62 116.591 97.6701 116.502C97.7202 116.413 97.7326 116.307 97.7048 116.208C97.6769 116.11 97.6109 116.026 97.5214 115.976C97.4319 115.926 97.3262 115.913 97.2274 115.941V115.924Z" fill="white"/>
<path d="M67.6973 178.274C65.8711 177.569 63.7033 177.473 62.5865 178.212C60.3969 179.661 62.3107 182.308 64.1062 183.079C65.2307 183.509 66.4336 183.697 67.636 183.63C68.7658 183.63 70.6096 183.324 70.7672 181.928C70.9599 180.256 69.4928 178.97 67.6973 178.274Z" fill="#F1673C"/>
<path d="M67.9206 179.376C66.6068 179.053 65.166 178.462 63.8171 178.97C63.5576 179.042 63.33 179.2 63.1712 179.417C63.0123 179.635 62.9313 179.899 62.9413 180.169C63.0069 180.934 63.6463 181.578 64.2551 181.971C64.8453 182.362 65.5084 182.629 66.2045 182.757C66.9006 182.884 67.6154 182.87 68.306 182.715C68.7877 182.584 69.3614 182.23 69.2869 181.648C69.23 181.21 68.8052 180.987 68.4111 180.856C67.8741 180.681 67.3155 180.583 66.7513 180.562C66.3155 180.501 65.8733 180.501 65.4375 180.562C64.947 180.663 65.1528 181.407 65.6433 181.306C65.7178 181.306 65.5645 181.306 65.7046 181.306H65.8754C66.0462 181.306 66.217 181.306 66.3878 181.306C66.774 181.319 67.1588 181.359 67.5396 181.424C67.8664 181.475 68.182 181.581 68.4723 181.74C68.4329 181.718 68.5074 181.77 68.4723 181.74C68.4373 181.709 68.4723 181.74 68.4723 181.74C68.4942 181.683 68.4329 181.713 68.4723 181.718C68.4373 181.718 68.5118 181.648 68.4723 181.696C68.3716 181.827 68.503 181.696 68.4373 181.748C68.3758 181.807 68.3027 181.851 68.2227 181.88C67.2856 182.269 66.0331 181.989 65.1572 181.578C64.5777 181.349 64.0856 180.943 63.7514 180.418C63.5587 180.055 63.6244 179.818 64.001 179.674C65.1879 179.21 66.5192 179.805 67.6666 180.085C68.1483 180.208 68.3541 179.46 67.8724 179.341L67.9206 179.376Z" fill="white"/>
<path d="M68.2534 100.262C68.2733 101.06 68.4708 101.843 68.8315 102.555C69.1862 103.29 69.8475 104.034 70.7409 103.973C72.4313 103.855 72.7992 101.636 72.9656 100.319C73.0576 99.5966 73.0838 98.8702 73.1101 98.1307C73.1364 97.3911 72.0547 97.4349 72.0284 98.1307C72.0432 99.3352 71.8959 100.536 71.5905 101.702C71.5905 101.772 71.5467 101.842 71.5204 101.907C71.4941 101.973 71.4285 102.148 71.4635 102.069C71.4036 102.203 71.3349 102.333 71.2577 102.459C71.2262 102.499 71.1969 102.542 71.1701 102.585C71.2007 102.546 71.0913 102.669 71.0694 102.695C71.0475 102.721 70.9204 102.809 71.0212 102.743L70.9336 102.796C70.9336 102.796 70.7978 102.87 70.8767 102.835C70.9555 102.8 70.7759 102.861 70.7497 102.87C70.7234 102.879 70.6445 102.87 70.7497 102.87H70.5482C70.6621 102.87 70.5482 102.87 70.5263 102.87L70.4125 102.835C70.4869 102.866 70.4125 102.835 70.4125 102.835C70.4125 102.835 70.3424 102.796 70.3117 102.769C70.2811 102.743 70.3818 102.835 70.3117 102.769C70.2579 102.726 70.2081 102.677 70.1628 102.625C70.0539 102.509 69.9625 102.378 69.8913 102.235C69.7093 101.912 69.5736 101.564 69.4884 101.203C69.3945 100.904 69.3486 100.592 69.3526 100.279C69.3526 100.135 69.2954 99.9974 69.1936 99.8956C69.0918 99.7938 68.9536 99.7367 68.8096 99.7367C68.6656 99.7367 68.5274 99.7938 68.4256 99.8956C68.3238 99.9974 68.2666 100.135 68.2666 100.279L68.2534 100.262Z" fill="#32142A"/>
<path d="M88.0132 99.6887C88.0184 99.955 87.9829 100.221 87.9081 100.476C87.8368 100.798 87.7326 101.112 87.5972 101.413C87.5274 101.564 87.4469 101.71 87.3563 101.85C87.2701 101.975 87.1686 102.088 87.0541 102.187C87.0541 102.187 86.9709 102.249 87.0541 102.187L86.9709 102.24L86.8877 102.288C86.9797 102.24 86.8877 102.288 86.8614 102.288L86.7432 102.319C86.7694 102.319 86.8483 102.319 86.7432 102.319H86.6468C86.5023 102.319 86.73 102.345 86.6162 102.319L86.4629 102.271C86.5943 102.323 86.4103 102.231 86.3797 102.214C86.349 102.196 86.4278 102.271 86.3271 102.17C86.2264 102.069 86.2264 102.069 86.1826 102.012C86.2614 102.109 86.1344 101.947 86.1213 101.925C86.1081 101.903 86.0468 101.802 86.0118 101.741C85.9768 101.68 85.9505 101.623 85.9242 101.562C85.8541 101.417 85.9242 101.619 85.9242 101.527L85.8673 101.382C85.7557 101.065 85.6679 100.741 85.6045 100.411C85.5301 100.026 85.4994 99.7981 85.46 99.4392C85.3987 98.8222 85.3724 98.2008 85.3505 97.5794C85.3242 96.8836 84.2381 96.8792 84.2644 97.5794C84.3169 98.9885 84.3476 100.489 84.8775 101.815C85.149 102.489 85.5782 103.163 86.3271 103.36C87.203 103.592 87.9606 102.997 88.3942 102.275C88.858 101.492 89.1086 100.602 89.1212 99.693C89.109 99.5581 89.0468 99.4326 88.9467 99.3412C88.8466 99.2498 88.7159 99.1991 88.5803 99.1991C88.4447 99.1991 88.3141 99.2498 88.214 99.3412C88.1139 99.4326 88.0516 99.5581 88.0395 99.693L88.0132 99.6887Z" fill="#32142A"/>
<path d="M59.7663 92.7263C58.8973 90.4601 58.5327 88.0321 58.6977 85.6108C58.6925 85.1465 58.8217 84.6906 59.07 84.298C59.3324 84.0014 59.6609 83.7705 60.029 83.6241C69.8957 78.7755 80.0427 77.6771 90.6845 74.9026C91.8757 74.5919 93.207 74.2988 94.2843 74.9026C95.3617 75.5065 95.804 76.7406 96.0361 77.9177C96.6536 80.981 96.8463 82.4951 95.5369 85.3176L59.7663 92.7263Z" fill="#153A23"/>
<path d="M63.2917 82.2806C64.0345 79.4056 65.5675 76.7956 67.7175 74.7458C69.8674 72.6961 72.5484 71.2883 75.4573 70.6819C78.3662 70.0754 81.3869 70.2944 84.1778 71.314C86.9686 72.3337 89.4182 74.1134 91.2495 76.4517" fill="#153A23"/>
<path d="M34.9616 91.663C35.4033 91.1648 35.8004 90.6289 36.1484 90.0614C39.9803 83.8124 36.9673 75.0471 29.7282 73.1786C21.7315 71.1131 13.6078 79.7426 15.1143 87.5933C16.3187 93.851 22.0512 95.317 27.5955 95.2251C29.0032 95.1731 30.3847 94.8296 31.6526 94.2164C32.9205 93.6033 34.0473 92.7338 34.9616 91.663V91.663Z" fill="#FAC7B7"/>
<path d="M8.13369 78.688C21.1316 74.662 34.1514 70.709 47.1931 66.8289L45.6297 58.8032C27.1357 63.8094 24.9022 64.8728 5.98779 70.0409L8.13369 78.688Z" fill="#F7BC28"/>
<path d="M16.0253 34.503C12.4517 37.5181 7.57751 43.9553 6.69288 46.3577C3.12809 56.0376 4.79224 65.9012 16.7654 66.4876C35.2331 67.3628 33.5602 46.3359 30.1049 33.7109L16.0253 34.503Z" fill="#153A23"/>
<path d="M29.3035 28.1708C28.2699 28.9234 27.1839 29.698 25.9226 29.9212C24.6614 30.1444 23.168 29.6499 22.6775 28.464C22.5666 28.0246 22.4003 27.6012 22.1827 27.2037C21.4732 26.2847 20.0455 26.8317 18.9507 27.2037C16.4238 28.0789 13.2575 27.3306 11.8255 25.0725C10.3934 22.8145 11.4444 19.2305 14.0151 18.5347C12.7125 19.1159 11.2492 19.2309 9.87169 18.8602C8.49415 18.4896 7.28646 17.656 6.45197 16.4998C5.68347 15.2958 5.35443 13.8637 5.52039 12.4453C5.68635 11.0269 6.33715 9.70922 7.36288 8.71483C8.44257 7.77967 9.81213 7.24547 11.2403 7.20241C12.6685 7.15936 14.0678 7.6101 15.2019 8.47853C15.932 7.21765 17.0229 6.20389 18.3343 5.56766C19.6457 4.93144 21.1177 4.70186 22.5607 4.90846C24.0038 5.11507 25.352 5.7484 26.4319 6.72698C27.5118 7.70556 28.2739 8.98463 28.6203 10.3996C28.3591 7.70491 28.9865 4.99874 30.4071 2.69339C30.8174 1.90774 31.4808 1.28333 32.2902 0.921084C33.5252 0.483479 34.8828 1.14864 35.9119 1.96259C38.3132 3.88728 39.894 6.65083 40.3351 9.69507C40.9132 7.85275 43.8386 7.67333 45.0341 9.16994C46.2297 10.6666 45.9363 12.9727 44.8327 14.5525C43.7291 16.1322 42.008 17.1781 40.3395 18.1277C43.1186 18.633 45.8249 19.4781 48.3975 20.644C48.9843 20.9109 49.6281 21.2785 49.7507 21.9086C49.7895 22.4012 49.6444 22.8907 49.3434 23.2827C48.3143 24.9762 47.0224 26.5735 45.2925 27.5494C43.5627 28.5252 41.3511 28.779 39.5993 27.8251C40.5628 30.7658 37.6374 34.1266 34.5543 33.829C31.4713 33.5314 29.2378 30.0262 30.0042 27.0286" fill="#E48929"/>
<path d="M53.9942 194.824C59.0436 202.32 64.5923 209.48 69.8694 216.814C71.0956 218.52 72.3175 220.231 73.4911 221.973C74.0429 222.796 75.3874 222.021 74.8049 221.19C69.7599 213.694 64.2069 206.534 58.9341 199.2C57.7079 197.498 56.4861 195.787 55.3124 194.045C54.7562 193.223 53.4161 193.997 53.9723 194.824H53.9942Z" fill="#122D1C"/>
<path d="M45.1655 241.363L66.0857 259.152L75.6108 251.096V261.366L67.1762 269.847L45.1655 241.363Z" fill="#122D1C"/>
<path d="M109.726 128.597C109.372 137.717 109.585 146.849 110.365 155.943C110.453 156.927 112.003 156.936 111.916 155.943C111.136 146.849 110.922 137.717 111.276 128.597C111.316 127.599 109.765 127.603 109.726 128.597Z" fill="#E48929"/>
<path d="M115.634 133.297C121.135 132.622 126.668 132.234 132.21 132.133C133.204 132.133 133.208 130.575 132.21 130.584C126.668 130.685 121.135 131.073 115.634 131.748C114.653 131.857 114.644 133.41 115.634 133.297Z" fill="#E48929"/>
<path d="M27.867 106.992C32.1238 107.207 36.6257 106.992 40.5102 105.071C41.3861 104.634 40.6197 103.295 39.7307 103.732C36.1046 105.518 31.8479 105.645 27.867 105.443C26.8729 105.395 26.8729 106.944 27.867 106.992Z" fill="#E48929"/>
<path d="M82.2236 245.499C83.9271 249.463 85.2891 251.739 90.1984 252.938C90.5531 253.026 90.956 253.131 91.118 253.459C91.1699 253.631 91.1835 253.813 91.1577 253.992C91.132 254.17 91.0677 254.341 90.9691 254.492C89.886 256.776 88.8057 259.06 87.7284 261.344C86.2416 260.031 84.5315 258.993 82.679 258.281C83.1169 261.432 83.3228 263.274 82.679 266.394C82.0352 269.515 78.3785 275.357 75.672 277.037C74.3845 277.833 72.5145 275.943 71.5117 274.376C70.3511 272.573 69.4884 271.698 70.6008 269.869C72.589 266.605 75.418 265.318 75.3742 259.428C75.348 255.765 75.8122 254.614 74.4984 252.037L82.2236 245.499Z" fill="#32142A"/>
<path d="M17.9828 62.8599C19.9141 62.9474 21.9549 63.2099 23.6759 62.3041C24.4645 61.8529 25.1624 61.2594 25.7342 60.5537C28.021 57.8944 29.2903 54.5112 29.3166 51.0051C29.3143 50.9448 29.2947 50.8865 29.2602 50.8369C29.2257 50.7874 29.1777 50.7488 29.1219 50.7258C29.0661 50.7027 29.0048 50.6962 28.9454 50.7069C28.886 50.7177 28.8309 50.7452 28.7866 50.7863C27.4728 52.0773 26.597 53.8189 25.6729 55.4381C24.6219 57.2585 23.2862 59.0964 21.2936 59.7922C20.6219 59.9932 19.935 60.1396 19.2397 60.2298C17.9273 60.4587 16.6377 60.8028 15.3858 61.2582C15.3858 61.2582 15.0661 62.7286 17.9828 62.8599Z" fill="#39B55D"/>
<path d="M31.8566 14.4475C31.1042 14.1387 30.4854 13.574 30.1095 12.8533C29.7336 12.1325 29.625 11.3021 29.8027 10.509C30.0424 9.72851 30.5518 9.05847 31.24 8.61844C31.9283 8.1784 32.7505 7.99699 33.5602 8.10657V6.59683C32.0012 7.11321 30.2713 5.93167 29.9254 4.36942C29.5794 2.80717 30.8976 1.74379 32.2858 1.55562C32.942 1.45635 33.6122 1.58783 34.1821 1.92758C34.8433 2.36519 35.1631 3.11787 35.4609 3.81366C35.7439 4.61385 36.147 5.36638 36.6564 6.04545C37.3352 6.83752 38.1936 7.02569 39.1702 7.23574C39.6923 7.31486 40.1682 7.57988 40.5102 7.98196C40.8523 8.38404 41.0373 8.89609 41.0314 9.42376C40.9943 9.93483 40.779 10.4167 40.4229 10.7854C40.0667 11.154 39.5924 11.3861 39.0826 11.4411C38.1016 11.5943 38.5176 13.0865 39.4942 12.9334C40.2526 12.8071 40.9516 12.4446 41.4915 11.8977C42.0314 11.3508 42.3846 10.6474 42.5006 9.88802C42.6167 9.12861 42.4897 8.35197 42.1378 7.66897C41.7858 6.98598 41.2269 6.43155 40.5409 6.08483C39.884 5.76101 39.157 5.78726 38.4914 5.5247C37.4666 5.12648 37.1338 3.80053 36.7396 2.89907C36.3809 1.90429 35.6935 1.06146 34.7908 0.509742C33.8962 0.0478695 32.874 -0.105959 31.8829 0.0721366C29.8159 0.417845 28.086 2.18139 28.3794 4.36505C28.7079 6.90316 31.4888 8.92927 33.9938 8.09782C34.6507 7.87902 34.8039 6.73687 33.9938 6.60558C31.5676 6.20299 28.9882 7.65146 28.3313 10.1064C27.6744 12.5614 29.1633 15.0995 31.4669 15.9703C32.3997 16.3204 32.7807 14.8238 31.8785 14.4737L31.8566 14.4475Z" fill="#FAC7B7"/>
<path d="M33.8054 17.257C34.8565 19.8214 38.0972 19.9527 40.4007 19.2613C43.0283 18.4736 45.2706 16.4518 45.8881 13.7168C46.2501 12.1727 46.0563 10.5506 45.3407 9.13508C44.9027 8.25987 43.5495 9.03005 44.0006 9.91839C45.275 12.4084 44.1057 15.4453 41.8503 16.9201C40.73 17.6504 39.4298 18.0577 38.0928 18.0972C37.1293 18.0972 35.7192 17.8784 35.2988 16.8588C35.2387 16.6639 35.1065 16.4992 34.9291 16.3984C34.7517 16.2975 34.5424 16.2681 34.3441 16.3162C34.1502 16.3734 33.9859 16.5032 33.8856 16.6785C33.7852 16.8538 33.7565 17.0611 33.8054 17.257V17.257Z" fill="#FAC7B7"/>
<path d="M36.3368 21.6679C35.673 21.6629 35.0186 21.8255 34.4344 22.1407C33.8503 22.4559 33.3553 22.9134 32.9953 23.4708C32.6183 24.0791 32.3779 24.762 32.291 25.4723C32.204 26.1825 32.2725 26.9031 32.4917 27.5843C32.8552 28.8402 33.6697 30.3544 35.0493 30.6913C36.4288 31.0283 37.5937 30.0393 37.8915 28.7615C38.2594 27.1817 37.2346 25.7858 36.0609 24.8493C35.9124 24.7105 35.7168 24.6334 35.5135 24.6334C35.3102 24.6334 35.1145 24.7105 34.9661 24.8493C34.8222 24.995 34.7415 25.1916 34.7415 25.3963C34.7415 25.601 34.8222 25.7975 34.9661 25.9433C35.7237 26.5516 36.7441 27.5406 36.328 28.5689C36.2784 28.7274 36.1866 28.8693 36.0623 28.9795C35.9381 29.0898 35.7863 29.1642 35.623 29.1947C35.185 29.1947 34.7952 28.7834 34.5631 28.4289C34.2012 27.9118 33.9632 27.3184 33.8675 26.6946C33.7718 26.0709 33.821 25.4335 34.0113 24.8318C34.1825 24.3528 34.498 23.9387 34.9145 23.6464C35.331 23.3541 35.8279 23.1979 36.3368 23.1995C37.3353 23.2389 37.3309 21.6898 36.3368 21.6504V21.6679Z" fill="#FAC7B7"/>
<path d="M19.8572 21.8125C19.774 21.9263 19.8222 21.8125 19.936 21.8782C20.0499 21.9438 20.1331 21.9657 20.1988 22.0882C20.4484 22.5521 19.8791 23.296 19.6339 23.6461C19.2397 24.2106 19.8923 24.9589 20.5097 24.7839C21.1272 24.6088 21.3199 25.4009 21.136 25.8122C20.9721 26.0999 20.7436 26.3457 20.4685 26.5302C20.1934 26.7148 19.8792 26.833 19.5507 26.8756C18.4602 27.0813 17.0632 26.6131 16.6865 25.484C16.6488 25.3524 16.5773 25.2328 16.4792 25.1372C16.3811 25.0416 16.2598 24.9732 16.1271 24.9387C15.9945 24.9042 15.8552 24.9049 15.7229 24.9407C15.5906 24.9765 15.4699 25.0461 15.3727 25.1427C14.9486 25.4928 14.5072 25.8214 14.0502 26.1273C13.8575 26.2542 13.0517 26.88 12.8678 26.81C12.6838 26.74 12.5831 26.3724 12.513 26.2323C12.4075 26.0317 12.3125 25.8258 12.2284 25.6153C12.0357 25.1388 11.9176 24.6355 11.878 24.1231C11.8348 23.6946 11.8874 23.2619 12.0321 22.8562C12.1767 22.4506 12.4098 22.0821 12.7145 21.7775C12.9808 21.501 13.3192 21.3045 13.6914 21.2101C14.0637 21.1158 14.455 21.1274 14.821 21.2436C14.936 21.2735 15.0564 21.2768 15.173 21.2534C15.2895 21.2299 15.3992 21.1802 15.4937 21.1081C15.5883 21.036 15.6651 20.9434 15.7185 20.8372C15.7719 20.7311 15.8004 20.6141 15.8019 20.4953C15.8019 19.782 16.0253 18.8718 16.726 18.513C17.1639 18.281 17.9522 18.3817 18.1274 18.9506C18.4252 19.8958 19.9185 19.4932 19.6207 18.513C19.5077 18.1985 19.3336 17.9095 19.1085 17.6624C18.8834 17.4154 18.6117 17.2152 18.309 17.0733C18.0063 16.9314 17.6785 16.8506 17.3445 16.8356C17.0104 16.8206 16.6767 16.8716 16.3625 16.9857C14.9173 17.489 14.2648 19.0687 14.2516 20.4866L15.2326 19.7426C14.6148 19.5597 13.9594 19.5443 13.3337 19.6981C12.708 19.8519 12.1345 20.1694 11.6722 20.6179C11.164 21.1074 10.7797 21.7108 10.5513 22.3782C10.3228 23.0455 10.2567 23.7577 10.3584 24.4557C10.449 25.2 10.6574 25.9253 10.9759 26.6043C11.2561 27.2169 11.6065 27.9171 12.2459 28.2278C13.0167 28.5867 13.7699 28.114 14.4356 27.7158C15.1552 27.2622 15.8456 26.7638 16.5026 26.2236L15.1888 25.8823C15.9464 28.1534 18.7361 29.0111 20.8294 28.0703C21.9462 27.5627 22.9228 26.438 22.7344 25.1383C22.5505 23.9087 21.3374 22.9197 20.1068 23.2829L20.9827 24.4206C21.679 23.4273 22.2615 21.9 21.2455 20.9198C21.0726 20.7254 20.8585 20.5719 20.6188 20.4705C20.3791 20.3691 20.1198 20.3224 19.8598 20.3337C19.5997 20.345 19.3455 20.4141 19.1155 20.5359C18.8855 20.6577 18.6856 20.8292 18.5303 21.038C17.9566 21.8563 19.2966 22.6308 19.8703 21.8213L19.8572 21.8125Z" fill="#FAC7B7"/>
<path d="M21.8936 10.8986C21.968 10.8986 22.0425 10.9423 22.1388 11.0911C22.2069 11.1945 22.2522 11.3112 22.2719 11.4334C22.2915 11.5556 22.285 11.6805 22.2527 11.8C22.0337 12.4346 21.0484 12.5965 20.4484 12.6096C19.6766 12.6779 18.9044 12.4819 18.2587 12.0539C17.5887 11.5287 17.8646 10.7673 18.2587 10.159C18.7106 9.518 19.3403 9.02313 20.0703 8.73542C20.8002 8.44771 21.5984 8.37974 22.3666 8.53988C23.1456 8.74833 23.8327 9.21063 24.319 9.85352C24.8053 10.4964 25.063 11.2831 25.0511 12.0889C24.981 13.8874 23.1986 15.2484 21.4644 15.0515C21.2595 15.0537 21.0637 15.1361 20.9188 15.2808C20.7739 15.4256 20.6915 15.6213 20.6893 15.826C20.6937 16.03 20.7768 16.2245 20.9213 16.3688C21.0657 16.5131 21.2602 16.5961 21.4644 16.6006C23.9256 16.8763 26.2817 14.872 26.5707 12.4564C26.6762 11.2226 26.3325 9.99216 25.6028 8.99125C24.873 7.99035 23.8063 7.28622 22.5987 7.00826C21.362 6.76849 20.0804 6.95739 18.9657 7.54377C17.851 8.13016 16.9697 9.07894 16.4676 10.2334C16.2269 10.8178 16.2075 11.4698 16.4131 12.0674C16.6186 12.665 17.035 13.1673 17.5843 13.4804C18.6216 14.0718 19.8294 14.2925 21.009 14.1062C22.3228 13.9356 23.7504 13.1172 23.7811 11.625C23.8117 10.3122 22.7738 9.14378 21.4338 9.40634C20.4528 9.59451 20.8688 11.0867 21.8454 10.8986H21.8936Z" fill="#FAC7B7"/>
<path d="M26.4745 22.9503C26.6146 21.55 25.9183 19.34 27.2978 18.3773C27.3916 18.301 27.5027 18.249 27.6214 18.2258C27.7402 18.2027 27.8627 18.2091 27.9783 18.2446C28.094 18.2801 28.199 18.3435 28.2843 18.4292C28.3695 18.515 28.4323 18.6204 28.4671 18.7362C28.6542 19.3302 28.6963 19.9605 28.5897 20.5741C28.5416 20.912 28.5955 21.2566 28.7445 21.5638C28.8935 21.8709 29.1309 22.1266 29.4261 22.2983C29.8991 22.5827 30.2188 22.7359 30.267 23.366C30.3764 24.7664 28.6992 25.1164 27.6875 24.5957C27.554 24.5223 27.4019 24.4893 27.2499 24.501C27.0979 24.5126 26.9526 24.5682 26.8317 24.6611C26.7109 24.754 26.6198 24.8801 26.5695 25.0239C26.5193 25.1677 26.5121 25.3231 26.5489 25.4709C26.6505 25.8376 26.675 26.2213 26.6207 26.5979C26.5665 26.9745 26.4347 27.3358 26.2336 27.6589C26.025 28.0034 25.7477 28.3013 25.419 28.5341C25.1782 28.7048 24.6395 29.0374 24.3417 28.9149C24.0439 28.7923 23.9038 28.0396 23.8425 27.7815C23.6955 27.1431 23.7085 26.4784 23.8804 25.8463C24.0523 25.2142 24.3777 24.6343 24.8278 24.1581C25.5198 23.4404 24.4249 22.342 23.733 23.0641C22.7763 24.065 22.2281 25.3868 22.1958 26.7706C22.1652 27.9521 22.5593 30.0176 23.8906 30.4115C25.222 30.8053 26.6234 29.7507 27.3459 28.7573C27.7346 28.2287 27.9993 27.6196 28.1206 26.975C28.2419 26.3304 28.2166 25.6668 28.0466 25.0333L26.908 25.9085C28.2218 26.5999 30.0261 26.5474 31.0903 25.3834C31.5481 24.8628 31.8052 24.1963 31.8157 23.5034C31.8261 22.8105 31.5891 22.1365 31.1472 21.6025C30.9167 21.3602 30.6454 21.1603 30.3458 21.0117C30.013 20.8192 30.1444 20.5741 30.175 20.224C30.2435 19.5267 30.1506 18.823 29.9035 18.1673C29.7743 17.8145 29.5605 17.4988 29.2809 17.2478C29.0013 16.9968 28.6643 16.8181 28.2995 16.7274C27.9347 16.6367 27.5533 16.6368 27.1885 16.7276C26.8238 16.8184 26.4869 16.9972 26.2073 17.2483C24.4556 18.7099 25.1212 20.9504 24.9242 22.9372C24.8234 23.9262 26.3737 23.9218 26.4745 22.9372V22.9503Z" fill="#FAC7B7"/>
<path d="M34.6813 10.0672C33.2492 9.94029 32.5178 12.1983 33.6039 13.1304C34.69 14.0625 36.5863 13.4193 37.1644 12.1108C37.3372 11.7532 37.4093 11.3553 37.3731 10.9598C37.3368 10.5644 37.1935 10.1862 36.9585 9.8659C36.7073 9.55884 36.3458 9.3622 35.9513 9.31804C35.5568 9.27388 35.1607 9.3857 34.8477 9.62959" fill="#FAC7B7"/>
<path d="M39.4986 23.6373C39.8183 25.3877 41.5526 26.4686 43.2561 26.4993C44.1764 26.5492 45.0908 26.3253 45.8838 25.856C46.5407 25.3921 47.0837 24.4907 46.5188 23.738L45.6429 24.8757C46.9182 25.2072 48.2727 25.0282 49.4179 24.3769C49.9755 24.0845 50.4454 23.6496 50.7799 23.1166C50.9394 22.8101 50.983 22.4563 50.9025 22.1203C50.8221 21.7843 50.623 21.4886 50.342 21.2874C48.2837 19.5763 45.4633 19.6726 42.9496 19.887C41.9598 19.9702 41.9511 21.5193 42.9496 21.4362C44.7013 21.2874 46.7246 21.0948 48.3888 21.8738C48.5921 21.9671 48.7883 22.0753 48.9756 22.1976C49.0588 22.2501 49.142 22.307 49.2208 22.3683C49.2997 22.4295 49.4705 22.6352 49.4135 22.4645C49.3566 22.2939 49.4573 22.4208 49.3522 22.4645C49.2471 22.5083 49.1727 22.6527 49.0851 22.7227C48.9256 22.8572 48.7524 22.9745 48.5683 23.0728C47.8008 23.5018 46.8976 23.6193 46.0458 23.401C45.4502 23.2522 44.732 23.9655 45.1699 24.5388C45.3495 24.7795 45.1699 24.4075 45.2006 24.4031C45.2312 24.3988 45.0823 24.5388 45.0342 24.5738C44.828 24.7063 44.5971 24.7956 44.3554 24.8364C43.8397 24.9809 43.2985 25.0108 42.77 24.9239C42.3361 24.8618 41.9322 24.6669 41.6138 24.366C41.2954 24.0651 41.0781 23.6729 40.992 23.2435C40.8168 22.2632 39.3235 22.679 39.4986 23.6548V23.6373Z" fill="#FAC7B7"/>
<path d="M63.1034 89.8776V84.6264C63.1034 84.4209 63.0217 84.2239 62.8764 84.0787C62.731 83.9334 62.5338 83.8518 62.3282 83.8518C62.1227 83.8518 61.9255 83.9334 61.7801 84.0787C61.6348 84.2239 61.5531 84.4209 61.5531 84.6264V89.8776C61.5531 90.0831 61.6348 90.2801 61.7801 90.4253C61.9255 90.5706 62.1227 90.6522 62.3282 90.6522C62.5338 90.6522 62.731 90.5706 62.8764 90.4253C63.0217 90.2801 63.1034 90.0831 63.1034 89.8776Z" fill="#122D1C"/>
<path d="M68.8666 89.4223V81.2873C68.8666 81.0818 68.7849 80.8848 68.6395 80.7396C68.4942 80.5943 68.297 80.5127 68.0914 80.5127C67.8858 80.5127 67.6887 80.5943 67.5433 80.7396C67.3979 80.8848 67.3163 81.0818 67.3163 81.2873V89.4223C67.3163 89.6278 67.3979 89.8248 67.5433 89.97C67.6887 90.1153 67.8858 90.1969 68.0914 90.1969C68.297 90.1969 68.4942 90.1153 68.6395 89.97C68.7849 89.8248 68.8666 89.6278 68.8666 89.4223V89.4223Z" fill="#122D1C"/>
<path d="M74.8007 86.998V79.2042C74.8007 78.9988 74.719 78.8018 74.5736 78.6565C74.4283 78.5113 74.2311 78.4297 74.0255 78.4297C73.82 78.4297 73.6228 78.5113 73.4774 78.6565C73.332 78.8018 73.2504 78.9988 73.2504 79.2042V86.998C73.2504 87.2034 73.332 87.4004 73.4774 87.5457C73.6228 87.6909 73.82 87.7726 74.0255 87.7726C74.2311 87.7726 74.4283 87.6909 74.5736 87.5457C74.719 87.4004 74.8007 87.2034 74.8007 86.998V86.998Z" fill="#122D1C"/>
<path d="M80.5639 86.7706V77.9616C80.5639 77.7561 80.4823 77.5591 80.3369 77.4139C80.1915 77.2686 79.9944 77.187 79.7888 77.187C79.5832 77.187 79.3861 77.2686 79.2407 77.4139C79.0953 77.5591 79.0137 77.7561 79.0137 77.9616V86.7706C79.0137 86.976 79.0953 87.173 79.2407 87.3183C79.3861 87.4635 79.5832 87.5451 79.7888 87.5451C79.9944 87.5451 80.1915 87.4635 80.3369 87.3183C80.4823 87.173 80.5639 86.976 80.5639 86.7706V86.7706Z" fill="#122D1C"/>
<path d="M85.9897 84.5693V78.6398C85.9897 78.4344 85.908 78.2374 85.7627 78.0921C85.6173 77.9468 85.4202 77.8652 85.2146 77.8652C85.009 77.8652 84.8118 77.9468 84.6665 78.0921C84.5211 78.2374 84.4395 78.4344 84.4395 78.6398V84.5693C84.4395 84.7748 84.5211 84.9718 84.6665 85.117C84.8118 85.2623 85.009 85.3439 85.2146 85.3439C85.4202 85.3439 85.6173 85.2623 85.7627 85.117C85.908 84.9718 85.9897 84.7748 85.9897 84.5693V84.5693Z" fill="#122D1C"/>
<path d="M90.9077 84.0005V77.5634C90.9077 77.3579 90.826 77.1609 90.6807 77.0157C90.5353 76.8704 90.3381 76.7888 90.1326 76.7888C89.927 76.7888 89.7298 76.8704 89.5845 77.0157C89.4391 77.1609 89.3574 77.3579 89.3574 77.5634V84.0005C89.3574 84.206 89.4391 84.403 89.5845 84.5482C89.7298 84.6935 89.927 84.7751 90.1326 84.7751C90.3381 84.7751 90.5353 84.6935 90.6807 84.5482C90.826 84.403 90.9077 84.206 90.9077 84.0005Z" fill="#122D1C"/>
<path d="M94.8623 81.9132V77.6815C94.8623 77.4761 94.7806 77.2791 94.6353 77.1339C94.4899 76.9886 94.2928 76.907 94.0872 76.907C93.8816 76.907 93.6844 76.9886 93.5391 77.1339C93.3937 77.2791 93.312 77.4761 93.312 77.6815V81.9132C93.312 82.1186 93.3937 82.3156 93.5391 82.4609C93.6844 82.6061 93.8816 82.6877 94.0872 82.6877C94.2928 82.6877 94.4899 82.6061 94.6353 82.4609C94.7806 82.3156 94.8623 82.1186 94.8623 81.9132Z" fill="#122D1C"/>
<path d="M97.245 103.12L97.3369 103.098C97.28 103.098 97.4201 103.098 97.4333 103.098C97.4464 103.098 97.5734 103.098 97.5252 103.098C97.4771 103.098 97.6041 103.098 97.6172 103.098C97.7437 103.138 97.8622 103.201 97.9676 103.282C98.2184 103.524 98.3738 103.849 98.4055 104.196C98.4055 104.139 98.4055 104.196 98.4055 104.231C98.4098 104.292 98.4098 104.354 98.4055 104.415C98.4055 104.507 98.4055 104.599 98.4055 104.691V104.804C98.4055 104.704 98.4055 104.879 98.4055 104.879C98.3882 104.96 98.3663 105.041 98.3398 105.119C98.3285 105.164 98.3139 105.208 98.296 105.251C98.3223 105.181 98.296 105.286 98.296 105.299C98.2567 105.382 98.2114 105.463 98.1602 105.54C98.1602 105.561 98.0858 105.636 98.134 105.583L98.042 105.684L97.9457 105.776C97.8712 105.85 97.9719 105.776 97.88 105.828C97.7593 105.904 97.6721 106.022 97.6362 106.16C97.6004 106.297 97.6186 106.443 97.6873 106.568C97.7604 106.691 97.8788 106.78 98.0171 106.817C98.1555 106.854 98.3027 106.835 98.4274 106.765C98.8661 106.432 99.1988 105.979 99.3853 105.461C99.5719 104.943 99.6042 104.382 99.4784 103.846C99.2551 102.7 98.1953 101.741 96.9822 102.047C96.8443 102.086 96.7274 102.178 96.6568 102.303C96.5863 102.427 96.5679 102.575 96.6056 102.713C96.6455 102.85 96.7372 102.966 96.8614 103.037C96.9856 103.108 97.1325 103.129 97.2712 103.093L97.245 103.12Z" fill="#32142A"/>
<path d="M57.5328 109.517C56.9772 109.606 56.4082 109.488 55.9343 109.185C55.8487 109.124 55.7694 109.055 55.6978 108.979C55.6547 108.936 55.6138 108.891 55.5752 108.843C55.5008 108.76 55.5752 108.843 55.5008 108.747C55.4263 108.651 55.3694 108.541 55.3125 108.432C55.2617 108.344 55.222 108.25 55.1942 108.152C55.154 108.028 55.1204 107.903 55.0935 107.776C55.0935 107.714 55.0716 107.657 55.0628 107.596C55.0628 107.692 55.0628 107.522 55.0628 107.482C55.0563 107.364 55.0563 107.246 55.0628 107.128V106.957C55.0607 106.924 55.0607 106.89 55.0628 106.857C55.0628 106.769 55.0366 106.984 55.0628 106.835C55.0788 106.726 55.1037 106.62 55.1373 106.515C55.1373 106.463 55.168 106.415 55.1855 106.362C55.203 106.31 55.1592 106.397 55.2161 106.292C55.3465 106.043 55.5269 105.824 55.746 105.649C56.4313 105.163 57.2639 104.93 58.1021 104.988C58.8028 105.014 58.8028 103.929 58.1021 103.903C56.4642 103.842 54.4716 104.612 54.0556 106.362C53.8982 106.988 53.9102 107.645 54.0903 108.264C54.2703 108.884 54.6121 109.445 55.0804 109.889C55.418 110.169 55.8094 110.377 56.2305 110.499C56.6515 110.622 57.0932 110.657 57.5284 110.603C57.6707 110.597 57.8057 110.538 57.9064 110.438C58.0071 110.337 58.066 110.202 58.0714 110.06C58.0703 109.916 58.0127 109.779 57.9111 109.677C57.8096 109.576 57.6721 109.518 57.5284 109.517H57.5328Z" fill="#32142A"/>
<path d="M57.6861 105.811C57.2632 105.852 56.8741 106.06 56.6044 106.388C56.3365 106.682 56.1508 107.042 56.0657 107.43C56.0137 107.632 56.0103 107.843 56.056 108.046C56.1017 108.249 56.1951 108.438 56.3285 108.598C56.5447 108.825 56.8265 108.978 57.1343 109.036C57.4496 109.102 57.7693 109.115 58.089 109.154C58.1605 109.155 58.2315 109.141 58.2977 109.114C58.3639 109.087 58.424 109.047 58.4744 108.997C58.5741 108.893 58.6305 108.755 58.632 108.611C58.6303 108.469 58.5738 108.333 58.4744 108.231C58.3679 108.136 58.2318 108.08 58.089 108.073C57.9883 108.073 57.8876 108.047 57.7824 108.038H57.6335H57.5591C57.4452 108.038 57.6992 108.06 57.5854 108.038C57.4816 108.025 57.379 108.003 57.2788 107.973H57.2044C57.1036 107.942 57.3095 108.025 57.2438 107.973L57.1124 107.898C57.0467 107.859 57.2088 107.99 57.1606 107.933L57.108 107.881C57.0423 107.815 57.165 107.981 57.1387 107.92L57.0993 107.854C57.0686 107.802 57.1474 107.981 57.1299 107.924C57.1124 107.868 57.1299 107.924 57.1299 107.889C57.1319 107.868 57.1319 107.846 57.1299 107.824C57.1781 107.959 57.1299 107.92 57.1299 107.854C57.1277 107.817 57.1277 107.779 57.1299 107.741C57.1275 107.728 57.1275 107.714 57.1299 107.701C57.1299 107.701 57.1036 107.837 57.1299 107.78C57.1278 107.749 57.1278 107.719 57.1299 107.688C57.1443 107.624 57.1633 107.561 57.1869 107.5C57.2175 107.412 57.1299 107.622 57.1869 107.5L57.2263 107.421C57.2614 107.352 57.3009 107.284 57.3445 107.22L57.3752 107.185C57.4102 107.128 57.3007 107.268 57.3445 107.22C57.3699 107.187 57.3977 107.157 57.4277 107.128C57.4532 107.097 57.481 107.067 57.5109 107.04L57.546 107.01C57.5985 106.962 57.5197 107.032 57.5065 107.04L57.6029 106.975C57.6364 106.96 57.6686 106.942 57.6992 106.922C57.6992 106.922 57.5854 106.962 57.6379 106.949H57.6905C57.7343 106.949 57.8744 106.922 57.6905 106.949C57.8341 106.946 57.9717 106.89 58.0759 106.791C58.1745 106.688 58.2309 106.553 58.2335 106.41C58.2324 106.267 58.1748 106.129 58.0732 106.028C57.9716 105.926 57.8341 105.869 57.6905 105.868L57.6861 105.811Z" fill="#32142A"/>
<path d="M96.623 104.682L96.496 104.734C96.5461 104.713 96.5993 104.7 96.6536 104.695H96.5091H96.6755H96.531C96.5929 104.702 96.6534 104.718 96.7106 104.743L96.5792 104.686C96.6355 104.71 96.6885 104.741 96.7368 104.778L96.6274 104.69C96.671 104.725 96.7107 104.765 96.7456 104.809L96.658 104.699C96.6855 104.736 96.709 104.776 96.7281 104.817L96.6755 104.686C96.6947 104.739 96.7094 104.793 96.7193 104.848L96.6974 104.704C96.7062 104.763 96.7062 104.823 96.6974 104.883V104.739C96.6881 104.799 96.6719 104.857 96.6492 104.914L96.7062 104.787C96.6809 104.842 96.6485 104.893 96.6098 104.94L96.6974 104.83C96.6654 104.871 96.6287 104.908 96.5879 104.94L96.7018 104.852L96.623 104.905C96.501 104.977 96.4115 105.093 96.3733 105.229C96.3459 105.332 96.3499 105.442 96.3846 105.543C96.4194 105.645 96.4835 105.733 96.5688 105.799C96.654 105.864 96.7567 105.902 96.8637 105.909C96.9708 105.916 97.0775 105.891 97.1704 105.837C97.3581 105.726 97.5101 105.563 97.6083 105.369C97.715 105.167 97.7636 104.94 97.7485 104.712C97.7356 104.561 97.6955 104.412 97.6302 104.275C97.5552 104.124 97.4481 103.992 97.3164 103.888C97.1847 103.784 97.0317 103.71 96.8682 103.671C96.75 103.638 96.6272 103.625 96.5047 103.631C96.3392 103.641 96.1771 103.683 96.0274 103.754C95.9075 103.828 95.8187 103.943 95.7778 104.078C95.7571 104.151 95.7515 104.227 95.7613 104.302C95.7711 104.378 95.796 104.45 95.8347 104.515C95.9064 104.637 96.0225 104.727 96.1588 104.765H96.3033C96.3988 104.765 96.4925 104.739 96.5748 104.69L96.623 104.682Z" fill="#32142A"/>
</svg>
