<svg width="210" height="329" viewBox="0 0 210 329" fill="none" xmlns="http://www.w3.org/2000/svg">
<path d="M40.4411 173.04C27.0664 171.88 13.5959 173.492 0.873651 177.775C0.712313 177.827 0.563082 177.91 0.434924 178.021C0.306766 178.132 0.202325 178.267 0.127878 178.419C0.0534298 178.571 0.0105117 178.737 0.00170112 178.906C-0.00710942 179.075 0.0183698 179.244 0.076608 179.403C0.266308 179.857 0.592224 180.241 1.00941 180.501C1.82835 181.009 2.83122 181.075 3.79468 181.123C7.94047 181.327 12.0921 181.396 16.2496 181.329C18.3911 181.294 20.5983 181.206 22.5515 180.318C23.8215 179.74 24.9251 178.847 26.1863 178.252C30.535 176.209 35.7027 178.09 40.4543 177.377" fill="#B26D55"/>
<path d="M191.214 305.298C190.696 309.495 191.145 313.755 192.527 317.752C192.777 318.474 193.057 319.288 192.72 319.98C192.326 320.78 191.306 321.004 190.417 321.13C177.632 322.936 164.738 323.862 151.826 323.901C151.024 323.901 150.144 323.87 149.562 323.318C148.773 322.57 148.992 321.179 149.728 320.378C150.464 319.577 151.559 319.218 152.596 318.899C160.85 316.343 169.21 314.177 177.677 312.4C178.311 312.393 178.924 312.174 179.418 311.777C179.911 311.38 180.258 310.829 180.401 310.212L183.029 303.512" fill="#B26D55"/>
<path d="M187.938 61.8929C187.553 45.2585 188.472 28.6194 190.688 12.1285C190.859 10.8638 191.643 9.18777 192.851 9.60349C196.174 18.1781 198.78 27.0129 200.642 36.0173C201.01 37.7984 201.33 39.7326 200.524 41.3649C199.679 43.0672 197.752 44.0999 197.117 45.8941C196.635 47.2419 196.999 48.7254 197.362 50.1082L200.126 60.6108" fill="#B26D55"/>
<path d="M126.189 30.6173C125.821 25.8911 124.205 20.0753 123.303 15.3886C122.488 11.1569 121.078 6.56209 122.843 2.69804C122.937 2.50419 123.078 2.33752 123.255 2.21392C123.431 2.09033 123.636 2.01392 123.85 1.99198C124.065 1.97004 124.281 2.0033 124.479 2.0886C124.677 2.1739 124.849 2.30838 124.98 2.47923C125.555 3.31146 125.957 4.25039 126.163 5.24052C127.015 8.63634 127.868 12.0322 128.72 15.428C128.491 11.1108 128.831 6.78219 129.732 2.55363C129.886 1.83313 130.172 1.14753 130.577 0.531891C130.724 0.326522 130.929 0.169546 131.166 0.0809273C131.403 -0.00769153 131.661 -0.0239484 131.907 0.0342248C132.153 0.092398 132.376 0.222372 132.548 0.407616C132.719 0.592861 132.832 0.825005 132.872 1.07452C133.8 6.76339 134.282 9.45029 134.321 15.2223C134.321 14.8197 137.742 15.1698 138.009 15.2223C140.312 15.7168 140.505 17.1959 140.54 19.3577C140.615 23.5806 137.277 24.6527 135.53 27.9216C135.005 28.9504 134.684 30.0707 134.584 31.2212" fill="#B26D55"/>
<path d="M38.4529 182.475C38.4748 182.958 38.3975 183.44 38.2258 183.891C38.054 184.343 37.7915 184.755 37.4544 185.101C37.1127 185.441 36.6883 185.686 36.223 185.813C35.7578 185.939 35.2676 185.943 34.8005 185.823C34.3163 185.65 33.8789 185.367 33.5225 184.996C33.1662 184.626 32.9006 184.178 32.7466 183.687C32.4448 182.707 32.297 181.685 32.3087 180.659C32.1466 176.126 31.989 171.539 32.9261 167.093C32.9802 166.597 33.2027 166.133 33.5568 165.781C33.9485 165.532 34.4068 165.408 34.8706 165.426C35.6282 165.387 36.4428 165.36 37.0603 165.776C37.9843 166.384 38.1507 167.645 38.2252 168.743L38.8952 178.502" fill="#39B55D"/>
<path d="M116.16 145.926L113.152 134.789C109.609 100.612 113.152 65.9015 119.944 32.2234L140.33 32.9761C151.221 58.2697 155.837 103.999 147.337 134.124L167.946 135.875C168.927 135.958 169.996 136.08 170.692 136.78C171.388 137.481 171.498 138.561 171.568 139.546C172.856 158.481 172.68 177.487 171.042 196.395C170.968 197.271 170.854 198.185 170.241 198.785C169.365 199.66 167.915 199.411 166.737 199.074C162.945 197.997 163.26 197.538 159.187 196.356C155.465 195.275 132.679 185.503 127.582 182.698C127.323 182.554 124.139 186.383 123.688 186.781C121.514 188.634 118.914 189.92 116.121 190.523C116.121 190.523 79.6758 197.293 33.0137 183.565C33.0137 183.565 32.6284 172.55 32.9262 167.964C54.4726 160.499 88.0798 158.407 112.131 158.998" fill="#39B55D"/>
<path d="M166.562 195.516C167.129 232.496 169.431 269.401 173.468 306.23L199.105 308.037C205.07 265.629 211.034 222.437 204.08 180.178L166.562 195.516Z" fill="#153A23"/>
<path d="M122.046 35.1333C120.964 35.2252 119.821 35.2121 118.867 34.6957C117.912 34.1794 117.211 33.0153 117.553 31.9607C117.991 30.486 119.887 30.1753 121.407 30.1315C127.538 29.974 133.669 29.8952 139.76 30.4597C140.746 30.5516 141.863 30.731 142.419 31.5625C142.975 32.3939 142.66 33.7505 141.898 34.4726C141.136 35.1946 140.076 35.5359 139.051 35.7854C134.57 36.8873 129.921 37.1338 125.348 36.5118" fill="#39B55D"/>
<path d="M112.206 158.455C109.911 156.521 109.757 152.871 110.362 150.241L111.579 144.92C111.89 143.282 112.375 141.681 113.024 140.146C113.104 139.912 113.241 139.701 113.423 139.534C113.606 139.366 113.827 139.247 114.067 139.187C114.4 139.156 114.736 139.22 115.035 139.371C117.697 140.54 118.24 143.283 118.03 145.66C117.745 148.933 116.576 152.14 115.402 155.326C115.087 156.201 114.737 157.107 113.905 157.764" fill="#39B55D"/>
<path d="M183.729 59.3155C173.788 85.4625 168.953 115.587 167.964 135.896L166.715 201.432C182.24 207.038 201.312 197.704 206.892 181.784C208.875 176.095 209.283 170.003 209.475 163.982C210.448 133.932 206.589 89.0289 202.74 59.2236L183.729 59.3155Z" fill="#153A23"/>
<path d="M125.584 126.225C128.462 126.567 131.356 127.14 134.264 127.149C136.091 127.149 141.955 127.49 142.349 124.886C142.699 122.598 139.633 121.272 137.969 120.55C133.805 118.773 129.951 116.646 125.948 114.568C120.348 111.65 114.662 108.904 108.89 106.328C98.9405 101.886 88.7453 97.9561 78.4188 94.5122C76.0408 93.7201 73.3169 93.0768 70.9739 93.5276C70.5865 93.5994 70.2235 93.7678 69.9187 94.0173C69.6138 94.2668 69.377 94.5892 69.2302 94.9546C69.0834 95.32 69.0314 95.7165 69.079 96.1074C69.1266 96.4982 69.2722 96.8707 69.5024 97.1903C75.6335 105.61 85.8812 111.741 96.7771 114.471" fill="#153A23"/>
<path d="M111.571 140.784C115.665 153.134 124.709 151.453 128.795 151.523C131.422 151.567 134.278 151.055 136.104 149.156C138.88 146.272 132.561 134.277 131.681 130.361L129.136 119.044C128.931 117.898 128.574 116.784 128.076 115.731C127.308 114.449 126.304 113.323 125.116 112.414C115.947 104.697 104.552 100.107 92.5905 99.3125C98.6572 109.429 103.379 120.293 106.635 131.63L111.571 140.784Z" fill="#FAC8B8"/>
<path d="M112.425 140.889C110.528 136.557 111.111 134.107 111.317 132.164C109.543 132.999 106.158 133.214 105.453 134.754C105.299 135.082 103.092 135.323 103.114 135.66C103.429 140.986 107.366 148.635 109.867 153.492" fill="#B26D56"/>
<path d="M92.5904 99.3125C89.8839 106.77 88.4868 114.639 88.4607 122.571C88.4169 126.615 88.8986 130.886 91.0883 134.277C92.2018 136.034 93.7435 137.479 95.5688 138.478C97.3941 139.477 99.4432 139.997 101.524 139.988C105.523 139.883 109.298 137.594 111.597 134.133C115.1 128.851 115.052 121.705 114.873 115.066L92.5904 99.3125Z" fill="#B26D55"/>
<path d="M92.5905 99.3125C92.8445 103.833 95.0779 108.94 97.0881 113.018C99.0325 116.957 101.708 118.838 104.253 119.582C108.413 120.803 113.011 115.066 115.455 111.478L92.5905 99.3125Z" fill="#FAC7B7"/>
<path d="M102.4 129.661C102.36 129.707 102.304 129.737 102.244 129.744C102.183 129.751 102.122 129.736 102.072 129.7C101.248 129.127 100.32 128.715 99.4704 128.177C98.6209 127.639 97.7187 126.812 97.399 125.779C96.8209 123.836 98.7128 122.278 100.491 123.35C100.984 123.675 101.426 124.07 101.805 124.523C101.814 124.533 101.826 124.539 101.839 124.541C101.852 124.544 101.865 124.542 101.877 124.536C101.889 124.53 101.898 124.521 101.904 124.509C101.91 124.497 101.912 124.484 101.91 124.471C101.854 124.193 101.855 123.907 101.911 123.63C101.968 123.353 102.079 123.09 102.238 122.856C102.777 122.037 104.021 121.254 105.045 121.324C106.491 121.425 106.639 123.075 106.359 124.169C106.035 125.512 104.84 126.794 103.968 127.818L102.4 129.661Z" fill="#F1673C"/>
<path d="M90.4883 117.049C90.6997 117.832 90.9796 118.595 91.3248 119.329C91.7058 120.204 92.4722 121 93.5145 120.677C94.4692 120.375 95.0078 119.364 95.4107 118.519C95.7681 117.639 95.9753 116.706 96.0238 115.758L95.3056 115.955C95.631 116.524 96.0717 117.02 96.5995 117.409C97.1274 117.799 97.7308 118.074 98.3712 118.217C98.8573 118.322 99.0675 117.578 98.577 117.473C98.0292 117.358 97.5119 117.129 97.0591 116.8C96.6063 116.471 96.2281 116.05 95.9494 115.565C95.9049 115.495 95.8392 115.442 95.7619 115.411C95.6846 115.381 95.5997 115.377 95.5196 115.398C95.4395 115.42 95.3683 115.466 95.3164 115.531C95.2646 115.596 95.2347 115.675 95.2312 115.758C95.1911 116.529 95.0361 117.29 94.7713 118.016C94.4779 118.672 94.0619 119.609 93.3481 119.906C92.5072 120.256 92.0824 119.149 91.8328 118.563C91.5867 118.007 91.3861 117.432 91.2328 116.843C91.2055 116.745 91.1401 116.661 91.051 116.61C90.9619 116.56 90.8564 116.547 90.7577 116.574C90.6589 116.601 90.5751 116.667 90.5246 116.756C90.4741 116.845 90.461 116.95 90.4883 117.049V117.049Z" fill="#010101"/>
<path d="M95.2311 118.003C95.4695 118.276 95.7239 118.535 95.9932 118.777C96.2913 119.077 96.688 119.259 97.1099 119.289C97.2118 119.286 97.3085 119.244 97.3802 119.171C97.4519 119.099 97.4931 119.002 97.4953 118.9C97.4941 118.798 97.4532 118.701 97.3811 118.629C97.3091 118.557 97.2118 118.516 97.1099 118.515H97.0092C97.1318 118.515 97.0792 118.515 97.0442 118.515H96.9917C96.9522 118.515 96.8428 118.449 96.961 118.515C96.926 118.515 96.8866 118.484 96.8515 118.462C96.7765 118.423 96.7048 118.377 96.6369 118.327L96.5844 118.287C96.6807 118.353 96.6106 118.309 96.5844 118.287L96.4793 118.2C96.2297 117.971 95.9928 117.728 95.7698 117.473C95.6969 117.401 95.5985 117.361 95.4961 117.361C95.3937 117.361 95.2953 117.401 95.2224 117.473C95.1525 117.547 95.1135 117.645 95.1135 117.747C95.1135 117.848 95.1525 117.946 95.2224 118.02L95.2311 118.003Z" fill="#010101"/>
<path d="M93.4444 111.833C93.2606 111.762 93.1069 111.631 93.0095 111.46C92.912 111.289 92.8769 111.09 92.9102 110.896C92.9667 110.597 93.0862 110.314 93.2605 110.065C93.299 109.996 93.3511 109.937 93.4136 109.889C93.4762 109.842 93.5477 109.808 93.624 109.789C93.7625 109.786 93.8986 109.826 94.0138 109.903C95.1113 110.446 96.1404 111.117 97.0793 111.903C97.8697 112.585 98.4613 113.468 98.7916 114.458C98.8038 114.499 98.8031 114.543 98.7896 114.584C98.7762 114.625 98.7505 114.66 98.7162 114.686C98.6819 114.712 98.6405 114.726 98.5976 114.728C98.5547 114.729 98.5124 114.718 98.4763 114.695L96.6983 113.522C95.6799 112.845 94.592 112.279 93.4532 111.833H93.4444Z" fill="#FAC7B7"/>
<path d="M88.8549 115.473C88.1454 117.473 87.2958 120.191 86.5864 122.191C86.3674 122.803 86.1484 123.482 86.3805 124.09C86.8448 125.328 88.6009 125.276 89.884 124.991L88.8549 115.473Z" fill="#C63D32"/>
<path d="M114.597 125.061C111.242 124.886 109.933 129.696 109.666 132.203C108.93 139.017 111.522 147.703 118.643 150.097C119.484 150.381 121.81 150.534 122.291 149.773C122.539 149.277 122.605 148.711 122.48 148.171C121.64 141.084 119.777 134.157 116.948 127.604" fill="#FAC8B8"/>
<path d="M97.1625 99.7984C98.3799 105.697 95.8224 109.097 105.523 116.427C107.489 117.915 105.111 115.491 104.673 115.115C99.3259 110.633 98.104 103.789 98.2705 100.341C98.3011 99.7765 97.342 97.6147 97.4603 98.153L97.1625 99.7984Z" fill="white"/>
<path d="M112.389 115.46C111.054 113.96 109.547 112.621 107.901 111.469C106.518 110.429 105 109.579 103.39 108.944C102.864 108.73 101.507 108.599 102.028 108.813C103.745 109.513 105.93 111.124 107.432 112.213C108.934 113.303 110.06 115.237 111.242 116.651C111.242 116.651 111.715 116.213 112.267 115.592L112.389 115.46Z" fill="white"/>
<path d="M104.437 102.813C106.044 108.192 109.67 110.506 113.519 114.125C114.522 115.071 117.115 116.559 117.877 117.714C118.875 119.224 119.427 119.954 120.067 121.652C121.477 125.276 123.027 129.901 123.697 133.748C124.032 135.387 124.076 137.073 123.828 138.728C123.61 140.168 123.246 141.583 122.742 142.951C122.563 143.48 122.65 144.263 122.904 143.743C124.166 141.196 125.348 135.743 125.011 133.533C124.634 131.087 123.338 128.448 122.033 124.982C120.802 121.709 119.405 116.55 117.093 113.867C115.24 111.732 113.375 111.548 111.019 110.012C107.415 107.662 105.12 104.949 104.191 101.842C104.029 101.304 104.261 102.28 104.423 102.831L104.437 102.813Z" fill="white"/>
<path d="M117.842 147.388C119.668 147.791 120.632 148.359 122.484 148.6C124.262 148.828 127.415 149.038 129.198 148.631C132.092 147.97 132.228 144.132 131.786 141.485C131.479 139.634 130.174 138.64 129.487 136.912C128.761 135.012 128.201 133.053 127.814 131.057C127.06 127.389 126.658 123.648 125.72 120.016C124.783 116.384 123.272 112.743 120.636 109.951C120.556 109.866 120.445 109.817 120.329 109.813C120.212 109.81 120.099 109.853 120.014 109.933C119.929 110.013 119.88 110.124 119.876 110.24C119.873 110.357 119.916 110.47 119.997 110.555C124.612 115.452 124.735 122.869 125.834 129.201C126.447 132.702 127.205 134.973 129.697 138.535C131.256 140.758 131.659 145.274 128.965 147.287C127.376 148.478 125.024 148.023 123.202 147.808C121.192 147.57 119.196 147.231 117.22 146.793C116.673 146.675 115.446 146.793 115.998 146.902L117.842 147.388Z" fill="white"/>
<path d="M112.341 139.795C112.961 139.82 113.577 139.686 114.131 139.406C114.684 139.125 115.157 138.708 115.503 138.194C116.353 137.021 117.693 135.253 117.837 133.848C118.162 130.518 116.997 127.381 115.727 124.221C115.516 123.7 114.746 124.12 114.951 124.659C116.024 127.319 116.112 130.225 115.902 133.052C115.744 135.183 115.534 139.717 112.508 139.493C111.943 139.45 111.776 139.76 112.341 139.8V139.795Z" fill="white"/>
<path d="M115.008 143.191C117.2 142.878 119.196 141.759 120.605 140.054C122.388 137.896 120.666 134.881 120.018 132.299C119.883 131.752 119.046 129.21 118.941 129.765C118.818 130.422 120.404 137.445 119.287 139.721C118.17 141.997 115.748 142.425 113.528 142.784C112.968 142.876 112.722 143.537 113.279 143.445L115.008 143.191Z" fill="white"/>
<path d="M92.5905 99.3125L128.076 115.731L125.449 91.6982L104.739 82.2634L92.5905 99.3125Z" fill="#153A23"/>
<path d="M113.519 114.126C115.078 113.64 116.257 113.316 118.035 114.239C118.931 114.696 119.69 115.382 120.235 116.228C120.78 117.074 121.09 118.048 121.135 119.053C121.157 121.355 119.484 123.455 117.382 124.392C115.28 125.328 112.832 125.267 110.603 124.676" fill="#B26D56"/>
<path d="M114.706 122.121C115.58 122.153 116.443 121.92 117.18 121.451C117.918 120.982 118.495 120.3 118.836 119.495C119.061 119.012 119.105 118.463 118.959 117.95C118.825 117.585 118.632 117.243 118.389 116.939C117.991 116.366 117.457 115.9 116.835 115.583C115.914 115.182 114.885 115.103 113.914 115.36C113.427 115.469 113.633 116.213 114.119 116.108C114.982 115.869 115.903 115.969 116.694 116.388C117.282 116.753 117.761 117.268 118.083 117.88C118.595 118.804 117.894 119.876 117.207 120.506C116.523 121.106 115.633 121.42 114.724 121.381C114.224 121.355 114.224 122.129 114.724 122.156L114.706 122.121Z" fill="#010101"/>
<path d="M114.514 120.16C114.895 120.131 115.269 120.041 115.622 119.893C115.928 119.754 116.175 119.51 116.318 119.206C116.397 119.034 116.432 118.845 116.422 118.656C116.411 118.467 116.354 118.283 116.257 118.121C116.062 117.813 115.771 117.579 115.429 117.456C115.027 117.33 114.605 117.279 114.185 117.307C114.083 117.308 113.986 117.349 113.914 117.421C113.842 117.493 113.801 117.59 113.8 117.692C113.801 117.794 113.842 117.892 113.914 117.965C113.985 118.037 114.083 118.079 114.185 118.081C114.373 118.081 114.562 118.081 114.746 118.081C114.746 118.081 114.912 118.081 114.829 118.081L114.973 118.112C115.058 118.129 115.142 118.152 115.223 118.182C115.157 118.16 115.271 118.208 115.28 118.213L115.389 118.278C115.473 118.331 115.332 118.23 115.389 118.278C115.446 118.327 115.455 118.335 115.481 118.366C115.508 118.397 115.573 118.484 115.521 118.405C115.521 118.436 115.56 118.462 115.578 118.497C115.595 118.532 115.63 118.615 115.578 118.523C115.593 118.56 115.604 118.598 115.613 118.637C115.613 118.681 115.613 118.677 115.613 118.637V118.698C115.619 118.729 115.619 118.76 115.613 118.79C115.648 118.69 115.613 118.812 115.613 118.834C115.613 118.856 115.613 118.869 115.613 118.834L115.586 118.887L115.521 118.987C115.56 118.935 115.521 118.987 115.521 118.987L115.433 119.075C115.398 119.101 115.403 119.101 115.433 119.075L115.385 119.11C115.321 119.152 115.254 119.189 115.184 119.219C115.258 119.189 115.122 119.219 115.109 119.241C115.064 119.259 115.017 119.272 114.969 119.281C114.887 119.303 114.804 119.321 114.719 119.333L114.579 119.355H114.509C114.407 119.357 114.31 119.399 114.238 119.472C114.166 119.544 114.125 119.642 114.124 119.744C114.124 119.928 114.295 120.156 114.509 120.129L114.514 120.16Z" fill="#010101"/>
<path d="M159.196 196.369L167.696 200.22L172.75 135.949C169.917 135.621 167.71 135.914 164.867 135.586L159.196 196.369Z" fill="#153A23"/>
<path d="M204.991 186.103C204.991 186.103 197.866 200.106 175.991 203.06C175.991 203.06 193.552 203.76 206.257 197.507L204.991 186.103Z" fill="#122D1C"/>
<path d="M34.1699 168.389C35.2171 168.374 36.264 168.439 37.3011 168.585C37.4403 168.619 37.5868 168.598 37.7112 168.527C37.8356 168.456 37.9285 168.341 37.9712 168.205C38.0075 168.066 37.988 167.919 37.9167 167.794C37.8455 167.67 37.7282 167.578 37.5901 167.54C36.458 167.371 35.3144 167.292 34.1699 167.303C34.0259 167.303 33.8877 167.36 33.7859 167.462C33.684 167.564 33.6268 167.702 33.6268 167.846C33.6268 167.99 33.684 168.128 33.7859 168.23C33.8877 168.331 34.0259 168.389 34.1699 168.389Z" fill="#153A23"/>
<path d="M32.6108 171.474C34.2416 171.299 35.8898 171.385 37.4938 171.727C37.6315 171.762 37.7774 171.742 37.9002 171.671C38.023 171.599 38.113 171.483 38.1508 171.346C38.1886 171.209 38.1712 171.063 38.1024 170.939C38.0337 170.815 37.9189 170.722 37.7828 170.682C36.0849 170.313 34.3395 170.214 32.6108 170.388C32.4678 170.392 32.3316 170.45 32.2305 170.551C32.1294 170.652 32.0711 170.788 32.0677 170.931C32.0689 171.075 32.1265 171.212 32.2281 171.313C32.3297 171.415 32.4671 171.472 32.6108 171.474V171.474Z" fill="#153A23"/>
<path d="M33.0574 174.743C33.5314 174.69 34.0086 174.673 34.4851 174.69C34.7172 174.69 34.9493 174.721 35.1814 174.747H35.2603L35.4267 174.769L35.8121 174.843C35.9513 174.878 36.0983 174.857 36.223 174.786C36.3476 174.716 36.4403 174.6 36.4821 174.463C36.5185 174.324 36.4989 174.177 36.4277 174.052C36.3564 173.928 36.2392 173.836 36.1011 173.797C35.1006 173.589 34.0738 173.538 33.0574 173.644C32.9145 173.648 32.7783 173.706 32.6772 173.807C32.576 173.908 32.5177 174.044 32.5144 174.187C32.5167 174.33 32.5746 174.467 32.676 174.568C32.7773 174.669 32.9141 174.727 33.0574 174.73V174.743Z" fill="#153A23"/>
<path d="M32.694 177.968H36.1975C36.3415 177.968 36.4797 177.911 36.5815 177.809C36.6833 177.707 36.7406 177.569 36.7406 177.425C36.7406 177.281 36.6833 177.143 36.5815 177.042C36.4797 176.94 36.3415 176.883 36.1975 176.883L32.694 176.904C32.5504 176.906 32.4129 176.963 32.3113 177.065C32.2097 177.166 32.1521 177.304 32.151 177.447C32.1543 177.59 32.2126 177.726 32.3137 177.827C32.4149 177.928 32.5511 177.986 32.694 177.99V177.968Z" fill="#153A23"/>
<path d="M32.7377 184.16L36.2412 184.134C36.3163 184.14 36.392 184.131 36.4635 184.107C36.535 184.083 36.6006 184.045 36.6563 183.994C36.712 183.943 36.7564 183.881 36.7869 183.812C36.8173 183.743 36.833 183.669 36.833 183.593C36.833 183.518 36.8173 183.443 36.7869 183.374C36.7564 183.305 36.712 183.243 36.6563 183.193C36.6006 183.142 36.535 183.103 36.4635 183.079C36.392 183.055 36.3163 183.046 36.2412 183.053L32.7377 183.075C32.5937 183.075 32.4556 183.132 32.3538 183.234C32.2519 183.335 32.1947 183.473 32.1947 183.617C32.1947 183.761 32.2519 183.899 32.3538 184.001C32.4556 184.103 32.5937 184.16 32.7377 184.16V184.16Z" fill="#153A23"/>
<path d="M32.0984 181.241H35.8033C35.9463 181.238 36.0825 181.179 36.1836 181.078C36.2847 180.977 36.343 180.841 36.3463 180.698C36.3452 180.555 36.2876 180.417 36.186 180.316C36.0844 180.214 35.947 180.157 35.8033 180.156H32.0984C32.0232 180.149 31.9475 180.158 31.8761 180.182C31.8046 180.206 31.7389 180.245 31.6833 180.296C31.6276 180.346 31.5831 180.408 31.5527 180.477C31.5223 180.546 31.5066 180.621 31.5066 180.696C31.5066 180.772 31.5223 180.846 31.5527 180.915C31.5831 180.984 31.6276 181.046 31.6833 181.097C31.7389 181.148 31.8046 181.186 31.8761 181.21C31.9475 181.234 32.0232 181.243 32.0984 181.237V181.241Z" fill="#153A23"/>
<path d="M120.566 33.8249C120.496 33.3567 120.439 32.8228 120.404 32.3021C120.369 31.7813 120.351 31.2299 120.356 30.6961C120.362 30.621 120.353 30.5453 120.329 30.4739C120.305 30.4025 120.266 30.3369 120.216 30.2813C120.165 30.2257 120.103 30.1812 120.034 30.1508C119.965 30.1204 119.89 30.1047 119.815 30.1047C119.739 30.1047 119.665 30.1204 119.596 30.1508C119.527 30.1812 119.465 30.2257 119.414 30.2813C119.363 30.3369 119.324 30.4025 119.3 30.4739C119.276 30.5453 119.267 30.621 119.274 30.6961C119.265 31.8401 119.349 32.9831 119.524 34.1138C119.562 34.2515 119.654 34.3684 119.779 34.4389C119.904 34.5094 120.051 34.5278 120.189 34.4901C120.325 34.4484 120.44 34.3562 120.51 34.2325C120.58 34.1087 120.6 33.9629 120.566 33.8249V33.8249Z" fill="#153A23"/>
<path d="M123.754 34.337C123.369 32.7441 123.237 31.1004 123.364 29.4665C123.364 29.3233 123.308 29.1859 123.207 29.0843C123.106 28.9827 122.969 28.925 122.826 28.9238C122.682 28.9261 122.545 28.984 122.444 29.0853C122.343 29.1865 122.285 29.3232 122.283 29.4665C122.154 31.1986 122.301 32.9401 122.72 34.6258C122.882 35.3041 123.929 35.0153 123.767 34.337H123.754Z" fill="#153A23"/>
<path d="M127.038 33.4485C126.975 33.1891 126.926 32.926 126.894 32.6608C126.894 32.744 126.894 32.6608 126.894 32.6258V32.5208C126.894 32.4508 126.894 32.3808 126.872 32.3108C126.872 32.1445 126.841 31.9826 126.828 31.8206C126.793 31.2377 126.793 30.6532 126.828 30.0702C126.827 29.9267 126.77 29.7893 126.668 29.6878C126.566 29.5863 126.429 29.5287 126.285 29.5276C126.143 29.531 126.007 29.5894 125.907 29.6905C125.806 29.7917 125.749 29.9278 125.747 30.0702C125.705 30.6661 125.705 31.2641 125.747 31.86C125.779 32.4862 125.866 33.1084 126.005 33.7198C126.021 33.7917 126.051 33.8597 126.094 33.9195C126.136 33.9794 126.191 34.03 126.254 34.0681C126.317 34.1063 126.387 34.1312 126.46 34.1415C126.533 34.1518 126.607 34.1471 126.678 34.1278C126.749 34.1085 126.815 34.0749 126.873 34.0292C126.931 33.9834 126.979 33.9265 127.013 33.8617C127.048 33.7969 127.07 33.7257 127.076 33.6525C127.083 33.5792 127.074 33.5053 127.052 33.4354L127.038 33.4485Z" fill="#153A23"/>
<path d="M130.078 33.9257L129.924 31.0375C129.921 30.8946 129.863 30.7585 129.762 30.6575C129.661 30.5565 129.524 30.4982 129.381 30.4949C129.238 30.496 129.1 30.5536 128.999 30.6551C128.897 30.7566 128.84 30.8939 128.838 31.0375L128.992 33.9257C128.995 34.0681 129.053 34.2038 129.155 34.3041C129.256 34.4044 129.392 34.4617 129.535 34.464C129.678 34.464 129.815 34.4074 129.917 34.3066C130.019 34.2058 130.077 34.0689 130.078 33.9257V33.9257Z" fill="#153A23"/>
<path d="M136.152 33.1118L135.653 29.6372C135.614 29.4983 135.522 29.3804 135.396 29.309C135.271 29.2377 135.122 29.2189 134.983 29.2565C134.847 29.3 134.733 29.3932 134.663 29.5174C134.593 29.6416 134.573 29.7875 134.606 29.926L135.105 33.4006C135.144 33.5384 135.236 33.6553 135.361 33.7258C135.485 33.7962 135.633 33.8147 135.771 33.777C135.908 33.7362 136.024 33.6443 136.095 33.5205C136.165 33.3967 136.186 33.2504 136.152 33.1118V33.1118Z" fill="#153A23"/>
<path d="M132.902 33.6851C132.881 32.451 132.867 31.217 132.841 29.9829C132.848 29.9079 132.839 29.8322 132.815 29.7608C132.791 29.6894 132.752 29.6238 132.701 29.5682C132.65 29.5125 132.588 29.4681 132.519 29.4377C132.45 29.4073 132.376 29.3916 132.3 29.3916C132.225 29.3916 132.15 29.4073 132.081 29.4377C132.012 29.4681 131.95 29.5125 131.899 29.5682C131.849 29.6238 131.81 29.6894 131.786 29.7608C131.762 29.8322 131.753 29.9079 131.759 29.9829C131.781 31.217 131.794 32.451 131.816 33.6851C131.816 33.829 131.874 33.967 131.975 34.0688C132.077 34.1705 132.215 34.2277 132.359 34.2277C132.503 34.2277 132.642 34.1705 132.743 34.0688C132.845 33.967 132.902 33.829 132.902 33.6851Z" fill="#153A23"/>
<path d="M138.863 33.7682V29.9479C138.863 29.804 138.805 29.666 138.704 29.5642C138.602 29.4624 138.464 29.4053 138.32 29.4053C138.176 29.4053 138.038 29.4624 137.936 29.5642C137.834 29.666 137.777 29.804 137.777 29.9479V33.7682C137.777 33.9121 137.834 34.0501 137.936 34.1519C138.038 34.2537 138.176 34.3108 138.32 34.3108C138.464 34.3108 138.602 34.2537 138.704 34.1519C138.805 34.0501 138.863 33.9121 138.863 33.7682Z" fill="#153A23"/>
<path d="M141.648 34.0833V31.3964C141.647 31.2528 141.589 31.1155 141.488 31.014C141.386 30.9124 141.249 30.8549 141.105 30.8538C140.962 30.8571 140.826 30.9153 140.725 31.0164C140.624 31.1174 140.565 31.2535 140.562 31.3964V34.0833C140.562 34.2272 140.619 34.3652 140.721 34.467C140.823 34.5687 140.961 34.6259 141.105 34.6259C141.249 34.6259 141.387 34.5687 141.489 34.467C141.591 34.3652 141.648 34.2272 141.648 34.0833Z" fill="#153A23"/>
<path d="M127.59 182.711C128.93 178.506 129.679 175.241 129.622 169.623L132.412 185.026L127.59 182.711Z" fill="#153A23"/>
<path d="M112.56 158.696C114.288 155.611 115.812 152.417 117.124 149.134C117.386 148.486 116.335 148.202 116.077 148.845C114.799 152.041 113.311 155.149 111.623 158.149C111.557 158.272 111.541 158.417 111.579 158.552C111.617 158.687 111.707 158.802 111.828 158.873C111.949 158.944 112.094 158.965 112.23 158.932C112.367 158.899 112.485 158.814 112.56 158.696V158.696Z" fill="#153A23"/>
<path d="M108.952 155.422H108.921H109L109.158 155.448L109.49 155.505C109.749 155.553 110.003 155.61 110.257 155.676C110.511 155.742 110.743 155.812 110.979 155.895L111.141 155.96C111.207 155.96 111.041 155.912 111.141 155.96L111.207 155.987L111.496 156.144C111.62 156.216 111.767 156.236 111.906 156.2C112.045 156.164 112.163 156.075 112.236 155.952C112.305 155.827 112.324 155.68 112.288 155.541C112.252 155.403 112.165 155.284 112.044 155.208C111.579 154.943 111.077 154.749 110.555 154.634C110.03 154.503 109.498 154.403 108.961 154.337C108.817 154.338 108.68 154.396 108.579 154.497C108.478 154.599 108.422 154.736 108.422 154.88C108.425 155.02 108.482 155.154 108.58 155.255C108.678 155.356 108.811 155.416 108.952 155.422V155.422Z" fill="#153A23"/>
<path d="M110.309 151.663C110.104 151.694 110.309 151.663 110.353 151.663H110.55C110.695 151.663 110.839 151.663 110.988 151.663C111.356 151.663 111.724 151.72 112.087 151.764L112.359 151.795C112.232 151.795 112.394 151.795 112.407 151.795L112.547 151.816L113.06 151.895C113.322 151.939 113.582 151.996 113.839 152.066C113.908 152.087 113.981 152.093 114.053 152.085C114.125 152.078 114.194 152.056 114.258 152.021C114.321 151.986 114.376 151.939 114.421 151.882C114.466 151.825 114.499 151.76 114.518 151.69C114.537 151.621 114.543 151.548 114.533 151.476C114.524 151.405 114.5 151.336 114.464 151.273C114.428 151.211 114.379 151.156 114.322 151.113C114.264 151.069 114.198 151.038 114.128 151.02C113.459 150.849 112.776 150.731 112.087 150.67C111.409 150.558 110.719 150.533 110.034 150.595C109.895 150.634 109.776 150.727 109.705 150.852C109.634 150.977 109.615 151.126 109.653 151.265C109.694 151.401 109.787 151.516 109.91 151.586C110.034 151.656 110.18 151.676 110.318 151.641L110.309 151.663Z" fill="#153A23"/>
<path d="M110.169 149.204C110.445 149.181 110.723 149.192 110.997 149.234H111.054H111.185L111.483 149.283L112.122 149.405C112.922 149.557 113.707 149.777 114.47 150.061C114.538 150.08 114.61 150.086 114.68 150.077C114.751 150.068 114.819 150.046 114.881 150.011C114.942 149.976 114.997 149.929 115.04 149.873C115.084 149.817 115.116 149.754 115.135 149.685C115.154 149.617 115.16 149.545 115.151 149.475C115.142 149.404 115.12 149.336 115.085 149.275C115.05 149.213 115.003 149.159 114.947 149.115C114.891 149.071 114.827 149.039 114.759 149.02C113.977 148.727 113.171 148.503 112.35 148.35C111.912 148.259 111.474 148.189 111.036 148.132C110.747 148.083 110.453 148.071 110.16 148.097C110.018 148.099 109.882 148.156 109.78 148.256C109.679 148.357 109.621 148.492 109.617 148.635C109.617 148.779 109.675 148.917 109.776 149.019C109.878 149.12 110.016 149.178 110.16 149.178L110.169 149.204Z" fill="#153A23"/>
<path d="M109.276 153.584C109.858 153.619 110.445 153.619 111.028 153.663C111.6 153.695 112.164 153.814 112.7 154.018C112.84 154.055 112.988 154.036 113.114 153.965C113.239 153.894 113.332 153.776 113.371 153.637C113.405 153.498 113.384 153.352 113.313 153.228C113.242 153.104 113.126 153.012 112.99 152.972C111.807 152.508 110.515 152.578 109.271 152.499C109.128 152.5 108.99 152.558 108.889 152.659C108.787 152.761 108.73 152.898 108.728 153.042C108.732 153.185 108.79 153.321 108.891 153.422C108.992 153.523 109.128 153.581 109.271 153.584H109.276Z" fill="#153A23"/>
<path d="M110.76 147.108C111.645 147.114 112.526 147.218 113.388 147.418C114.264 147.58 115.14 147.773 116.055 147.93C116.193 147.965 116.339 147.945 116.463 147.875C116.587 147.805 116.679 147.69 116.721 147.554C116.758 147.416 116.74 147.269 116.669 147.144C116.599 147.019 116.482 146.928 116.344 146.889C115.424 146.727 114.518 146.526 113.603 146.359C112.676 146.147 111.729 146.034 110.778 146.022C110.082 146.053 110.077 147.138 110.778 147.108H110.76Z" fill="#153A23"/>
<path d="M206.366 114.051C206.483 114.289 206.519 114.559 206.469 114.819C206.419 115.08 206.286 115.317 206.09 115.495C205.933 115.624 205.75 115.719 205.555 115.775C205.359 115.83 205.154 115.845 204.952 115.817C204.751 115.79 204.557 115.722 204.383 115.617C204.208 115.512 204.058 115.372 203.94 115.207C203.845 115.03 203.795 114.833 203.791 114.632C203.788 114.432 203.832 114.233 203.921 114.053C204.009 113.873 204.14 113.717 204.3 113.597C204.461 113.477 204.649 113.398 204.846 113.364C204.846 113.364 205.937 113.128 206.366 114.051Z" fill="#FAC7B7"/>
<path d="M206.366 101.045C206.483 101.283 206.519 101.552 206.47 101.811C206.42 102.071 206.287 102.308 206.09 102.485C205.933 102.614 205.751 102.709 205.555 102.765C205.36 102.821 205.155 102.836 204.953 102.809C204.752 102.783 204.558 102.715 204.383 102.61C204.209 102.505 204.058 102.366 203.94 102.201C203.502 101.496 204.028 100.402 204.847 100.358C204.847 100.358 205.937 100.118 206.366 101.045Z" fill="#FAC7B7"/>
<path d="M206.366 88.0313C206.483 88.2694 206.519 88.5389 206.469 88.7992C206.419 89.0596 206.286 89.2969 206.09 89.4753C205.933 89.6041 205.75 89.6991 205.555 89.7545C205.359 89.8099 205.154 89.8245 204.952 89.7975C204.751 89.7704 204.557 89.7022 204.383 89.5971C204.208 89.492 204.058 89.3522 203.94 89.1865C203.845 89.0096 203.795 88.8127 203.791 88.6122C203.788 88.4117 203.832 88.2133 203.921 88.0333C204.009 87.8533 204.14 87.697 204.3 87.5772C204.461 87.4574 204.649 87.3775 204.846 87.3442C204.846 87.3442 205.937 87.1123 206.366 88.0313Z" fill="#FAC7B7"/>
<path d="M206.366 75.0298C206.483 75.2671 206.519 75.5361 206.47 75.7959C206.42 76.0557 206.287 76.2922 206.09 76.4695C205.933 76.5985 205.751 76.6938 205.555 76.7496C205.36 76.8053 205.155 76.8203 204.953 76.7937C204.752 76.767 204.558 76.6992 204.383 76.5945C204.209 76.4898 204.058 76.3505 203.94 76.1851C203.502 75.4806 204.028 74.3865 204.847 74.3428C204.847 74.3428 205.937 74.1021 206.366 75.0298Z" fill="#FAC7B7"/>
<path d="M206.366 62.02C206.483 62.2581 206.519 62.5276 206.469 62.788C206.419 63.0484 206.286 63.2856 206.09 63.4641C205.933 63.5928 205.751 63.6879 205.555 63.7433C205.359 63.7987 205.154 63.8133 204.952 63.7862C204.751 63.7591 204.557 63.6909 204.383 63.5858C204.209 63.4807 204.058 63.341 203.94 63.1753C203.845 62.9987 203.794 62.8021 203.791 62.6018C203.788 62.4015 203.832 62.2033 203.921 62.0236C204.009 61.844 204.14 61.688 204.301 61.5686C204.462 61.4493 204.649 61.37 204.847 61.3373C204.847 61.3373 205.937 61.0967 206.366 62.02Z" fill="#FAC7B7"/>
<path d="M206.366 178.471C206.483 178.708 206.519 178.977 206.47 179.237C206.42 179.497 206.287 179.733 206.09 179.911C205.933 180.04 205.751 180.135 205.555 180.191C205.36 180.246 205.155 180.261 204.953 180.235C204.752 180.208 204.558 180.14 204.383 180.036C204.209 179.931 204.058 179.792 203.94 179.626C203.845 179.449 203.795 179.252 203.791 179.052C203.788 178.851 203.832 178.653 203.921 178.473C204.009 178.293 204.14 178.137 204.3 178.017C204.461 177.897 204.649 177.817 204.846 177.784C204.846 177.784 205.937 177.543 206.366 178.471Z" fill="#FAC7B7"/>
<path d="M206.366 165.487C206.483 165.725 206.519 165.994 206.47 166.253C206.42 166.513 206.287 166.75 206.09 166.927C205.933 167.055 205.751 167.15 205.555 167.206C205.36 167.261 205.155 167.276 204.954 167.249C204.752 167.223 204.558 167.155 204.384 167.051C204.21 166.946 204.059 166.808 203.94 166.643C203.502 165.938 204.028 164.844 204.847 164.8C204.847 164.778 205.937 164.538 206.366 165.487Z" fill="#FAC7B7"/>
<path d="M206.366 152.455C206.483 152.693 206.519 152.963 206.469 153.223C206.419 153.484 206.286 153.721 206.09 153.899C205.933 154.028 205.75 154.123 205.555 154.179C205.359 154.234 205.154 154.249 204.952 154.222C204.751 154.194 204.557 154.126 204.383 154.021C204.208 153.916 204.058 153.776 203.94 153.611C203.845 153.434 203.795 153.237 203.791 153.036C203.788 152.836 203.832 152.637 203.921 152.457C204.009 152.277 204.14 152.121 204.3 152.001C204.461 151.881 204.649 151.802 204.846 151.768C204.846 151.768 205.937 151.528 206.366 152.455Z" fill="#FAC7B7"/>
<path d="M206.366 139.45C206.483 139.687 206.519 139.956 206.47 140.216C206.42 140.476 206.287 140.712 206.09 140.889C205.933 141.018 205.751 141.113 205.555 141.168C205.36 141.223 205.155 141.238 204.954 141.212C204.752 141.185 204.558 141.117 204.384 141.013C204.21 140.909 204.059 140.77 203.94 140.605C203.502 139.9 204.028 138.806 204.847 138.763C204.847 138.763 205.937 138.522 206.366 139.45Z" fill="#FAC7B7"/>
<path d="M206.366 126.44C206.483 126.678 206.519 126.947 206.469 127.208C206.419 127.468 206.286 127.705 206.09 127.884C205.933 128.013 205.75 128.108 205.555 128.163C205.359 128.218 205.154 128.233 204.952 128.206C204.751 128.179 204.557 128.111 204.383 128.006C204.208 127.9 204.058 127.761 203.94 127.595C203.845 127.418 203.795 127.221 203.791 127.021C203.788 126.82 203.832 126.622 203.921 126.442C204.009 126.262 204.14 126.105 204.3 125.986C204.461 125.866 204.649 125.786 204.846 125.753C204.846 125.753 205.937 125.516 206.366 126.44Z" fill="#FAC7B7"/>
<path d="M177.23 114.051C177.347 114.289 177.383 114.559 177.333 114.819C177.283 115.08 177.15 115.317 176.954 115.495C176.797 115.624 176.615 115.719 176.419 115.775C176.223 115.83 176.018 115.845 175.816 115.817C175.615 115.79 175.421 115.722 175.247 115.617C175.073 115.512 174.922 115.372 174.804 115.207C174.71 115.029 174.659 114.832 174.656 114.631C174.653 114.431 174.697 114.232 174.786 114.052C174.875 113.872 175.006 113.716 175.168 113.596C175.329 113.476 175.517 113.397 175.715 113.364C175.715 113.364 176.801 113.128 177.23 114.051Z" fill="#FAC7B7"/>
<path d="M177.23 101.046C177.345 101.281 177.381 101.546 177.333 101.803C177.285 102.06 177.155 102.295 176.963 102.472C176.806 102.601 176.624 102.696 176.428 102.752C176.233 102.808 176.028 102.823 175.826 102.796C175.625 102.77 175.431 102.702 175.256 102.597C175.082 102.493 174.931 102.353 174.813 102.188C174.717 102.011 174.666 101.813 174.662 101.612C174.659 101.411 174.703 101.212 174.792 101.032C174.882 100.851 175.013 100.695 175.175 100.576C175.337 100.456 175.525 100.377 175.724 100.345C175.724 100.345 176.801 100.118 177.23 101.046Z" fill="#FAC7B7"/>
<path d="M177.23 88.0313C177.347 88.2694 177.383 88.5389 177.333 88.7992C177.283 89.0596 177.15 89.2969 176.954 89.4753C176.797 89.6041 176.615 89.6991 176.419 89.7545C176.223 89.8099 176.018 89.8245 175.816 89.7975C175.615 89.7704 175.421 89.7022 175.247 89.5971C175.073 89.492 174.922 89.3522 174.804 89.1865C174.71 89.0093 174.659 88.8121 174.656 88.6113C174.653 88.4105 174.697 88.2119 174.786 88.0318C174.875 87.8518 175.006 87.6955 175.168 87.5759C175.329 87.4564 175.517 87.3769 175.715 87.3442C175.715 87.3442 176.801 87.1123 177.23 88.0313Z" fill="#FAC7B7"/>
<path d="M177.23 75.0298C177.347 75.2671 177.383 75.5361 177.334 75.7959C177.284 76.0557 177.151 76.2922 176.954 76.4695C176.797 76.5985 176.615 76.6938 176.42 76.7496C176.224 76.8053 176.019 76.8203 175.817 76.7937C175.616 76.767 175.422 76.6992 175.248 76.5945C175.073 76.4898 174.922 76.3505 174.804 76.1851C174.709 76.008 174.657 75.8107 174.653 75.6095C174.65 75.4084 174.695 75.2093 174.784 75.029C174.873 74.8486 175.004 74.6922 175.166 74.5729C175.328 74.4535 175.516 74.3746 175.715 74.3428C175.715 74.3428 176.801 74.1021 177.23 75.0298Z" fill="#FAC7B7"/>
<path d="M177.23 62.02C177.347 62.2581 177.383 62.5276 177.333 62.788C177.283 63.0484 177.15 63.2856 176.954 63.4641C176.797 63.5928 176.615 63.6879 176.419 63.7433C176.223 63.7987 176.018 63.8133 175.816 63.7862C175.615 63.7591 175.421 63.6909 175.247 63.5858C175.073 63.4807 174.922 63.341 174.804 63.1753C174.709 62.9984 174.659 62.8014 174.655 62.6009C174.652 62.4003 174.697 62.2019 174.786 62.0221C174.875 61.8424 175.006 61.6865 175.168 61.5674C175.329 61.4483 175.517 61.3694 175.715 61.3373C175.715 61.3373 176.801 61.0967 177.23 62.02Z" fill="#FAC7B7"/>
<path d="M177.23 178.471C177.352 178.709 177.393 178.982 177.344 179.245C177.296 179.509 177.162 179.749 176.963 179.928C176.806 180.057 176.624 180.153 176.428 180.208C176.233 180.264 176.028 180.279 175.826 180.252C175.625 180.226 175.431 180.158 175.256 180.053C175.082 179.949 174.931 179.809 174.813 179.644C174.718 179.467 174.668 179.269 174.664 179.069C174.661 178.868 174.706 178.669 174.795 178.489C174.884 178.309 175.015 178.153 175.176 178.033C175.338 177.914 175.525 177.834 175.724 177.802C175.724 177.802 176.801 177.543 177.23 178.471Z" fill="#FAC7B7"/>
<path d="M177.23 191.477C177.347 191.715 177.383 191.984 177.333 192.245C177.283 192.505 177.15 192.742 176.954 192.921C176.797 193.05 176.615 193.145 176.419 193.2C176.223 193.255 176.018 193.27 175.816 193.243C175.615 193.216 175.421 193.148 175.247 193.043C175.073 192.938 174.922 192.798 174.804 192.632C174.709 192.455 174.659 192.258 174.655 192.058C174.652 191.857 174.697 191.659 174.786 191.479C174.875 191.299 175.006 191.143 175.168 191.024C175.329 190.905 175.517 190.826 175.715 190.794C175.715 190.794 176.801 190.553 177.23 191.477Z" fill="#FAC7B7"/>
<path d="M177.23 165.487C177.347 165.725 177.383 165.994 177.334 166.253C177.284 166.513 177.151 166.75 176.954 166.927C176.797 167.056 176.615 167.15 176.419 167.206C176.224 167.261 176.019 167.276 175.818 167.249C175.616 167.223 175.422 167.155 175.248 167.051C175.074 166.946 174.923 166.808 174.804 166.643C174.709 166.466 174.657 166.268 174.653 166.067C174.65 165.866 174.695 165.667 174.784 165.487C174.873 165.306 175.004 165.15 175.166 165.03C175.328 164.911 175.516 164.832 175.715 164.8C175.715 164.8 176.801 164.538 177.23 165.487Z" fill="#FAC7B7"/>
<path d="M177.23 152.455C177.347 152.693 177.383 152.963 177.333 153.223C177.283 153.484 177.15 153.721 176.954 153.899C176.797 154.028 176.615 154.123 176.419 154.179C176.223 154.234 176.018 154.249 175.816 154.222C175.615 154.194 175.421 154.126 175.247 154.021C175.073 153.916 174.922 153.776 174.804 153.611C174.71 153.433 174.659 153.236 174.656 153.035C174.653 152.835 174.697 152.636 174.786 152.456C174.875 152.276 175.006 152.12 175.168 152C175.329 151.88 175.517 151.801 175.715 151.768C175.715 151.768 176.801 151.528 177.23 152.455Z" fill="#FAC7B7"/>
<path d="M177.23 139.45C177.347 139.687 177.383 139.956 177.334 140.216C177.284 140.476 177.151 140.712 176.954 140.889C176.797 141.018 176.615 141.113 176.419 141.168C176.224 141.223 176.019 141.238 175.818 141.212C175.616 141.185 175.422 141.117 175.248 141.013C175.074 140.909 174.923 140.77 174.804 140.605C174.709 140.428 174.657 140.231 174.653 140.029C174.65 139.828 174.695 139.629 174.784 139.449C174.873 139.269 175.004 139.112 175.166 138.993C175.328 138.873 175.516 138.795 175.715 138.763C175.715 138.763 176.801 138.522 177.23 139.45Z" fill="#FAC7B7"/>
<path d="M177.23 126.44C177.347 126.678 177.383 126.947 177.333 127.208C177.283 127.468 177.15 127.705 176.954 127.884C176.797 128.013 176.615 128.108 176.419 128.163C176.223 128.218 176.018 128.233 175.816 128.206C175.615 128.179 175.421 128.111 175.247 128.006C175.073 127.9 174.922 127.761 174.804 127.595C174.71 127.418 174.659 127.221 174.656 127.02C174.653 126.819 174.697 126.62 174.786 126.44C174.875 126.26 175.006 126.104 175.168 125.984C175.329 125.865 175.517 125.785 175.715 125.753C175.715 125.753 176.801 125.516 177.23 126.44Z" fill="#FAC7B7"/>
<path d="M192.107 106.621C192.224 106.858 192.26 107.127 192.21 107.387C192.161 107.646 192.027 107.883 191.831 108.06C191.674 108.189 191.492 108.285 191.296 108.34C191.101 108.396 190.896 108.411 190.694 108.384C190.493 108.358 190.299 108.29 190.124 108.185C189.95 108.081 189.799 107.941 189.681 107.776C189.243 107.071 189.768 105.977 190.592 105.934C190.592 105.934 191.682 105.693 192.107 106.621Z" fill="#FAC7B7"/>
<path d="M192.107 93.6106C192.223 93.8488 192.26 94.1182 192.21 94.3786C192.16 94.639 192.027 94.8762 191.831 95.0547C191.674 95.1834 191.491 95.2785 191.296 95.3339C191.1 95.3893 190.895 95.4039 190.693 95.3768C190.492 95.3497 190.298 95.2815 190.123 95.1764C189.949 95.0713 189.799 94.9316 189.681 94.7659C189.586 94.5886 189.535 94.3915 189.532 94.1907C189.529 93.9899 189.574 93.7912 189.663 93.6112C189.752 93.4311 189.883 93.2748 190.044 93.1553C190.206 93.0357 190.393 92.9563 190.592 92.9236C190.592 92.9236 191.682 92.6873 192.107 93.6106Z" fill="#FAC7B7"/>
<path d="M192.107 80.5918C192.224 80.8292 192.26 81.0981 192.21 81.3579C192.161 81.6177 192.027 81.8542 191.831 82.0316C191.674 82.1605 191.492 82.2558 191.296 82.3116C191.101 82.3673 190.896 82.3824 190.694 82.3557C190.493 82.329 190.299 82.2612 190.124 82.1566C189.95 82.0519 189.799 81.9125 189.681 81.7471C189.243 81.0426 189.768 79.9485 190.592 79.9048C190.592 79.9179 191.682 79.6772 192.107 80.5918Z" fill="#FAC7B7"/>
<path d="M192.107 67.595C192.223 67.8331 192.26 68.1026 192.21 68.363C192.16 68.6233 192.027 68.8606 191.831 69.0391C191.674 69.1678 191.491 69.2628 191.296 69.3182C191.1 69.3737 190.895 69.3883 190.693 69.3612C190.492 69.3341 190.298 69.2659 190.123 69.1608C189.949 69.0557 189.799 68.916 189.681 68.7503C189.586 68.573 189.535 68.3758 189.532 68.175C189.529 67.9742 189.574 67.7756 189.663 67.5955C189.752 67.4155 189.883 67.2592 190.044 67.1397C190.206 67.0201 190.393 66.9407 190.592 66.9079C190.592 66.9079 191.682 66.6716 192.107 67.595Z" fill="#FAC7B7"/>
<path d="M192.107 54.5894C192.224 54.8267 192.26 55.0956 192.21 55.3554C192.161 55.6152 192.027 55.8517 191.831 56.0291C191.674 56.1581 191.492 56.2534 191.296 56.3091C191.101 56.3649 190.896 56.3799 190.694 56.3532C190.493 56.3266 190.299 56.2588 190.124 56.1541C189.95 56.0494 189.799 55.9101 189.681 55.7447C189.243 55.0401 189.768 53.9461 190.592 53.9023C190.592 53.898 191.682 53.6617 192.107 54.5894Z" fill="#FAC7B7"/>
<path d="M192.107 171.036C192.228 171.273 192.269 171.543 192.223 171.805C192.177 172.067 192.047 172.307 191.853 172.489C191.695 172.618 191.513 172.713 191.317 172.768C191.122 172.824 190.917 172.838 190.715 172.811C190.513 172.784 190.319 172.716 190.145 172.611C189.971 172.506 189.82 172.366 189.703 172.2C189.265 171.5 189.79 170.406 190.614 170.362C190.592 170.353 191.682 170.113 192.107 171.036Z" fill="#FAC7B7"/>
<path d="M192.107 184.046C192.224 184.284 192.26 184.552 192.21 184.812C192.161 185.072 192.027 185.309 191.831 185.486C191.674 185.615 191.492 185.71 191.296 185.766C191.101 185.822 190.896 185.837 190.694 185.81C190.493 185.783 190.299 185.716 190.124 185.611C189.95 185.506 189.799 185.367 189.681 185.201C189.243 184.497 189.768 183.403 190.592 183.359C190.592 183.359 191.682 183.118 192.107 184.046Z" fill="#FAC7B7"/>
<path d="M192.107 197.052C192.223 197.29 192.26 197.559 192.21 197.82C192.16 198.08 192.027 198.317 191.831 198.496C191.674 198.625 191.491 198.72 191.296 198.775C191.1 198.83 190.895 198.845 190.693 198.818C190.492 198.791 190.298 198.723 190.123 198.618C189.949 198.513 189.799 198.373 189.681 198.207C189.586 198.03 189.535 197.833 189.532 197.632C189.529 197.431 189.574 197.232 189.663 197.052C189.752 196.872 189.883 196.716 190.044 196.596C190.206 196.477 190.393 196.398 190.592 196.365C190.592 196.365 191.682 196.12 192.107 197.052Z" fill="#FAC7B7"/>
<path d="M192.107 158.048C192.224 158.285 192.26 158.554 192.21 158.814C192.161 159.074 192.027 159.31 191.831 159.488C191.674 159.617 191.492 159.712 191.296 159.768C191.101 159.824 190.896 159.839 190.694 159.812C190.493 159.785 190.299 159.718 190.124 159.613C189.95 159.508 189.799 159.369 189.681 159.203C189.586 159.026 189.535 158.829 189.532 158.628C189.529 158.427 189.574 158.229 189.663 158.049C189.752 157.869 189.883 157.712 190.044 157.593C190.206 157.473 190.393 157.394 190.592 157.361C190.592 157.361 191.682 157.103 192.107 158.048Z" fill="#FAC7B7"/>
<path d="M192.107 145.025C192.224 145.262 192.26 145.531 192.21 145.791C192.161 146.051 192.027 146.287 191.831 146.465C191.674 146.593 191.492 146.688 191.296 146.743C191.101 146.799 190.896 146.813 190.694 146.787C190.493 146.76 190.299 146.693 190.125 146.588C189.95 146.484 189.799 146.345 189.681 146.18C189.243 145.476 189.768 144.382 190.592 144.338C190.592 144.338 191.682 144.097 192.107 145.025Z" fill="#FAC7B7"/>
<path d="M192.107 132.015C192.223 132.253 192.26 132.523 192.21 132.783C192.16 133.043 192.027 133.281 191.831 133.459C191.674 133.588 191.491 133.683 191.296 133.738C191.1 133.794 190.895 133.808 190.693 133.781C190.492 133.754 190.298 133.686 190.123 133.581C189.949 133.476 189.799 133.336 189.681 133.17C189.586 132.993 189.535 132.796 189.532 132.595C189.529 132.394 189.574 132.196 189.663 132.016C189.752 131.835 189.883 131.679 190.044 131.56C190.206 131.44 190.393 131.361 190.592 131.328C190.592 131.328 191.682 131.087 192.107 132.015Z" fill="#FAC7B7"/>
<path d="M192.107 119.009C192.224 119.247 192.26 119.516 192.21 119.775C192.161 120.035 192.027 120.272 191.831 120.449C191.674 120.577 191.492 120.672 191.296 120.728C191.101 120.783 190.896 120.798 190.694 120.771C190.493 120.744 190.299 120.677 190.125 120.573C189.95 120.468 189.799 120.329 189.681 120.165C189.243 119.46 189.768 118.366 190.592 118.322C190.592 118.322 191.682 118.082 192.107 119.009Z" fill="#FAC7B7"/>
<path d="M162.354 106.621C162.471 106.858 162.507 107.127 162.457 107.387C162.407 107.646 162.274 107.883 162.078 108.06C161.921 108.189 161.738 108.285 161.543 108.34C161.347 108.396 161.142 108.411 160.941 108.384C160.739 108.358 160.545 108.29 160.371 108.185C160.197 108.081 160.046 107.941 159.927 107.776C159.832 107.599 159.78 107.401 159.777 107.2C159.773 106.999 159.818 106.8 159.907 106.62C159.996 106.439 160.127 106.283 160.289 106.164C160.451 106.044 160.64 105.965 160.838 105.934C160.838 105.934 161.924 105.693 162.354 106.621Z" fill="#FAC7B7"/>
<path d="M162.354 93.6106C162.47 93.8488 162.506 94.1182 162.456 94.3786C162.407 94.639 162.274 94.8762 162.078 95.0547C161.92 95.1834 161.738 95.2785 161.542 95.3339C161.346 95.3893 161.141 95.4039 160.94 95.3768C160.738 95.3497 160.544 95.2815 160.37 95.1764C160.196 95.0713 160.045 94.9316 159.927 94.7659C159.833 94.5886 159.782 94.3915 159.779 94.1907C159.776 93.9899 159.821 93.7912 159.91 93.6112C159.999 93.4311 160.129 93.2748 160.291 93.1553C160.452 93.0357 160.64 92.9563 160.838 92.9236C160.838 92.9236 161.924 92.6873 162.354 93.6106Z" fill="#FAC7B7"/>
<path d="M162.354 80.5918C162.471 80.8291 162.507 81.0981 162.457 81.3579C162.407 81.6177 162.274 81.8542 162.078 82.0315C161.921 82.1605 161.738 82.2558 161.543 82.3116C161.347 82.3673 161.142 82.3823 160.941 82.3557C160.739 82.329 160.545 82.2612 160.371 82.1565C160.197 82.0518 160.046 81.9125 159.927 81.7471C159.832 81.57 159.78 81.3726 159.777 81.1715C159.773 80.9704 159.818 80.7713 159.907 80.591C159.996 80.4106 160.127 80.2542 160.289 80.1348C160.451 80.0155 160.64 79.9366 160.838 79.9048C160.838 79.9048 161.924 79.6772 162.354 80.5918Z" fill="#FAC7B7"/>
<path d="M162.354 67.595C162.47 67.8331 162.506 68.1026 162.456 68.363C162.407 68.6233 162.274 68.8606 162.078 69.0391C161.92 69.1678 161.738 69.2628 161.542 69.3182C161.346 69.3737 161.141 69.3883 160.94 69.3612C160.738 69.3341 160.544 69.2659 160.37 69.1608C160.196 69.0557 160.045 68.916 159.927 68.7503C159.833 68.573 159.782 68.3758 159.779 68.175C159.776 67.9742 159.821 67.7756 159.91 67.5955C159.999 67.4155 160.129 67.2592 160.291 67.1397C160.452 67.0201 160.64 66.9407 160.838 66.9079C160.838 66.9079 161.924 66.6716 162.354 67.595Z" fill="#FAC7B7"/>
<path d="M162.354 54.5894C162.471 54.8267 162.507 55.0956 162.457 55.3554C162.407 55.6152 162.274 55.8517 162.078 56.0291C161.921 56.1581 161.738 56.2534 161.543 56.3091C161.347 56.3649 161.142 56.3799 160.941 56.3532C160.739 56.3266 160.545 56.2588 160.371 56.1541C160.197 56.0494 160.046 55.9101 159.927 55.7447C159.832 55.5676 159.78 55.3702 159.777 55.1691C159.773 54.968 159.818 54.7689 159.907 54.5886C159.996 54.4082 160.127 54.2518 160.289 54.1324C160.451 54.013 160.64 53.9342 160.838 53.9024C160.838 53.9024 161.924 53.6617 162.354 54.5894Z" fill="#FAC7B7"/>
<path d="M162.354 171.036C162.472 171.276 162.508 171.547 162.458 171.81C162.407 172.072 162.272 172.31 162.073 172.489C161.916 172.618 161.734 172.713 161.538 172.768C161.342 172.824 161.137 172.838 160.935 172.811C160.734 172.784 160.54 172.716 160.366 172.611C160.192 172.506 160.041 172.366 159.923 172.2C159.828 172.023 159.778 171.826 159.774 171.626C159.771 171.425 159.816 171.227 159.905 171.047C159.994 170.867 160.125 170.711 160.287 170.592C160.448 170.473 160.636 170.394 160.834 170.362C160.834 170.362 161.924 170.113 162.354 171.036Z" fill="#FAC7B7"/>
<path d="M162.354 184.046C162.471 184.284 162.507 184.552 162.457 184.812C162.407 185.072 162.274 185.309 162.078 185.486C161.921 185.615 161.738 185.71 161.543 185.766C161.347 185.822 161.142 185.837 160.941 185.81C160.739 185.783 160.545 185.716 160.371 185.611C160.197 185.506 160.046 185.367 159.927 185.201C159.832 185.024 159.78 184.827 159.777 184.626C159.773 184.425 159.818 184.226 159.907 184.045C159.996 183.865 160.127 183.709 160.289 183.589C160.451 183.47 160.64 183.391 160.838 183.359C160.838 183.359 161.924 183.118 162.354 184.046Z" fill="#FAC7B7"/>
<path d="M162.354 197.052C162.47 197.29 162.506 197.559 162.456 197.82C162.407 198.08 162.274 198.317 162.078 198.496C161.92 198.625 161.738 198.72 161.542 198.775C161.346 198.83 161.141 198.845 160.94 198.818C160.738 198.791 160.544 198.723 160.37 198.618C160.196 198.513 160.045 198.373 159.927 198.207C159.833 198.03 159.782 197.833 159.779 197.632C159.776 197.431 159.821 197.232 159.91 197.052C159.999 196.872 160.129 196.716 160.291 196.596C160.452 196.477 160.64 196.398 160.838 196.365C160.838 196.365 161.924 196.12 162.354 197.052Z" fill="#FAC7B7"/>
<path d="M162.354 158.048C162.471 158.285 162.507 158.554 162.457 158.814C162.407 159.074 162.274 159.31 162.078 159.488C161.921 159.617 161.738 159.712 161.543 159.768C161.347 159.824 161.142 159.839 160.941 159.812C160.739 159.785 160.545 159.718 160.371 159.613C160.197 159.508 160.046 159.369 159.927 159.203C159.833 159.026 159.782 158.829 159.779 158.628C159.776 158.427 159.821 158.229 159.91 158.049C159.999 157.869 160.129 157.712 160.291 157.593C160.452 157.473 160.64 157.394 160.838 157.361C160.838 157.361 161.924 157.103 162.354 158.048Z" fill="#FAC7B7"/>
<path d="M162.354 145.025C162.471 145.262 162.507 145.531 162.457 145.791C162.407 146.051 162.274 146.287 162.078 146.465C161.92 146.593 161.738 146.688 161.543 146.743C161.347 146.799 161.142 146.813 160.941 146.787C160.74 146.76 160.546 146.693 160.371 146.588C160.197 146.484 160.046 146.345 159.927 146.18C159.832 146.003 159.78 145.806 159.777 145.605C159.773 145.404 159.818 145.204 159.907 145.024C159.996 144.844 160.127 144.687 160.289 144.568C160.451 144.449 160.64 144.37 160.838 144.338C160.838 144.338 161.924 144.097 162.354 145.025Z" fill="#FAC7B7"/>
<path d="M162.354 132.015C162.47 132.253 162.506 132.523 162.456 132.783C162.407 133.043 162.274 133.281 162.078 133.459C161.92 133.588 161.738 133.683 161.542 133.738C161.346 133.794 161.141 133.808 160.94 133.781C160.738 133.754 160.544 133.686 160.37 133.581C160.196 133.476 160.045 133.336 159.927 133.17C159.833 132.993 159.782 132.796 159.779 132.595C159.776 132.394 159.821 132.196 159.91 132.016C159.999 131.835 160.129 131.679 160.291 131.56C160.452 131.44 160.64 131.361 160.838 131.328C160.838 131.328 161.924 131.087 162.354 132.015Z" fill="#FAC7B7"/>
<path d="M162.354 119.009C162.471 119.247 162.507 119.516 162.457 119.775C162.407 120.035 162.274 120.272 162.078 120.449C161.92 120.577 161.738 120.672 161.543 120.728C161.347 120.783 161.142 120.798 160.941 120.771C160.74 120.744 160.546 120.677 160.371 120.573C160.197 120.468 160.046 120.329 159.927 120.165C159.832 119.987 159.78 119.79 159.777 119.589C159.773 119.388 159.818 119.189 159.907 119.008C159.996 118.828 160.127 118.672 160.289 118.552C160.451 118.433 160.64 118.354 160.838 118.322C160.838 118.322 161.924 118.082 162.354 119.009Z" fill="#FAC7B7"/>
<path d="M59.8154 176.182C59.3424 175.285 60.1439 173.885 61.2168 174.06C62.2897 174.235 62.6488 175.574 62.0927 176.362C61.7467 176.869 62.5306 177.473 62.9466 177.018C63.678 176.209 64.4882 175.268 65.5962 174.974C66.0795 174.833 66.597 174.866 67.0589 175.066C67.4618 175.268 67.6763 175.679 68.0486 175.942C68.8807 176.489 69.7784 175.915 70.6762 175.942C71.574 175.968 72.5199 176.462 72.7783 177.39C72.8216 177.522 72.9141 177.633 73.0367 177.699C73.1593 177.765 73.3025 177.781 73.4369 177.745C73.5713 177.708 73.6865 177.622 73.7587 177.503C73.8309 177.384 73.8547 177.242 73.825 177.106C73.6814 176.621 73.4192 176.18 73.0621 175.823C72.705 175.465 72.2643 175.202 71.7798 175.058C71.2822 174.893 70.7566 174.829 70.2339 174.869C69.9637 174.895 69.6959 174.94 69.4325 175.005C69.2343 175.075 69.0194 175.08 68.8181 175.02C68.6168 174.96 68.4395 174.839 68.3114 174.673C67.9243 174.291 67.4417 174.02 66.9139 173.888C66.3862 173.756 65.8327 173.769 65.3115 173.924C63.9977 174.261 63.0474 175.285 62.1846 176.248L63.0342 176.904C64.0371 175.438 63.0342 173.106 61.1993 172.966C59.2811 172.817 58.0111 175.106 58.8651 176.725C59.1935 177.342 60.1263 176.795 59.8023 176.178L59.8154 176.182Z" fill="#153A23"/>
<path d="M113.9 183.587C113.019 183.254 112.233 182.709 111.614 181.998C111.291 181.627 111.016 181.217 110.795 180.777C110.686 180.563 110.248 179.749 110.423 179.539C110.506 179.438 110.931 179.486 111.036 179.486C111.312 179.486 111.584 179.486 111.855 179.521C112.375 179.576 112.889 179.681 113.388 179.836C114.419 180.147 115.374 180.667 116.195 181.364C116.272 181.437 116.369 181.486 116.473 181.505C116.577 181.524 116.685 181.512 116.783 181.472C116.88 181.431 116.964 181.363 117.024 181.275C117.084 181.188 117.117 181.085 117.119 180.979L117.233 179.381L116.69 179.928L119.116 179.906C119.26 179.906 119.398 179.849 119.5 179.748C119.602 179.646 119.659 179.508 119.659 179.364C119.659 179.22 119.602 179.082 119.5 178.98C119.398 178.878 119.26 178.821 119.116 178.821L116.69 178.843C116.547 178.846 116.411 178.905 116.31 179.006C116.209 179.107 116.15 179.243 116.147 179.386L116.033 180.983L116.957 180.602C115.903 179.699 114.657 179.046 113.314 178.694C112.641 178.519 111.95 178.423 111.255 178.41C110.646 178.41 109.854 178.375 109.503 178.966C109.153 179.556 109.394 180.213 109.617 180.773C109.977 181.661 110.52 182.463 111.209 183.129C111.899 183.794 112.72 184.308 113.62 184.637C114.273 184.882 114.557 183.836 113.909 183.591L113.9 183.587Z" fill="#153A23"/>
<path d="M94.4604 164.84L94.5218 168.66C94.5251 168.766 94.559 168.869 94.6193 168.956C94.6796 169.043 94.7638 169.111 94.8617 169.152C94.9597 169.192 95.0673 169.204 95.1717 169.185C95.276 169.166 95.3727 169.117 95.4502 169.045C96.1158 168.371 97.0837 167.443 98.0515 168.109C98.3813 168.374 98.7313 168.614 99.0982 168.826C99.4487 168.993 99.8137 169.128 100.189 169.229C101.402 169.561 103.254 169.544 103.863 170.87C104.148 171.509 105.085 170.957 104.8 170.323C104.038 168.616 101.914 168.603 100.364 168.135C99.9564 168.027 99.569 167.854 99.2164 167.623C98.7216 167.29 98.3406 166.888 97.7143 166.787C96.51 166.59 95.4677 167.465 94.6838 168.262L95.6078 168.642L95.5465 164.822C95.5465 164.678 95.4893 164.54 95.3875 164.438C95.2856 164.337 95.1475 164.28 95.0035 164.28C94.8595 164.28 94.7213 164.337 94.6195 164.438C94.5177 164.54 94.4604 164.678 94.4604 164.822V164.84Z" fill="#153A23"/>
<path d="M82.3953 191.997C82.0304 191.457 81.8394 190.819 81.848 190.167C81.8566 189.516 82.0644 188.882 82.4435 188.352C82.8599 187.837 83.429 187.468 84.0689 187.298C84.7087 187.127 85.3863 187.164 86.0039 187.403C86.322 187.501 86.6117 187.675 86.8487 187.908C87.0857 188.142 87.2631 188.429 87.3659 188.746C87.5017 189.341 86.9849 189.661 86.4463 189.551C85.7806 189.416 85.5134 188.676 85.5003 188.068C85.4872 187.392 85.7314 186.737 86.1835 186.234C86.4001 185.965 86.689 185.763 87.0164 185.652C87.3437 185.542 87.6959 185.526 88.0316 185.608C88.3604 185.688 88.6529 185.876 88.8618 186.142C89.0707 186.408 89.184 186.736 89.1833 187.074C89.1527 187.774 90.2388 187.77 90.2694 187.074C90.2757 186.601 90.1483 186.136 89.902 185.732C89.6557 185.328 89.3004 185.001 88.8768 184.79C88.4452 184.56 87.9602 184.449 87.4715 184.469C86.9829 184.488 86.5081 184.637 86.0959 184.899C84.4755 185.928 83.661 188.715 85.2726 190.151C85.6248 190.464 86.0743 190.647 86.5457 190.669C87.017 190.691 87.4814 190.549 87.8608 190.269C88.7104 189.595 88.5746 188.396 87.9878 187.595C86.7878 185.958 84.2434 185.713 82.588 186.781C81.6806 187.406 81.0541 188.361 80.8429 189.441C80.6317 190.522 80.8526 191.642 81.4582 192.562C81.8479 193.135 82.772 192.593 82.3953 192.015V191.997Z" fill="#153A23"/>
<path d="M158.189 137.883C157.987 136.912 157.729 135.787 158.132 134.82C158.399 134.185 158.986 133.599 159.726 133.682C161.07 133.831 161.587 135.822 161.819 136.89C161.968 137.577 162.989 137.279 162.866 136.601C162.765 136.063 163.567 135.791 163.97 135.879C164.679 136.032 165.156 136.754 165.507 137.323C165.857 137.892 166.82 137.371 166.444 136.776C165.853 135.8 164.942 134.724 163.685 134.772C163.417 134.77 163.152 134.826 162.908 134.935C162.664 135.044 162.446 135.205 162.269 135.406C162.092 135.606 161.96 135.843 161.883 136.099C161.805 136.355 161.784 136.625 161.819 136.89L162.866 136.601C162.507 134.955 161.592 132.557 159.546 132.592C159.036 132.624 158.545 132.799 158.129 133.096C157.714 133.393 157.39 133.801 157.195 134.273C156.63 135.516 156.879 136.898 157.142 138.163C157.287 138.846 158.329 138.557 158.189 137.874V137.883Z" fill="#153A23"/>
<path d="M142.073 183.744C141.971 183.608 141.912 183.444 141.902 183.275C141.892 183.105 141.932 182.936 142.016 182.788C142.101 182.641 142.226 182.521 142.378 182.443C142.53 182.366 142.701 182.335 142.87 182.353C143.641 182.475 143.627 183.32 144.035 183.819C144.819 184.777 145.949 184.256 146.838 183.784C147.184 183.604 147.713 183.232 148.151 183.346C148.458 183.434 148.637 183.832 148.852 184.042C149.08 184.271 149.374 184.424 149.693 184.479C150.071 184.501 150.449 184.501 150.827 184.479C151.203 184.512 151.568 184.626 151.896 184.812C152.223 184.998 152.508 185.25 152.734 185.551C152.96 185.852 153.122 186.196 153.21 186.562C153.25 186.698 153.343 186.813 153.467 186.882C153.591 186.951 153.737 186.968 153.874 186.93C154.011 186.892 154.128 186.802 154.199 186.68C154.271 186.557 154.291 186.411 154.256 186.274C154.046 185.437 153.555 184.697 152.866 184.178C152.177 183.658 151.331 183.389 150.468 183.416C149.978 183.416 149.715 183.416 149.386 183.04C149.23 182.808 149.022 182.616 148.777 182.48C148.533 182.344 148.26 182.267 147.981 182.256C147.466 182.299 146.968 182.46 146.527 182.729C146.172 182.913 145.576 183.372 145.143 183.294C144.709 183.215 144.53 182.243 144.214 181.898C144.005 181.68 143.751 181.511 143.47 181.402C143.188 181.293 142.886 181.247 142.585 181.267C140.925 181.372 140.396 183.315 141.311 184.51C141.749 185.061 142.502 184.287 142.077 183.744H142.073Z" fill="#153A23"/>
<path d="M158.101 175.001C157.947 174.995 157.796 174.953 157.662 174.878C157.527 174.803 157.412 174.697 157.326 174.569C157.241 174.441 157.187 174.294 157.169 174.141C157.152 173.987 157.171 173.832 157.225 173.688L156.757 173.955L158.399 173.797C158.494 173.795 158.586 173.768 158.668 173.72C158.749 173.671 158.817 173.602 158.864 173.52C158.911 173.438 158.936 173.345 158.937 173.25C158.937 173.155 158.914 173.062 158.868 172.979C158.32 171.942 157.554 170.598 157.952 169.382C158.184 168.647 159.1 167.802 159.91 168.222C160.527 168.546 161.075 167.614 160.457 167.29C159.144 166.612 157.663 167.435 157.072 168.673C156.301 170.297 157.168 172.082 157.948 173.526L158.412 172.712L157.37 172.813C157.068 172.843 156.621 172.813 156.385 173.027C156.239 173.228 156.14 173.458 156.094 173.702C156.049 173.946 156.058 174.197 156.122 174.436C156.216 174.898 156.466 175.314 156.829 175.614C157.192 175.915 157.647 176.083 158.119 176.09C158.815 176.069 158.819 174.983 158.119 175.005L158.101 175.001Z" fill="#153A23"/>
<path d="M143.124 157.418C142.686 156.928 143.369 156.354 143.816 156.267C144.154 156.223 144.497 156.246 144.826 156.334C145.155 156.423 145.464 156.575 145.734 156.783C146.257 157.153 146.665 157.662 146.911 158.252C147.158 158.843 147.232 159.491 147.127 160.122L147.924 159.798C146.969 159.256 146.802 157.93 147.254 156.998C147.845 155.764 149.264 155.182 150.525 154.928C151.208 154.788 150.919 153.746 150.236 153.882C148.58 154.219 146.842 155.103 146.181 156.757C145.62 158.153 146.014 159.96 147.376 160.735C147.448 160.776 147.528 160.8 147.611 160.805C147.694 160.811 147.777 160.798 147.853 160.766C147.93 160.735 147.999 160.687 148.054 160.625C148.11 160.564 148.15 160.491 148.173 160.411C148.356 159.445 148.218 158.445 147.779 157.565C147.34 156.685 146.625 155.972 145.743 155.536C144.814 155.099 143.61 154.945 142.725 155.571C142.517 155.71 142.34 155.891 142.206 156.103C142.072 156.315 141.985 156.553 141.951 156.801C141.916 157.049 141.934 157.302 142.004 157.543C142.074 157.783 142.195 158.006 142.357 158.197C142.826 158.718 143.592 157.947 143.124 157.431V157.418Z" fill="#153A23"/>
<path d="M122.405 154.197C121.556 155.243 122.072 156.748 123.215 157.357C124.669 158.127 126.303 157.068 127.205 155.943L126.298 155.707C126.587 156.709 126.863 157.72 127.174 158.722C127.393 159.453 127.752 160.096 128.558 160.267C129.364 160.437 130.051 160.092 130.748 159.86C131.067 159.755 132.162 159.545 132.189 160.092C132.191 160.186 132.218 160.279 132.266 160.36C132.315 160.441 132.384 160.509 132.466 160.556C132.548 160.603 132.642 160.628 132.736 160.629C132.831 160.629 132.925 160.606 133.008 160.56L133.932 159.912C134.497 159.514 133.932 158.573 133.38 158.976L132.46 159.623L133.275 160.092C133.191 158.49 131.291 158.516 130.174 158.919C129.796 159.088 129.392 159.19 128.979 159.221C128.541 159.221 128.392 158.967 128.26 158.586C127.91 157.549 127.652 156.468 127.349 155.418C127.323 155.327 127.274 155.245 127.206 155.179C127.139 155.113 127.055 155.066 126.964 155.042C126.873 155.017 126.777 155.017 126.686 155.041C126.594 155.065 126.511 155.112 126.443 155.177C125.882 155.873 124.985 156.709 123.999 156.49C123.434 156.368 122.72 155.514 123.176 154.954C123.631 154.394 122.852 153.641 122.409 154.188L122.405 154.197Z" fill="#153A23"/>
<path d="M140.895 115.163C140.553 115.06 140.259 114.837 140.067 114.536C139.875 114.235 139.797 113.875 139.848 113.522C139.938 113.15 140.166 112.827 140.485 112.616C140.805 112.406 141.192 112.324 141.569 112.388C141.676 112.387 141.78 112.355 141.868 112.295C141.956 112.235 142.025 112.151 142.065 112.053C142.106 111.954 142.117 111.846 142.096 111.741C142.076 111.637 142.025 111.541 141.95 111.465L139.887 109.75V110.515C140.221 110.203 140.623 109.973 141.061 109.841C141.5 109.642 141.851 109.291 142.051 108.852C142.616 107.614 142.988 106.258 143.448 104.975C143.68 104.319 142.633 104.034 142.401 104.691C141.963 105.881 141.609 107.12 141.118 108.288C140.772 109.115 139.66 109.063 139.121 109.75C139.022 109.852 138.966 109.99 138.966 110.132C138.966 110.275 139.022 110.413 139.121 110.515L141.184 112.231L141.569 111.307C140.924 111.242 140.277 111.423 139.759 111.813C139.241 112.203 138.89 112.774 138.775 113.412C138.693 114.025 138.832 114.648 139.167 115.167C139.503 115.687 140.013 116.07 140.606 116.248C141.276 116.454 141.56 115.408 140.895 115.202V115.163Z" fill="#153A23"/>
<path d="M145.87 87.8956C145.718 87.6605 145.634 87.3877 145.629 87.1079C145.624 86.8281 145.696 86.5523 145.839 86.3115C145.987 86.028 146.209 85.7895 146.481 85.621C146.753 85.4524 147.065 85.3599 147.385 85.3531C148.145 85.3329 148.883 85.602 149.452 86.1058C149.773 86.3407 149.991 86.6902 150.061 87.0816C150.061 87.3486 149.859 87.668 149.57 87.5761L149.964 88.1013C149.916 86.4384 151.585 84.9111 153.258 85.2306C153.936 85.3575 154.23 84.316 153.542 84.1847C151.208 83.7471 148.808 85.6901 148.883 88.1013C148.885 88.2193 148.924 88.3335 148.996 88.4272C149.068 88.521 149.168 88.5893 149.281 88.622C149.582 88.7067 149.903 88.69 150.193 88.5745C150.484 88.459 150.728 88.2512 150.888 87.9831C151.047 87.7197 151.133 87.4193 151.139 87.112C151.144 86.8047 151.068 86.5015 150.919 86.2327C150.601 85.687 150.157 85.2257 149.624 84.8875C149.09 84.5494 148.483 84.3444 147.854 84.2897C147.287 84.2169 146.711 84.3096 146.196 84.5565C145.681 84.8035 145.248 85.1941 144.95 85.6813C144.669 86.1353 144.533 86.6642 144.56 87.1975C144.588 87.7307 144.777 88.2429 145.103 88.6658C145.205 88.7671 145.343 88.8239 145.487 88.8239C145.63 88.8239 145.768 88.7671 145.87 88.6658C145.968 88.5625 146.023 88.4254 146.023 88.2829C146.023 88.1403 145.968 88.0033 145.87 87.9V87.8956Z" fill="#153A23"/>
<path d="M132.031 39.2031C132.273 38.8552 132.638 38.6124 133.053 38.524C133.468 38.4357 133.9 38.5083 134.263 38.7273C134.626 38.9462 134.892 39.2951 135.007 39.7029C135.122 40.1107 135.077 40.5469 134.882 40.9229C134.663 41.3605 135.131 41.9775 135.622 41.6624C135.946 41.4568 136.279 41.7806 136.529 41.9863C136.919 42.3486 137.346 42.6697 137.803 42.9446C138.372 43.2334 139.034 43.1065 139.594 43.3822C139.851 43.5116 140.064 43.7139 140.207 43.9638C140.349 44.2136 140.415 44.5 140.395 44.7869C140.365 45.4871 141.451 45.4827 141.482 44.7869C141.494 44.4088 141.422 44.0326 141.27 43.6859C141.119 43.3392 140.892 43.0306 140.606 42.7827C140.324 42.5322 139.988 42.3496 139.625 42.2488C139.181 42.2092 138.741 42.1301 138.311 42.0125C137.264 41.5268 136.353 39.8945 135.035 40.7347L135.78 41.4743C136.106 40.8508 136.181 40.1262 135.989 39.4492C135.798 38.7722 135.354 38.1942 134.749 37.8341C134.144 37.4739 133.424 37.3588 132.737 37.5125C132.05 37.6662 131.448 38.077 131.054 38.6605C130.643 39.2206 131.584 39.7632 131.991 39.2075L132.031 39.2031Z" fill="#153A23"/>
<path d="M130.266 67.3894C129.333 67.6301 128.23 66.4617 128.76 65.5646C128.878 65.3903 129.034 65.2447 129.216 65.1385C129.398 65.0324 129.601 64.9683 129.811 64.9511C130.022 64.9339 130.233 64.964 130.43 65.0391C130.627 65.1142 130.804 65.2325 130.949 65.3852C131.313 65.8228 131.987 65.3502 131.856 64.8557C131.677 64.2064 131.632 63.5274 131.724 62.8602L131.203 63.2584C131.853 63.3077 132.464 63.5816 132.933 64.033C133.027 64.1228 133.15 64.1759 133.28 64.1827C133.41 64.1895 133.538 64.1495 133.641 64.0701C133.743 63.9906 133.814 63.8769 133.84 63.7497C133.866 63.6224 133.846 63.4901 133.783 63.3766C133.45 62.7377 134.282 61.9763 134.899 62.2038C135.517 62.4314 135.837 61.403 135.188 61.1579C133.625 60.5759 132.101 62.5058 132.846 63.9236L133.699 63.2628C133.022 62.6173 132.138 62.2314 131.203 62.1732C131.084 62.1735 130.969 62.2125 130.874 62.2843C130.779 62.3562 130.71 62.457 130.678 62.5714C130.544 63.429 130.588 64.305 130.809 65.1445L131.716 64.615C130.682 63.4072 128.449 63.7398 127.774 65.1533C126.942 66.8818 128.773 68.8992 130.577 68.4353C130.713 68.3947 130.828 68.3024 130.897 68.1782C130.965 68.054 130.983 67.9078 130.945 67.771C130.907 67.6341 130.817 67.5176 130.694 67.4462C130.572 67.3749 130.426 67.3545 130.288 67.3894H130.266Z" fill="#153A23"/>
<path d="M112.911 71.7917C112.498 72.6073 112.288 73.5099 112.297 74.4237C112.306 75.3375 112.535 76.2357 112.963 77.0429C113.357 77.765 114.001 78.4608 114.859 78.557C115.234 78.6092 115.615 78.5317 115.939 78.3375C116.264 78.1432 116.511 77.8439 116.642 77.4893C116.678 77.3506 116.659 77.2033 116.587 77.0789C116.516 76.9545 116.399 76.863 116.261 76.8241C115.589 76.6029 114.87 76.5681 114.181 76.7235C114.09 76.7466 114.007 76.7937 113.941 76.8599C113.874 76.9262 113.827 77.009 113.804 77.0998C113.366 79.4804 116.173 81.5678 118.319 80.3687L117.5 79.9005C117.555 80.6838 117.9 81.4186 118.468 81.9616C118.976 82.4386 119.747 81.6728 119.239 81.1914C118.866 80.8591 118.633 80.3978 118.586 79.9005C118.585 79.8059 118.559 79.7133 118.511 79.6318C118.462 79.5503 118.394 79.4827 118.312 79.4355C118.23 79.3883 118.137 79.3632 118.042 79.3627C117.948 79.3621 117.854 79.3861 117.772 79.4323C116.506 80.1412 114.584 78.8502 114.846 77.3886L114.47 77.7694C114.972 77.6643 115.493 77.6992 115.976 77.87L115.595 77.2005C115.42 77.6731 114.75 77.4674 114.474 77.2442C114.053 76.8523 113.75 76.3506 113.598 75.7957C113.226 74.6526 113.314 73.4093 113.843 72.3299C114.154 71.7085 113.222 71.1571 112.911 71.7829V71.7917Z" fill="#153A23"/>
<path d="M177.204 256.045C177.321 256.283 177.357 256.552 177.307 256.812C177.258 257.071 177.125 257.308 176.928 257.485C176.771 257.614 176.589 257.709 176.393 257.765C176.198 257.821 175.993 257.836 175.791 257.809C175.59 257.783 175.396 257.715 175.221 257.61C175.047 257.505 174.896 257.366 174.778 257.201C174.34 256.496 174.865 255.402 175.684 255.358C175.684 255.358 176.775 255.118 177.204 256.045Z" fill="#FAC7B7"/>
<path d="M177.204 243.035C177.321 243.274 177.357 243.543 177.307 243.803C177.257 244.064 177.124 244.301 176.928 244.479C176.771 244.608 176.588 244.703 176.393 244.759C176.197 244.814 175.992 244.829 175.79 244.802C175.589 244.775 175.395 244.706 175.221 244.601C175.046 244.496 174.896 244.356 174.778 244.191C174.683 244.014 174.632 243.817 174.629 243.616C174.626 243.416 174.67 243.217 174.759 243.037C174.847 242.858 174.977 242.701 175.138 242.581C175.299 242.462 175.486 242.382 175.684 242.348C175.684 242.348 176.775 242.112 177.204 243.035Z" fill="#FAC7B7"/>
<path d="M177.204 230.03C177.321 230.267 177.357 230.536 177.307 230.796C177.258 231.056 177.125 231.292 176.928 231.47C176.771 231.599 176.589 231.694 176.393 231.75C176.198 231.805 175.993 231.82 175.791 231.794C175.59 231.767 175.396 231.699 175.221 231.595C175.047 231.49 174.896 231.351 174.778 231.185C174.34 230.481 174.865 229.387 175.684 229.343C175.684 229.343 176.775 229.102 177.204 230.03Z" fill="#FAC7B7"/>
<path d="M177.204 217.02C177.321 217.258 177.357 217.527 177.307 217.788C177.257 218.048 177.124 218.285 176.928 218.464C176.771 218.593 176.588 218.688 176.393 218.743C176.197 218.798 175.992 218.813 175.79 218.786C175.589 218.759 175.395 218.691 175.221 218.586C175.046 218.48 174.896 218.341 174.778 218.175C174.683 217.998 174.632 217.802 174.629 217.602C174.626 217.401 174.67 217.203 174.759 217.023C174.847 216.844 174.978 216.688 175.139 216.568C175.3 216.449 175.487 216.37 175.684 216.337C175.684 216.337 176.775 216.096 177.204 217.02Z" fill="#FAC7B7"/>
<path d="M177.204 203.997C177.321 204.234 177.357 204.503 177.307 204.763C177.258 205.022 177.124 205.259 176.928 205.436C176.771 205.565 176.589 205.661 176.393 205.716C176.198 205.772 175.993 205.787 175.791 205.76C175.59 205.734 175.396 205.666 175.221 205.561C175.047 205.457 174.896 205.317 174.778 205.152C174.683 204.975 174.632 204.778 174.629 204.578C174.626 204.377 174.67 204.179 174.759 203.999C174.847 203.819 174.977 203.662 175.138 203.543C175.299 203.423 175.486 203.343 175.684 203.31C175.684 203.31 176.775 203.086 177.204 203.997Z" fill="#FAC7B7"/>
<path d="M177.204 320.465C177.321 320.703 177.357 320.972 177.307 321.231C177.258 321.491 177.125 321.728 176.928 321.905C176.771 322.033 176.589 322.128 176.393 322.184C176.198 322.239 175.993 322.254 175.792 322.227C175.59 322.2 175.396 322.133 175.222 322.029C175.048 321.924 174.897 321.785 174.778 321.621C174.34 320.916 174.865 319.822 175.684 319.778C175.684 319.778 176.775 319.524 177.204 320.465Z" fill="#FAC7B7"/>
<path d="M177.204 307.455C177.321 307.693 177.357 307.963 177.307 308.223C177.257 308.484 177.124 308.721 176.928 308.899C176.771 309.028 176.588 309.123 176.393 309.179C176.197 309.234 175.992 309.249 175.79 309.222C175.589 309.194 175.395 309.126 175.221 309.021C175.046 308.916 174.896 308.776 174.778 308.611C174.683 308.434 174.632 308.237 174.629 308.036C174.626 307.836 174.67 307.637 174.759 307.457C174.847 307.277 174.977 307.121 175.138 307.001C175.299 306.881 175.486 306.802 175.684 306.768C175.684 306.768 176.775 306.532 177.204 307.455Z" fill="#FAC7B7"/>
<path d="M177.204 294.45C177.321 294.687 177.357 294.956 177.307 295.216C177.258 295.475 177.125 295.712 176.928 295.889C176.771 296.018 176.589 296.112 176.393 296.168C176.198 296.223 175.993 296.238 175.792 296.211C175.59 296.185 175.396 296.117 175.222 296.013C175.048 295.908 174.897 295.77 174.778 295.605C174.34 294.9 174.865 293.806 175.684 293.762C175.684 293.762 176.775 293.522 177.204 294.45Z" fill="#FAC7B7"/>
<path d="M177.204 281.453C177.321 281.691 177.357 281.96 177.307 282.221C177.257 282.481 177.124 282.718 176.928 282.897C176.771 283.026 176.588 283.121 176.393 283.176C176.197 283.231 175.992 283.246 175.79 283.219C175.589 283.192 175.395 283.124 175.221 283.019C175.046 282.913 174.896 282.774 174.778 282.608C174.683 282.431 174.632 282.234 174.629 282.034C174.626 281.833 174.67 281.635 174.759 281.455C174.847 281.275 174.977 281.119 175.138 280.999C175.299 280.879 175.486 280.799 175.684 280.766C175.684 280.766 176.775 280.516 177.204 281.453Z" fill="#FAC7B7"/>
<path d="M177.204 268.434C177.321 268.671 177.357 268.94 177.307 269.2C177.258 269.46 177.125 269.696 176.928 269.874C176.771 270.003 176.589 270.098 176.393 270.154C176.198 270.209 175.993 270.224 175.791 270.198C175.59 270.171 175.396 270.103 175.221 269.999C175.047 269.894 174.896 269.755 174.778 269.589C174.34 268.885 174.865 267.791 175.684 267.747C175.684 267.747 176.775 267.506 177.204 268.434Z" fill="#FAC7B7"/>
<path d="M192.081 262.238C192.197 262.476 192.233 262.745 192.184 263.006C192.134 263.266 192.001 263.503 191.805 263.682C191.647 263.81 191.465 263.905 191.269 263.961C191.074 264.016 190.869 264.031 190.667 264.004C190.465 263.977 190.271 263.908 190.097 263.803C189.923 263.698 189.772 263.559 189.655 263.393C189.56 263.216 189.509 263.019 189.506 262.819C189.502 262.618 189.547 262.42 189.635 262.24C189.724 262.06 189.854 261.903 190.015 261.783C190.176 261.664 190.363 261.584 190.561 261.551C190.561 261.551 191.652 261.323 192.081 262.238Z" fill="#FAC7B7"/>
<path d="M192.081 249.232C192.198 249.469 192.234 249.738 192.184 249.998C192.134 250.258 192.001 250.494 191.805 250.671C191.648 250.799 191.466 250.893 191.271 250.947C191.076 251.002 190.872 251.016 190.672 250.989C190.471 250.962 190.278 250.894 190.105 250.79C189.931 250.686 189.781 250.547 189.663 250.383C189.225 249.678 189.751 248.584 190.57 248.54C190.561 248.545 191.652 248.304 192.081 249.232Z" fill="#FAC7B7"/>
<path d="M192.081 236.222C192.197 236.46 192.233 236.73 192.184 236.99C192.134 237.25 192.001 237.488 191.805 237.666C191.647 237.795 191.465 237.89 191.269 237.945C191.074 238.001 190.869 238.015 190.667 237.988C190.465 237.961 190.271 237.893 190.097 237.788C189.923 237.683 189.772 237.543 189.655 237.377C189.56 237.2 189.509 237.003 189.506 236.803C189.502 236.602 189.547 236.404 189.635 236.224C189.724 236.044 189.854 235.888 190.015 235.768C190.176 235.648 190.363 235.568 190.561 235.535C190.561 235.535 191.652 235.299 192.081 236.222Z" fill="#FAC7B7"/>
<path d="M192.081 223.216C192.198 223.453 192.234 223.722 192.184 223.982C192.134 224.242 192.001 224.478 191.805 224.656C191.648 224.785 191.466 224.88 191.27 224.936C191.075 224.992 190.87 225.007 190.668 224.98C190.466 224.953 190.272 224.885 190.098 224.781C189.924 224.676 189.773 224.537 189.655 224.371C189.217 223.667 189.742 222.573 190.561 222.529C190.561 222.529 191.652 222.288 192.081 223.216Z" fill="#FAC7B7"/>
<path d="M192.081 210.206C192.197 210.444 192.233 210.714 192.184 210.974C192.134 211.235 192.001 211.472 191.805 211.65C191.647 211.779 191.465 211.874 191.269 211.93C191.074 211.985 190.869 212 190.667 211.972C190.465 211.945 190.271 211.877 190.097 211.772C189.923 211.667 189.772 211.527 189.655 211.362C189.56 211.185 189.509 210.988 189.506 210.788C189.502 210.588 189.547 210.39 189.635 210.21C189.724 210.03 189.854 209.874 190.015 209.755C190.176 209.636 190.363 209.556 190.561 209.524C190.561 209.524 191.652 209.283 192.081 210.206Z" fill="#FAC7B7"/>
<path d="M192.081 326.657C192.198 326.895 192.234 327.164 192.184 327.423C192.134 327.683 192.001 327.92 191.805 328.097C191.648 328.226 191.466 328.321 191.27 328.377C191.074 328.433 190.87 328.448 190.668 328.421C190.466 328.394 190.272 328.327 190.098 328.222C189.924 328.117 189.773 327.978 189.655 327.813C189.56 327.636 189.509 327.439 189.506 327.238C189.502 327.038 189.547 326.839 189.635 326.659C189.724 326.479 189.854 326.323 190.015 326.203C190.176 326.083 190.363 326.004 190.561 325.97C190.561 325.97 191.652 325.73 192.081 326.657Z" fill="#FAC7B7"/>
<path d="M192.081 313.652C192.198 313.889 192.234 314.158 192.184 314.418C192.134 314.677 192.001 314.914 191.805 315.091C191.647 315.22 191.465 315.314 191.27 315.37C191.074 315.425 190.87 315.44 190.668 315.413C190.467 315.387 190.273 315.319 190.099 315.215C189.924 315.111 189.773 314.972 189.655 314.807C189.217 314.102 189.742 313.008 190.561 312.965C190.561 312.96 191.652 312.724 192.081 313.652Z" fill="#FAC7B7"/>
<path d="M192.081 300.642C192.197 300.88 192.233 301.149 192.184 301.41C192.134 301.67 192.001 301.907 191.805 302.086C191.647 302.214 191.465 302.309 191.269 302.365C191.074 302.42 190.869 302.435 190.667 302.408C190.465 302.381 190.271 302.313 190.097 302.207C189.923 302.102 189.772 301.963 189.655 301.797C189.56 301.62 189.509 301.423 189.506 301.223C189.502 301.022 189.547 300.824 189.635 300.644C189.724 300.464 189.854 300.307 190.015 300.188C190.176 300.068 190.363 299.988 190.561 299.955C190.561 299.955 191.652 299.714 192.081 300.642Z" fill="#FAC7B7"/>
<path d="M192.081 287.636C192.198 287.873 192.234 288.142 192.184 288.402C192.134 288.662 192.001 288.898 191.805 289.076C191.647 289.204 191.465 289.299 191.27 289.354C191.074 289.41 190.87 289.425 190.668 289.398C190.467 289.371 190.273 289.304 190.099 289.199C189.924 289.095 189.773 288.956 189.655 288.791C189.217 288.087 189.742 286.993 190.561 286.949C190.561 286.949 191.652 286.704 192.081 287.636Z" fill="#FAC7B7"/>
<path d="M192.081 274.626C192.197 274.864 192.233 275.134 192.184 275.394C192.134 275.654 192.001 275.892 191.805 276.07C191.647 276.197 191.464 276.289 191.268 276.343C191.073 276.396 190.868 276.408 190.668 276.38C190.467 276.351 190.275 276.282 190.102 276.176C189.929 276.07 189.78 275.93 189.663 275.764C189.569 275.587 189.518 275.39 189.515 275.19C189.511 274.989 189.556 274.791 189.644 274.611C189.733 274.431 189.863 274.274 190.024 274.155C190.185 274.035 190.372 273.955 190.57 273.922C190.57 273.922 191.652 273.703 192.081 274.626Z" fill="#FAC7B7"/>
<path d="M205.096 256.045C205.213 256.283 205.249 256.552 205.2 256.811C205.15 257.071 205.017 257.308 204.82 257.485C204.663 257.614 204.482 257.709 204.287 257.765C204.091 257.821 203.887 257.836 203.685 257.809C203.484 257.782 203.291 257.715 203.117 257.61C202.943 257.505 202.792 257.366 202.674 257.201C202.236 256.496 202.758 255.402 203.581 255.358C203.581 255.358 204.671 255.118 205.096 256.045Z" fill="#FAC7B7"/>
<path d="M205.096 243.035C205.213 243.274 205.249 243.543 205.199 243.803C205.149 244.064 205.016 244.301 204.82 244.479C204.663 244.608 204.481 244.703 204.286 244.758C204.09 244.814 203.886 244.828 203.684 244.801C203.483 244.774 203.29 244.706 203.116 244.601C202.942 244.496 202.792 244.356 202.674 244.191C202.579 244.014 202.527 243.817 202.523 243.616C202.519 243.415 202.564 243.216 202.652 243.036C202.741 242.856 202.872 242.699 203.033 242.58C203.195 242.46 203.382 242.381 203.581 242.348C203.581 242.348 204.671 242.112 205.096 243.035Z" fill="#FAC7B7"/>
<path d="M205.096 230.03C205.213 230.267 205.249 230.536 205.2 230.796C205.15 231.056 205.017 231.292 204.82 231.47C204.663 231.598 204.482 231.694 204.287 231.749C204.091 231.805 203.887 231.82 203.685 231.793C203.484 231.767 203.291 231.699 203.117 231.594C202.943 231.49 202.792 231.35 202.674 231.185C202.236 230.481 202.758 229.387 203.581 229.343C203.581 229.343 204.671 229.102 205.096 230.03Z" fill="#FAC7B7"/>
<path d="M205.096 217.02C205.213 217.258 205.249 217.527 205.199 217.788C205.149 218.048 205.016 218.285 204.82 218.464C204.663 218.592 204.481 218.687 204.286 218.743C204.09 218.798 203.886 218.813 203.684 218.786C203.483 218.759 203.29 218.69 203.116 218.585C202.942 218.48 202.792 218.341 202.674 218.175C202.579 217.999 202.527 217.802 202.523 217.601C202.519 217.401 202.564 217.202 202.652 217.022C202.741 216.842 202.872 216.686 203.033 216.567C203.195 216.448 203.383 216.369 203.581 216.337C203.581 216.337 204.671 216.096 205.096 217.02Z" fill="#FAC7B7"/>
<path d="M205.096 203.997C205.213 204.234 205.249 204.503 205.2 204.763C205.15 205.022 205.017 205.259 204.82 205.436C204.663 205.565 204.482 205.66 204.287 205.716C204.091 205.772 203.887 205.787 203.685 205.76C203.484 205.733 203.291 205.666 203.117 205.561C202.943 205.456 202.792 205.317 202.674 205.152C202.579 204.975 202.527 204.778 202.523 204.577C202.519 204.376 202.564 204.178 202.652 203.997C202.741 203.817 202.872 203.661 203.033 203.541C203.195 203.421 203.383 203.342 203.581 203.31C203.581 203.31 204.671 203.086 205.096 203.997Z" fill="#FAC7B7"/>
<path d="M205.096 320.465C205.213 320.703 205.249 320.972 205.2 321.231C205.15 321.491 205.017 321.728 204.82 321.905C204.663 322.033 204.481 322.128 204.286 322.183C204.091 322.239 203.887 322.253 203.686 322.227C203.485 322.2 203.291 322.133 203.117 322.028C202.943 321.924 202.793 321.785 202.674 321.621C202.236 320.916 202.758 319.822 203.581 319.778C203.581 319.778 204.671 319.524 205.096 320.465Z" fill="#FAC7B7"/>
<path d="M205.096 307.455C205.213 307.693 205.249 307.963 205.199 308.223C205.149 308.484 205.016 308.721 204.82 308.899C204.663 309.028 204.481 309.123 204.286 309.178C204.09 309.234 203.886 309.248 203.684 309.221C203.483 309.194 203.29 309.126 203.116 309.021C202.942 308.916 202.792 308.776 202.674 308.611C202.579 308.434 202.527 308.237 202.523 308.036C202.519 307.835 202.564 307.636 202.652 307.456C202.741 307.276 202.872 307.119 203.033 307C203.195 306.88 203.382 306.801 203.581 306.768C203.581 306.768 204.671 306.532 205.096 307.455Z" fill="#FAC7B7"/>
<path d="M205.096 294.45C205.213 294.687 205.249 294.956 205.2 295.216C205.15 295.475 205.017 295.712 204.82 295.889C204.663 296.017 204.481 296.112 204.286 296.168C204.091 296.223 203.887 296.238 203.686 296.211C203.485 296.184 203.291 296.117 203.117 296.013C202.943 295.908 202.793 295.77 202.674 295.605C202.236 294.9 202.758 293.806 203.581 293.762C203.581 293.762 204.671 293.522 205.096 294.45Z" fill="#FAC7B7"/>
<path d="M205.096 281.453C205.213 281.691 205.249 281.96 205.199 282.221C205.149 282.481 205.016 282.718 204.82 282.897C204.663 283.025 204.481 283.12 204.286 283.176C204.09 283.231 203.886 283.246 203.684 283.219C203.483 283.192 203.29 283.123 203.116 283.018C202.942 282.913 202.792 282.774 202.674 282.608C202.579 282.431 202.527 282.234 202.523 282.033C202.519 281.833 202.564 281.634 202.652 281.453C202.741 281.273 202.872 281.117 203.033 280.997C203.195 280.877 203.382 280.798 203.581 280.766C203.581 280.766 204.671 280.516 205.096 281.453Z" fill="#FAC7B7"/>
<path d="M205.096 268.434C205.213 268.671 205.249 268.94 205.2 269.2C205.15 269.46 205.017 269.696 204.82 269.874C204.663 270.002 204.482 270.098 204.287 270.153C204.091 270.209 203.887 270.224 203.685 270.197C203.484 270.171 203.291 270.103 203.117 269.998C202.943 269.894 202.792 269.754 202.674 269.589C202.236 268.885 202.758 267.791 203.581 267.747C203.581 267.747 204.671 267.506 205.096 268.434Z" fill="#FAC7B7"/>
<path d="M136.533 15.2661C136.533 16.0582 136.533 16.8503 136.459 17.638C136.378 18.3868 136.201 19.1221 135.933 19.826C135.914 19.8944 135.909 19.9658 135.917 20.0363C135.926 20.1067 135.948 20.1748 135.983 20.2365C136.018 20.2983 136.065 20.3526 136.121 20.3963C136.177 20.4399 136.241 20.4722 136.31 20.4912C136.378 20.5101 136.45 20.5154 136.52 20.5068C136.591 20.4981 136.659 20.4757 136.72 20.4407C136.782 20.4058 136.837 20.359 136.88 20.3031C136.924 20.2472 136.956 20.1832 136.975 20.1148C137.562 18.5482 137.615 16.9203 137.615 15.2618C137.602 15.1268 137.54 15.0013 137.44 14.9099C137.34 14.8185 137.209 14.7678 137.074 14.7678C136.938 14.7678 136.808 14.8185 136.707 14.9099C136.607 15.0013 136.545 15.1268 136.533 15.2618V15.2661Z" fill="#7F4341"/>
<path d="M177.375 308.628C177.397 311.039 174.362 312.063 171.975 312.457C164.24 313.735 156.639 315.721 149.268 318.391C148.76 318.527 148.298 318.796 147.928 319.17C146.886 320.43 146.575 323.808 146.684 325.782C161.475 326.863 176.341 326.201 190.977 323.808C192.501 323.55 194.156 323.196 195.124 321.988C194.248 319.262 193.136 314.754 191.805 312.221C191.511 311.548 191.06 310.956 190.491 310.492L177.375 308.628Z" fill="#FAC7B7"/>
<path d="M146.505 325.489L165.962 324.36C172.325 323.992 178.662 323.699 184.885 322.141C188.301 321.266 191.643 320.172 194.958 318.999C195.891 318.671 195.488 317.174 194.542 317.507C188.66 319.581 182.696 321.415 176.468 322.08C170.136 322.763 163.729 322.955 157.37 323.31L146.496 323.94C145.502 323.997 145.498 325.546 146.496 325.489H146.505Z" fill="white"/>
<path d="M187.719 40.1046C188.087 30.591 188.218 21.1213 190.57 11.8922C192.247 5.29745 198.304 7.21853 199.933 12.5092C201.069 15.9924 202.027 19.5314 202.801 23.1124C203.734 27.7947 204.036 35.6716 204.339 40.4371C204.421 41.0749 204.371 41.7227 204.194 42.3407C203.913 42.9542 203.502 43.4993 202.99 43.938C200.901 46.0079 198.908 45.7541 196.718 47.0494L187.719 40.1046Z" fill="#FAC8B8"/>
<path d="M203.147 44.5594C202.784 38.2404 202.271 31.9126 201.321 25.6505C200.581 20.8762 199.569 16.0626 197.651 11.6077C196.853 9.69838 195.772 7.91944 194.446 6.33021C193.793 5.56878 192.694 6.67155 193.346 7.42423C195.856 10.3474 197.174 14.1896 198.164 17.8524C199.539 23.003 200.253 28.3243 200.791 33.6062C201.155 37.247 201.413 40.8967 201.623 44.5463C201.685 45.5353 203.23 45.544 203.174 44.5463L203.147 44.5594Z" fill="white"/>
<path d="M18.772 177.25C17.1078 177.154 15.4437 177.071 13.7751 177.071C11.8701 177.071 9.79866 177.071 7.96371 177.648C7.3276 177.795 6.76602 178.166 6.38277 178.694C6.23827 178.948 6.17942 179.242 6.21491 179.532C6.2504 179.822 6.37835 180.093 6.57983 180.305C7.13837 180.772 7.82526 181.061 8.55054 181.132C9.5797 181.304 10.6208 181.397 11.6643 181.407C13.9021 181.46 16.1312 181.307 18.3691 181.224C19.061 181.197 19.0654 180.112 18.3691 180.138C16.6173 180.204 14.9181 180.313 13.1883 180.331C11.4584 180.348 9.44393 180.471 7.82357 179.823C7.62682 179.756 7.44944 179.642 7.30681 179.491C7.29529 179.423 7.29529 179.353 7.30681 179.285C7.45133 178.961 8.02064 178.756 8.44106 178.637C10.1096 178.178 11.9227 178.178 13.6481 178.178C15.3736 178.178 17.064 178.257 18.772 178.353C19.4683 178.397 19.4639 177.311 18.772 177.272V177.25Z" fill="#7F4341"/>
</svg>
