<svg width="26" height="26" viewBox="0 0 26 26" fill="none" xmlns="http://www.w3.org/2000/svg">
<g clip-path="url(#clip0_10037_26)">
<path d="M21.6817 0.796875H4.00586C1.98674 0.796875 0.34375 2.43987 0.34375 4.45899V22.1348C0.34375 24.1539 1.98674 25.7969 4.00586 25.7969H21.6817C23.7008 25.7969 25.3438 24.1539 25.3438 22.1348V4.45899C25.3438 2.43987 23.7008 0.796875 21.6817 0.796875ZM12.8926 19.8399C9.25774 19.8399 6.30078 16.8829 6.30078 13.2481C6.30078 9.61321 9.25774 6.65625 12.8926 6.65625C16.5275 6.65625 19.4844 9.61321 19.4844 13.2481C19.4844 16.8829 16.5275 19.8399 12.8926 19.8399ZM20.2167 8.1211C19.0052 8.1211 18.0196 7.13537 18.0196 5.92382C18.0196 4.71228 19.0052 3.72656 20.2167 3.72656C21.4283 3.72656 22.414 4.71228 22.414 5.92382C22.414 7.13537 21.4283 8.1211 20.2167 8.1211Z" fill="#198C36"/>
<path d="M20.2168 5.19141C19.8127 5.19141 19.4844 5.51967 19.4844 5.92383C19.4844 6.328 19.8127 6.65626 20.2168 6.65626C20.621 6.65626 20.9493 6.328 20.9493 5.92383C20.9493 5.51967 20.621 5.19141 20.2168 5.19141Z" fill="#198C36"/>
<path d="M12.8925 8.12109C10.0659 8.12109 7.76562 10.4214 7.76562 13.2481C7.76562 16.0748 10.0659 18.375 12.8925 18.375C15.7192 18.375 18.0195 16.0748 18.0195 13.2481C18.0195 10.4214 15.7192 8.12109 12.8925 8.12109Z" fill="#198C36"/>
</g>
<defs>
<clipPath id="clip0_10037_26">
<rect width="25" height="25" fill="white" transform="translate(0.34375 0.796875)"/>
</clipPath>
</defs>
</svg>
