<svg width="31" height="29" viewBox="0 0 31 29" fill="none" xmlns="http://www.w3.org/2000/svg">
<path d="M25.9492 0.796875H4.73828C2.31534 0.796875 0.34375 2.61475 0.34375 4.84879V24.4061C0.34375 26.6402 2.31534 28.458 4.73828 28.458H25.9492C28.3721 28.458 30.3438 26.6402 30.3438 24.4061V4.84879C30.3438 2.61475 28.3721 0.796875 25.9492 0.796875ZM10.9493 22.7313H7.43359V11.3859H10.9493V22.7313ZM10.9493 9.76513H7.43359V6.52359H10.9493V9.76513ZM23.254 22.7313H19.7383V16.2482C19.7383 15.3547 18.9495 14.6275 17.9804 14.6275C17.0113 14.6275 16.2226 15.3547 16.2226 16.2482V22.7313H12.7071V11.3859H16.2226V11.9969C17.1436 11.7329 17.742 11.3859 18.8594 11.3859C21.2437 11.3882 23.254 13.3604 23.254 15.6911V22.7313Z" fill="#198C36"/>
</svg>
