<svg width="63" height="75" viewBox="0 0 63 75" fill="none" xmlns="http://www.w3.org/2000/svg">
<path d="M4.60508 13.91C1.95249 15.4425 0.26245 18.2463 0.139334 21.3396C-0.280378 31.8001 -0.677706 53.9074 13.7772 65.1284L26.1672 73.4888C28.9932 75.3959 32.6475 75.4924 35.5799 73.7499C39.4133 71.4739 44.545 68.0457 47.5109 64.487C47.6453 64.3224 47.7851 64.1692 47.9306 64.0159C49.811 62.0805 63.9693 46.5969 61.77 21.0672C61.5181 18.1441 59.8785 15.5219 57.3714 14.0519L35.4344 1.20756C32.7034 -0.393015 29.3401 -0.404367 26.6037 1.18486L4.60508 13.91Z" fill="#F7BC28"/>
<path d="M11.4208 19.7606C9.45658 20.8958 8.203 22.9788 8.10788 25.2718C7.79448 33.0306 7.50348 49.4223 18.2202 57.7488L27.4091 63.9524C29.5076 65.3657 32.2161 65.4394 34.3875 64.1454C37.2304 62.4596 41.0358 59.9169 43.235 57.2776C43.3358 57.1585 43.4365 57.0393 43.5484 56.9314C44.9418 55.4954 55.4012 43.8998 53.8118 25.0788C53.7111 23.8585 50.7228 20.209 49.7042 19.3803L34.2868 10.3388C32.261 9.15254 29.7707 9.14686 27.7393 10.3218L11.4208 19.7606Z" fill="#E48929"/>
<path d="M30.9963 9.44189V37.4973H53.1627C53.1627 37.4973 54.7409 29.6704 53.8175 25.0787C53.8175 25.0787 53.5601 21.9229 49.7099 19.3802L34.2869 10.3387C34.2869 10.3387 32.7199 9.38513 30.9963 9.44189Z" fill="#FBFAF7"/>
<path d="M30.9963 37.4974L30.9907 65.0591C30.9907 65.0591 29.2111 65.1613 26.9782 63.6515L19.5912 58.6681C19.5912 58.6681 13.3292 54.8824 11.2922 48.6163C11.2922 48.6163 8.72351 42.8554 8.37097 36.981L30.9963 37.4974Z" fill="#FBFAF7"/>
</svg>
