<svg width="83" height="75" viewBox="0 0 83 75" fill="none" xmlns="http://www.w3.org/2000/svg">
<path d="M35.923 25.6696C38.2813 22.5801 41.7997 0.559416 48.1226 6.57315C52.2401 10.4763 54.7004 21.4104 58.2315 25.5552C62.5402 30.6026 84.1475 25.4916 82.9364 33.5777C82.0951 39.1846 69.9721 42.7191 66.7979 47.2071C60.6918 55.8272 71.0811 61.7012 70.431 70.1179C69.7426 78.9413 56.1281 70.0797 51.9852 67.6386C48.5688 65.6297 46.5036 63.6209 42.5519 64.689C35.6936 66.5324 32.1625 74.0719 24.8963 74.9746C17.5537 75.89 25.0876 60.0356 26.1202 57.6072C26.9997 55.5476 30.722 50.0551 30.1739 47.7666C29.1795 43.6091 20.8171 42.3122 17.3625 41.2061C11.5113 39.3499 8.03119 33.0438 14.6728 31.9757C22.487 30.7044 32.086 30.6916 35.923 25.6696Z" fill="#F7BC28"/>
<path d="M40.9329 33.0312C42.2332 31.3275 44.1709 19.2365 47.6382 22.5421C49.8945 24.6908 51.2585 30.6918 53.1962 32.9676C55.5673 35.7393 67.4353 32.9295 66.7724 37.3794C66.3136 40.4562 59.6465 42.4015 57.9001 44.8679C54.5475 49.5976 60.2584 52.8269 59.9015 57.4548C59.5191 62.2989 52.0489 57.4293 49.7671 56.0944C47.8931 54.9883 46.7587 53.8822 44.5788 54.467C40.8182 55.4841 38.8678 59.6289 34.8778 60.1248C30.8495 60.6206 34.9798 51.9242 35.5534 50.5765C36.0379 49.445 38.0775 46.4317 37.7715 45.1731C37.2234 42.8846 32.6215 42.1726 30.7348 41.575C27.5224 40.5579 25.6103 37.087 29.2561 36.5021C33.5521 35.7902 38.8168 35.7902 40.9329 33.0312Z" fill="#E48929"/>
<path d="M70.3543 8.18795C70.4817 5.59429 71.0299 3.01335 71.986 0.58497C72.1006 0.292547 72.3302 -0.0634453 72.6488 0.000124799C72.8783 0.0509809 72.993 0.305261 73.0568 0.521399C73.5922 2.11065 73.9363 3.75076 74.0766 5.42901C74.102 5.65786 74.1275 5.91215 74.2933 6.06471C74.561 6.30628 74.9944 6.15371 75.3131 5.98843C76.8555 5.18744 78.4108 4.37374 79.9532 3.57276C80.0297 5.55615 77.7861 6.73855 76.7918 8.45498C76.6389 8.72195 76.5113 9.01437 76.5751 9.31951C76.6261 9.5992 76.8428 9.80262 77.034 10.0061C78.4363 11.43 79.8385 12.854 81.2535 14.2907C79.1374 14.5195 76.932 13.8838 75.2621 12.5616C75.2621 15.0408 74.9944 17.5328 74.4462 19.9612C73.2607 18.1176 72.3812 16.0707 71.884 13.9474C70.6475 14.8374 69.3982 15.7146 68.1616 16.6046C68.799 15.2697 69.4364 13.9347 70.0738 12.6124C70.1503 12.4344 70.2395 12.2565 70.2268 12.0658C70.2013 11.7606 69.9336 11.5445 69.6787 11.3664C68.3019 10.4638 65.5356 9.76445 65.1914 7.9591C66.6065 7.37426 68.8373 7.90824 70.3543 8.18795Z" fill="#FBC8B8"/>
<path d="M4.42343 57.6072C4.47443 55.6366 4.8951 53.6658 5.65996 51.8477C5.73644 51.657 5.87667 51.4282 6.08063 51.4536C6.27184 51.4663 6.36108 51.6825 6.42482 51.8605C6.82 53.0683 7.0877 54.3143 7.21517 55.573C7.24067 55.7637 7.26617 55.9671 7.39364 56.0942C7.66134 56.3358 8.06927 56.107 8.34972 55.8908C9.34402 55.1406 10.4658 54.5813 11.6513 54.2253C11.4857 55.7383 9.84117 56.6155 9.12729 57.9632C9.05081 58.1031 8.98712 58.2556 9.01261 58.4209C9.03811 58.5989 9.17828 58.7514 9.30582 58.8786C10.3893 59.9466 11.4729 61.0273 12.5437 62.108C10.9885 62.5403 9.39501 61.6629 8.01827 60.8239C8.05652 62.7055 7.87806 64.5872 7.45738 66.418C6.56505 64.994 5.91491 63.4303 5.54523 61.7901C4.64015 62.5021 3.73507 63.2268 2.82998 63.9388C2.97021 62.9852 3.39088 62.0825 4.01551 61.3578C4.20673 61.1417 4.43619 60.9001 4.41069 60.6077C4.38519 60.3153 4.11749 60.0992 3.87529 59.9339C2.58777 59.0693 1.28752 58.1921 0 57.3148C0.2677 56.9842 0.803102 56.9079 1.16004 57.1495L4.42343 57.6072Z" fill="#FBC8B8"/>
</svg>
