<svg width="31" height="23" viewBox="0 0 31 23" fill="none" xmlns="http://www.w3.org/2000/svg">
<path d="M30.3438 3.0508C29.2282 3.50202 28.0393 3.80111 26.7999 3.94633C28.0749 3.24442 29.0481 2.14144 29.5056 0.811967C28.3168 1.46547 27.0043 1.92706 25.6056 2.18466C24.4768 1.07648 22.8681 0.390137 21.1131 0.390137C17.7081 0.390137 14.9669 2.93842 14.9669 6.0624C14.9669 6.5119 15.0082 6.9441 15.1094 7.35556C9.99625 7.12563 5.47188 4.86606 2.4325 1.42398C1.90187 2.27283 1.59063 3.24442 1.59063 4.29036C1.59063 6.2543 2.6875 7.99518 4.3225 9.00308C3.33437 8.98588 2.365 8.72128 1.54375 8.30468C1.54375 8.32198 1.54375 8.34448 1.54375 8.36688C1.54375 11.1227 3.67562 13.4116 6.47125 13.9389C5.97062 14.0651 5.425 14.1256 4.85875 14.1256C4.465 14.1256 4.0675 14.1049 3.69437 14.0288C4.49125 16.2746 6.7525 17.9256 9.44125 17.9792C7.34875 19.4884 4.69187 20.3978 1.81563 20.3978C1.31125 20.3978 0.8275 20.3771 0.34375 20.32C3.06813 21.9399 6.29687 22.8648 9.77875 22.8648C21.0963 22.8648 27.2838 14.2207 27.2838 6.728C27.2838 6.47732 27.2743 6.23529 27.2612 5.99498C28.4818 5.19626 29.5074 4.19873 30.3438 3.0508Z" fill="#198C36"/>
</svg>
